%TF.GenerationSoftware,Altium Limited,Altium Designer,23.1.1 (15)*%
G04 Layer_Color=32768*
%FSLAX45Y45*%
%MOMM*%
%TF.SameCoordinates,4CCFFED5-D059-4900-A68D-9618ACEA1AB5*%
%TF.FilePolarity,Positive*%
%TF.FileFunction,Other,Mechanical_11*%
%TF.Part,CustomerPanel*%
G01*
G75*
%TA.AperFunction,NonConductor*%
%ADD65C,0.10000*%
D65*
X8635800Y4394400D02*
Y4899400D01*
X8480800Y5054400D02*
X8635800Y4899400D01*
X7975800D02*
X8130800Y5054400D01*
X8480800D01*
X7975800Y4394400D02*
Y4899400D01*
Y4394400D02*
X8635800D01*
X15989101D02*
Y4899400D01*
X15834100Y5054400D02*
X15989101Y4899400D01*
X15329100D02*
X15484100Y5054400D01*
X15834100D01*
X15329100Y4394400D02*
Y4899400D01*
Y4394400D02*
X15989101D01*
X8635800Y8471100D02*
Y8976100D01*
X8480800Y9131100D02*
X8635800Y8976100D01*
X7975800D02*
X8130800Y9131100D01*
X8480800D01*
X7975800Y8471100D02*
Y8976100D01*
Y8471100D02*
X8635800D01*
X15989101D02*
Y8976100D01*
X15834100Y9131100D02*
X15989101Y8976100D01*
X15329100D02*
X15484100Y9131100D01*
X15834100D01*
X15329100Y8471100D02*
Y8976100D01*
Y8471100D02*
X15989101D01*
%TF.MD5,5166bb8216c9958d3f79e55752c3d67b*%
M02*
