%TF.GenerationSoftware,Altium Limited,Altium Designer,23.1.1 (15)*%
G04 Layer_Color=8421504*
%FSLAX45Y45*%
%MOMM*%
%TF.SameCoordinates,4CCFFED5-D059-4900-A68D-9618ACEA1AB5*%
%TF.FilePolarity,Positive*%
%TF.FileFunction,Paste,Top*%
%TF.Part,CustomerPanel*%
G01*
G75*
%TA.AperFunction,SMDPad,CuDef*%
%ADD10R,2.33000X1.56000*%
%ADD11R,1.50000X1.30000*%
G04:AMPARAMS|DCode=12|XSize=1mm|YSize=0.8mm|CornerRadius=0.1mm|HoleSize=0mm|Usage=FLASHONLY|Rotation=180.000|XOffset=0mm|YOffset=0mm|HoleType=Round|Shape=RoundedRectangle|*
%AMROUNDEDRECTD12*
21,1,1.00000,0.60000,0,0,180.0*
21,1,0.80000,0.80000,0,0,180.0*
1,1,0.20000,-0.40000,0.30000*
1,1,0.20000,0.40000,0.30000*
1,1,0.20000,0.40000,-0.30000*
1,1,0.20000,-0.40000,-0.30000*
%
%ADD12ROUNDEDRECTD12*%
%ADD13R,1.30000X1.50000*%
%ADD14R,1.01999X3.08282*%
%ADD15R,10.99998X8.49998*%
%ADD16R,2.90000X5.40000*%
%ADD17R,2.00000X4.00000*%
%TA.AperFunction,ConnectorPad*%
%ADD18R,11.43000X8.89000*%
%ADD19R,2.08000X3.81000*%
%TA.AperFunction,SMDPad,CuDef*%
%ADD20R,1.60000X3.50000*%
D10*
X3024500Y6235700D02*
D03*
X3452500D02*
D03*
X3024500Y5499100D02*
D03*
X3452500D02*
D03*
X3024500Y5867400D02*
D03*
X3452500D02*
D03*
X10377800Y6235700D02*
D03*
X10805800D02*
D03*
X10377800Y5499100D02*
D03*
X10805800D02*
D03*
X10377800Y5867400D02*
D03*
X10805800D02*
D03*
X3024500Y10312400D02*
D03*
X3452500D02*
D03*
X3024500Y9575800D02*
D03*
X3452500D02*
D03*
X3024500Y9944100D02*
D03*
X3452500D02*
D03*
X10377800Y10312400D02*
D03*
X10805800D02*
D03*
X10377800Y9575800D02*
D03*
X10805800D02*
D03*
X10377800Y9944100D02*
D03*
X10805800D02*
D03*
D11*
X7746992Y6876808D02*
D03*
Y6686808D02*
D03*
X6413492Y7041908D02*
D03*
Y6851908D02*
D03*
Y6445492D02*
D03*
Y6635492D02*
D03*
X7746992Y6280392D02*
D03*
Y6470392D02*
D03*
X15100291Y6876808D02*
D03*
Y6686808D02*
D03*
X13766792Y7041908D02*
D03*
Y6851908D02*
D03*
Y6445492D02*
D03*
Y6635492D02*
D03*
X15100291Y6280392D02*
D03*
Y6470392D02*
D03*
X7746992Y10953508D02*
D03*
Y10763508D02*
D03*
X6413492Y11118608D02*
D03*
Y10928608D02*
D03*
Y10522192D02*
D03*
Y10712192D02*
D03*
X7746992Y10357092D02*
D03*
Y10547092D02*
D03*
X15100291Y10953508D02*
D03*
Y10763508D02*
D03*
X13766792Y11118608D02*
D03*
Y10928608D02*
D03*
Y10522192D02*
D03*
Y10712192D02*
D03*
X15100291Y10357092D02*
D03*
Y10547092D02*
D03*
D12*
X5549900Y6159500D02*
D03*
X5854700D02*
D03*
X6953701Y6146800D02*
D03*
X7258501D02*
D03*
X12903200Y6159500D02*
D03*
X13208000D02*
D03*
X14307001Y6146800D02*
D03*
X14611801D02*
D03*
X5549900Y10236200D02*
D03*
X5854700D02*
D03*
X6953701Y10223500D02*
D03*
X7258501D02*
D03*
X12903200Y10236200D02*
D03*
X13208000D02*
D03*
X14307001Y10223500D02*
D03*
X14611801D02*
D03*
D13*
X4451108Y4787908D02*
D03*
X4261108D02*
D03*
X4032008Y5956308D02*
D03*
X3842008D02*
D03*
X4197608D02*
D03*
X4387608D02*
D03*
X11804408Y4787908D02*
D03*
X11614408D02*
D03*
X11385308Y5956308D02*
D03*
X11195308D02*
D03*
X11550908D02*
D03*
X11740908D02*
D03*
X4451108Y8864608D02*
D03*
X4261108D02*
D03*
X4032008Y10033008D02*
D03*
X3842008D02*
D03*
X4197608D02*
D03*
X4387608D02*
D03*
X11804408Y8864608D02*
D03*
X11614408D02*
D03*
X11385308Y10033008D02*
D03*
X11195308D02*
D03*
X11550908D02*
D03*
X11740908D02*
D03*
D14*
X6784701Y6477319D02*
D03*
X6954700D02*
D03*
X7124700D02*
D03*
X7294700D02*
D03*
X7464699D02*
D03*
X5380900D02*
D03*
X5550899D02*
D03*
X5720899D02*
D03*
X5890899D02*
D03*
X6060898D02*
D03*
X14138000D02*
D03*
X14308000D02*
D03*
X14478000D02*
D03*
X14648000D02*
D03*
X14817999D02*
D03*
X12734200D02*
D03*
X12904199D02*
D03*
X13074199D02*
D03*
X13244199D02*
D03*
X13414198D02*
D03*
X6784701Y10554019D02*
D03*
X6954700D02*
D03*
X7124700D02*
D03*
X7294700D02*
D03*
X7464699D02*
D03*
X5380900D02*
D03*
X5550899D02*
D03*
X5720899D02*
D03*
X5890899D02*
D03*
X6060898D02*
D03*
X14138000D02*
D03*
X14308000D02*
D03*
X14478000D02*
D03*
X14648000D02*
D03*
X14817999D02*
D03*
X12734200D02*
D03*
X12904199D02*
D03*
X13074199D02*
D03*
X13244199D02*
D03*
X13414198D02*
D03*
D15*
X7124700Y7509301D02*
D03*
X5720899D02*
D03*
X14478000D02*
D03*
X13074199D02*
D03*
X7124700Y11586001D02*
D03*
X5720899D02*
D03*
X14478000D02*
D03*
X13074199D02*
D03*
D16*
X7533500Y5359400D02*
D03*
X6563500D02*
D03*
X5049800Y5372100D02*
D03*
X6019800D02*
D03*
X14886800Y5359400D02*
D03*
X13916800D02*
D03*
X12403100Y5372100D02*
D03*
X13373100D02*
D03*
X7533500Y9436100D02*
D03*
X6563500D02*
D03*
X5049800Y9448800D02*
D03*
X6019800D02*
D03*
X14886800Y9436100D02*
D03*
X13916800D02*
D03*
X12403100Y9448800D02*
D03*
X13373100D02*
D03*
D17*
X8305800Y6399797D02*
D03*
Y5689797D02*
D03*
Y7707897D02*
D03*
Y6997897D02*
D03*
X15659100Y6399797D02*
D03*
Y5689797D02*
D03*
Y7707897D02*
D03*
Y6997897D02*
D03*
X8305800Y10476497D02*
D03*
Y9766497D02*
D03*
Y11784597D02*
D03*
Y11074597D02*
D03*
X15659100Y10476497D02*
D03*
Y9766497D02*
D03*
Y11784597D02*
D03*
Y11074597D02*
D03*
D18*
X4368800Y7467600D02*
D03*
X11722100D02*
D03*
X4368800Y11544300D02*
D03*
X11722100D02*
D03*
D19*
X4622800Y6324600D02*
D03*
X4114800D02*
D03*
X11976100D02*
D03*
X11468100D02*
D03*
X4622800Y10401300D02*
D03*
X4114800D02*
D03*
X11976100D02*
D03*
X11468100D02*
D03*
D20*
X8305800Y5004400D02*
D03*
Y4444400D02*
D03*
X15659100Y5004400D02*
D03*
Y4444400D02*
D03*
X8305800Y9081100D02*
D03*
Y8521100D02*
D03*
X15659100Y9081100D02*
D03*
Y8521100D02*
D03*
%TF.MD5,b8815c042508c7e10bcf088a8971dbfd*%
M02*
