%TF.GenerationSoftware,Altium Limited,Altium Designer,23.1.1 (15)*%
G04 Layer_Color=32768*
%FSLAX45Y45*%
%MOMM*%
%TF.SameCoordinates,4CCFFED5-D059-4900-A68D-9618ACEA1AB5*%
%TF.FilePolarity,Positive*%
%TF.FileFunction,Other,Mechanical_15*%
%TF.Part,CustomerPanel*%
G01*
G75*
%TA.AperFunction,NonConductor*%
%ADD40C,0.12700*%
%ADD64C,0.05000*%
%ADD66C,0.50000*%
G36*
X17607896Y11714598D02*
X16357899Y11714598D01*
X16457899D01*
X16457899Y11114599D01*
X17607896D01*
Y11014600D01*
X16357899D01*
Y11114599D01*
Y11714598D01*
Y11814598D01*
X17607896D01*
X17607896Y11714598D01*
D02*
G37*
G36*
X10254597D02*
X9004600Y11714598D01*
X9104600D01*
X9104600Y11114599D01*
X10254597D01*
Y11014600D01*
X9004600D01*
Y11114599D01*
Y11714598D01*
Y11814598D01*
X10254597D01*
X10254597Y11714598D01*
D02*
G37*
G36*
X17607896Y10406498D02*
X16357899Y10406498D01*
X16457899D01*
X16457899Y9806499D01*
X17607896D01*
Y9706500D01*
X16357899D01*
Y9806499D01*
Y10406498D01*
Y10506498D01*
X17607896D01*
X17607896Y10406498D01*
D02*
G37*
G36*
X10254597D02*
X9004600Y10406498D01*
X9104600D01*
X9104600Y9806499D01*
X10254597D01*
Y9706500D01*
X9004600D01*
Y9806499D01*
Y10406498D01*
Y10506498D01*
X10254597D01*
X10254597Y10406498D01*
D02*
G37*
G36*
X11188400Y9128801D02*
Y8528802D01*
X11088400D01*
X11088400Y9128801D01*
X10254597D01*
Y9085698D01*
X9004600Y9085698D01*
X9104600D01*
X9104600Y8485699D01*
X9938403D01*
Y8528802D01*
X11188400Y8528802D01*
Y8428802D01*
X10254597D01*
Y8385700D01*
X9004600D01*
Y8485699D01*
Y9085698D01*
Y9185698D01*
X9938403D01*
Y9228800D01*
X11188400D01*
Y9128801D01*
D02*
G37*
G36*
X3835100D02*
Y8528802D01*
X3735100D01*
X3735100Y9128801D01*
X2585103D01*
Y9228800D01*
X3835100D01*
Y9128801D01*
D02*
G37*
G36*
Y8428802D02*
X2585103D01*
X2585103Y8528802D01*
X3835100Y8528802D01*
Y8428802D01*
D02*
G37*
G36*
X17607896Y9085698D02*
X16357899Y9085698D01*
X16457899D01*
X16457899Y8485699D01*
X17607896D01*
Y8385700D01*
X16357899D01*
Y8485699D01*
Y9085698D01*
Y9185698D01*
X17607896D01*
X17607896Y9085698D01*
D02*
G37*
G36*
Y7637898D02*
X16357899Y7637898D01*
X16457899D01*
X16457899Y7037899D01*
X17607896D01*
Y6937900D01*
X16357899D01*
Y7037899D01*
Y7637898D01*
Y7737898D01*
X17607896D01*
X17607896Y7637898D01*
D02*
G37*
G36*
X10254597D02*
X9004600Y7637898D01*
X9104600D01*
X9104600Y7037899D01*
X10254597D01*
Y6937900D01*
X9004600D01*
Y7037899D01*
Y7637898D01*
Y7737898D01*
X10254597D01*
X10254597Y7637898D01*
D02*
G37*
G36*
X17607896Y6329798D02*
X16357899Y6329798D01*
X16457899D01*
X16457899Y5729799D01*
X17607896D01*
Y5629800D01*
X16357899D01*
Y5729799D01*
Y6329798D01*
Y6429798D01*
X17607896D01*
X17607896Y6329798D01*
D02*
G37*
G36*
X10254597D02*
X9004600Y6329798D01*
X9104600D01*
X9104600Y5729799D01*
X10254597D01*
Y5629800D01*
X9004600D01*
Y5729799D01*
Y6329798D01*
Y6429798D01*
X10254597D01*
X10254597Y6329798D01*
D02*
G37*
G36*
X11188400Y5052101D02*
Y4452102D01*
X11088400D01*
X11088400Y5052101D01*
X10254597D01*
Y5008998D01*
X9004600Y5008998D01*
X9104600D01*
X9104600Y4408999D01*
X9938403D01*
Y4452102D01*
X11188400Y4452102D01*
Y4352102D01*
X10254597D01*
Y4309000D01*
X9004600D01*
Y4408999D01*
Y5008998D01*
Y5108998D01*
X9938403D01*
Y5152100D01*
X11188400D01*
Y5052101D01*
D02*
G37*
G36*
X3835100D02*
Y4452102D01*
X3735100D01*
X3735100Y5052101D01*
X2585103D01*
Y5152100D01*
X3835100D01*
Y5052101D01*
D02*
G37*
G36*
Y4352102D02*
X2585103D01*
X2585103Y4452102D01*
X3835100Y4452102D01*
Y4352102D01*
D02*
G37*
G36*
X17607896Y5008998D02*
X16357899Y5008998D01*
X16457899D01*
X16457899Y4408999D01*
X17607896D01*
Y4309000D01*
X16357899D01*
Y4408999D01*
Y5008998D01*
Y5108998D01*
X17607896D01*
X17607896Y5008998D01*
D02*
G37*
D40*
X6398500Y4709400D02*
X7698500D01*
X6398500D02*
Y6009400D01*
X7698500D01*
Y4709400D02*
Y6009400D01*
X6184800Y4722100D02*
Y6022100D01*
X4884800D02*
X6184800D01*
X4884800Y4722100D02*
Y6022100D01*
Y4722100D02*
X6184800D01*
X13751801Y4709400D02*
X15051801D01*
X13751801D02*
Y6009400D01*
X15051801D01*
Y4709400D02*
Y6009400D01*
X13538100Y4722100D02*
Y6022100D01*
X12238100D02*
X13538100D01*
X12238100Y4722100D02*
Y6022100D01*
Y4722100D02*
X13538100D01*
X6398500Y8786100D02*
X7698500D01*
X6398500D02*
Y10086100D01*
X7698500D01*
Y8786100D02*
Y10086100D01*
X6184800Y8798800D02*
Y10098800D01*
X4884800D02*
X6184800D01*
X4884800Y8798800D02*
Y10098800D01*
Y8798800D02*
X6184800D01*
X13751801Y8786100D02*
X15051801D01*
X13751801D02*
Y10086100D01*
X15051801D01*
Y8786100D02*
Y10086100D01*
X13538100Y8798800D02*
Y10098800D01*
X12238100D02*
X13538100D01*
X12238100Y8798800D02*
Y10098800D01*
Y8798800D02*
X13538100D01*
D64*
X2883000Y6408200D02*
X3594000D01*
X2883000Y6063200D02*
Y6408200D01*
Y6063200D02*
X3594000D01*
Y6408200D01*
X2883000Y5671600D02*
X3594000D01*
X2883000Y5326600D02*
Y5671600D01*
Y5326600D02*
X3594000D01*
Y5671600D01*
X2883000Y6039900D02*
X3594000D01*
X2883000Y5694900D02*
Y6039900D01*
Y5694900D02*
X3594000D01*
Y6039900D01*
X8430800Y6484797D02*
Y6624797D01*
Y6484797D02*
X8583300D01*
X8745800Y6322297D01*
Y5604797D02*
Y6322297D01*
X8430800Y5604797D02*
X8745800D01*
X8430800Y5464797D02*
Y5604797D01*
X8180800Y5464797D02*
X8430800D01*
X8180800D02*
Y5604797D01*
X7865800D02*
X8180800D01*
X7865800D02*
Y6322297D01*
X8028300Y6484797D01*
X8180800D01*
Y6624797D01*
X8430800D01*
Y7792897D02*
Y7932897D01*
Y7792897D02*
X8583300D01*
X8745800Y7630397D01*
Y6912897D02*
Y7630397D01*
X8430800Y6912897D02*
X8745800D01*
X8430800Y6772897D02*
Y6912897D01*
X8180800Y6772897D02*
X8430800D01*
X8180800D02*
Y6912897D01*
X7865800D02*
X8180800D01*
X7865800D02*
Y7630397D01*
X8028300Y7792897D01*
X8180800D01*
Y7932897D01*
X8430800D01*
X10236300Y6408200D02*
X10947300D01*
X10236300Y6063200D02*
Y6408200D01*
Y6063200D02*
X10947300D01*
Y6408200D01*
X10236300Y5671600D02*
X10947300D01*
X10236300Y5326600D02*
Y5671600D01*
Y5326600D02*
X10947300D01*
Y5671600D01*
X10236300Y6039900D02*
X10947300D01*
X10236300Y5694900D02*
Y6039900D01*
Y5694900D02*
X10947300D01*
Y6039900D01*
X15784100Y6484797D02*
Y6624797D01*
Y6484797D02*
X15936600D01*
X16099100Y6322297D01*
Y5604797D02*
Y6322297D01*
X15784100Y5604797D02*
X16099100D01*
X15784100Y5464797D02*
Y5604797D01*
X15534100Y5464797D02*
X15784100D01*
X15534100D02*
Y5604797D01*
X15219099D02*
X15534100D01*
X15219099D02*
Y6322297D01*
X15381599Y6484797D01*
X15534100D01*
Y6624797D01*
X15784100D01*
Y7792897D02*
Y7932897D01*
Y7792897D02*
X15936600D01*
X16099100Y7630397D01*
Y6912897D02*
Y7630397D01*
X15784100Y6912897D02*
X16099100D01*
X15784100Y6772897D02*
Y6912897D01*
X15534100Y6772897D02*
X15784100D01*
X15534100D02*
Y6912897D01*
X15219099D02*
X15534100D01*
X15219099D02*
Y7630397D01*
X15381599Y7792897D01*
X15534100D01*
Y7932897D01*
X15784100D01*
X2883000Y10484900D02*
X3594000D01*
X2883000Y10139900D02*
Y10484900D01*
Y10139900D02*
X3594000D01*
Y10484900D01*
X2883000Y9748300D02*
X3594000D01*
X2883000Y9403300D02*
Y9748300D01*
Y9403300D02*
X3594000D01*
Y9748300D01*
X2883000Y10116600D02*
X3594000D01*
X2883000Y9771600D02*
Y10116600D01*
Y9771600D02*
X3594000D01*
Y10116600D01*
X8430800Y10561497D02*
Y10701497D01*
Y10561497D02*
X8583300D01*
X8745800Y10398997D01*
Y9681497D02*
Y10398997D01*
X8430800Y9681497D02*
X8745800D01*
X8430800Y9541497D02*
Y9681497D01*
X8180800Y9541497D02*
X8430800D01*
X8180800D02*
Y9681497D01*
X7865800D02*
X8180800D01*
X7865800D02*
Y10398997D01*
X8028300Y10561497D01*
X8180800D01*
Y10701497D01*
X8430800D01*
Y11869597D02*
Y12009597D01*
Y11869597D02*
X8583300D01*
X8745800Y11707097D01*
Y10989597D02*
Y11707097D01*
X8430800Y10989597D02*
X8745800D01*
X8430800Y10849597D02*
Y10989597D01*
X8180800Y10849597D02*
X8430800D01*
X8180800D02*
Y10989597D01*
X7865800D02*
X8180800D01*
X7865800D02*
Y11707097D01*
X8028300Y11869597D01*
X8180800D01*
Y12009597D01*
X8430800D01*
X10236300Y10484900D02*
X10947300D01*
X10236300Y10139900D02*
Y10484900D01*
Y10139900D02*
X10947300D01*
Y10484900D01*
X10236300Y9748300D02*
X10947300D01*
X10236300Y9403300D02*
Y9748300D01*
Y9403300D02*
X10947300D01*
Y9748300D01*
X10236300Y10116600D02*
X10947300D01*
X10236300Y9771600D02*
Y10116600D01*
Y9771600D02*
X10947300D01*
Y10116600D01*
X15784100Y10561497D02*
Y10701497D01*
Y10561497D02*
X15936600D01*
X16099100Y10398997D01*
Y9681497D02*
Y10398997D01*
X15784100Y9681497D02*
X16099100D01*
X15784100Y9541497D02*
Y9681497D01*
X15534100Y9541497D02*
X15784100D01*
X15534100D02*
Y9681497D01*
X15219099D02*
X15534100D01*
X15219099D02*
Y10398997D01*
X15381599Y10561497D01*
X15534100D01*
Y10701497D01*
X15784100D01*
Y11869597D02*
Y12009597D01*
Y11869597D02*
X15936600D01*
X16099100Y11707097D01*
Y10989597D02*
Y11707097D01*
X15784100Y10989597D02*
X16099100D01*
X15784100Y10849597D02*
Y10989597D01*
X15534100Y10849597D02*
X15784100D01*
X15534100D02*
Y10989597D01*
X15219099D02*
X15534100D01*
X15219099D02*
Y11707097D01*
X15381599Y11869597D01*
X15534100D01*
Y12009597D01*
X15784100D01*
D66*
X6806794Y6386016D02*
G03*
X6806794Y6386016I-24994J0D01*
G01*
X5402993D02*
G03*
X5402993Y6386016I-24994J0D01*
G01*
X14160094D02*
G03*
X14160094Y6386016I-24994J0D01*
G01*
X12756293D02*
G03*
X12756293Y6386016I-24994J0D01*
G01*
X6806794Y10462716D02*
G03*
X6806794Y10462716I-24994J0D01*
G01*
X5402993D02*
G03*
X5402993Y10462716I-24994J0D01*
G01*
X14160094D02*
G03*
X14160094Y10462716I-24994J0D01*
G01*
X12756293D02*
G03*
X12756293Y10462716I-24994J0D01*
G01*
%TF.MD5,888bc4786a7a81e2be3a1f5530d35c1e*%
M02*
