%TF.GenerationSoftware,Altium Limited,Altium Designer,23.1.1 (15)*%
G04 Layer_Color=32768*
%FSLAX45Y45*%
%MOMM*%
%TF.SameCoordinates,4CCFFED5-D059-4900-A68D-9618ACEA1AB5*%
%TF.FilePolarity,Positive*%
%TF.FileFunction,Other,Mechanical_3*%
%TF.Part,CustomerPanel*%
G01*
G75*
%TA.AperFunction,NonConductor*%
%ADD36C,0.20000*%
%ADD64C,0.05000*%
D36*
X3787300Y6124100D02*
Y7922100D01*
Y6124100D02*
X4950300D01*
Y7922100D01*
X3787300D02*
X4950300D01*
X11140600Y6124100D02*
Y7922100D01*
Y6124100D02*
X12303600D01*
Y7922100D01*
X11140600D02*
X12303600D01*
X3787300Y10200800D02*
Y11998800D01*
Y10200800D02*
X4950300D01*
Y11998800D01*
X3787300D02*
X4950300D01*
X11140600Y10200800D02*
Y11998800D01*
Y10200800D02*
X12303600D01*
Y11998800D01*
X11140600D02*
X12303600D01*
D64*
X7945800Y4249400D02*
Y5199400D01*
X8665800D01*
Y4249400D02*
Y5199400D01*
X7945800Y4249400D02*
X8665800D01*
X8305800Y4674400D02*
Y4774400D01*
X8255800Y4724400D02*
X8355800D01*
X15299100Y4249400D02*
Y5199400D01*
X16019099D01*
Y4249400D02*
Y5199400D01*
X15299100Y4249400D02*
X16019099D01*
X15659100Y4674400D02*
Y4774400D01*
X15609100Y4724400D02*
X15709100D01*
X7945800Y8326100D02*
Y9276100D01*
X8665800D01*
Y8326100D02*
Y9276100D01*
X7945800Y8326100D02*
X8665800D01*
X8305800Y8751100D02*
Y8851100D01*
X8255800Y8801100D02*
X8355800D01*
X15299100Y8326100D02*
Y9276100D01*
X16019099D01*
Y8326100D02*
Y9276100D01*
X15299100Y8326100D02*
X16019099D01*
X15659100Y8751100D02*
Y8851100D01*
X15609100Y8801100D02*
X15709100D01*
%TF.MD5,40126b499cab7c8ab952b9ea81192963*%
M02*
