%TF.GenerationSoftware,Altium Limited,Altium Designer,23.1.1 (15)*%
G04 Layer_Color=16711935*
%FSLAX45Y45*%
%MOMM*%
%TF.SameCoordinates,4CCFFED5-D059-4900-A68D-9618ACEA1AB5*%
%TF.FilePolarity,Positive*%
%TF.FileFunction,Other,Mechanical_5*%
%TF.Part,CustomerPanel*%
G01*
G75*
%TA.AperFunction,NonConductor*%
%ADD36C,0.20000*%
G36*
X11822877Y11087540D02*
X11810580D01*
Y11133860D01*
X11810488Y11133768D01*
X11810303Y11133583D01*
X11809933Y11133306D01*
X11809378Y11132843D01*
X11808731Y11132289D01*
X11807992Y11131734D01*
X11807067Y11131087D01*
X11806050Y11130347D01*
X11804941Y11129607D01*
X11803739Y11128868D01*
X11802444Y11128036D01*
X11801057Y11127296D01*
X11798099Y11125909D01*
X11794770Y11124615D01*
Y11135710D01*
X11794863D01*
X11794955Y11135802D01*
X11795233Y11135894D01*
X11795603Y11135987D01*
X11796527Y11136449D01*
X11797821Y11137004D01*
X11799393Y11137744D01*
X11801150Y11138761D01*
X11803091Y11140055D01*
X11805125Y11141534D01*
X11805218Y11141627D01*
X11805403Y11141719D01*
X11805680Y11141997D01*
X11806050Y11142366D01*
X11807067Y11143291D01*
X11808177Y11144493D01*
X11809471Y11145972D01*
X11810765Y11147821D01*
X11811967Y11149763D01*
X11812892Y11151889D01*
X11822877D01*
Y11087540D01*
D02*
G37*
G36*
X4469577D02*
X4457280D01*
Y11133860D01*
X4457188Y11133768D01*
X4457003Y11133583D01*
X4456633Y11133306D01*
X4456078Y11132843D01*
X4455431Y11132289D01*
X4454692Y11131734D01*
X4453767Y11131087D01*
X4452750Y11130347D01*
X4451641Y11129607D01*
X4450439Y11128868D01*
X4449144Y11128036D01*
X4447757Y11127296D01*
X4444799Y11125909D01*
X4441470Y11124615D01*
Y11135710D01*
X4441563D01*
X4441655Y11135802D01*
X4441933Y11135894D01*
X4442303Y11135987D01*
X4443227Y11136449D01*
X4444521Y11137004D01*
X4446093Y11137744D01*
X4447850Y11138761D01*
X4449791Y11140055D01*
X4451825Y11141534D01*
X4451918Y11141627D01*
X4452103Y11141719D01*
X4452380Y11141997D01*
X4452750Y11142366D01*
X4453767Y11143291D01*
X4454877Y11144493D01*
X4456171Y11145972D01*
X4457465Y11147821D01*
X4458667Y11149763D01*
X4459592Y11151889D01*
X4469577D01*
Y11087540D01*
D02*
G37*
G36*
X11754552Y11152629D02*
X11755569D01*
X11756679Y11152444D01*
X11758158Y11152259D01*
X11759637Y11151982D01*
X11761301Y11151612D01*
X11763058Y11151150D01*
X11764907Y11150595D01*
X11766849Y11149855D01*
X11768698Y11149023D01*
X11770547Y11148006D01*
X11772396Y11146804D01*
X11774060Y11145510D01*
X11775724Y11143938D01*
X11775817Y11143846D01*
X11776094Y11143568D01*
X11776464Y11143014D01*
X11777019Y11142366D01*
X11777666Y11141442D01*
X11778406Y11140332D01*
X11779145Y11139130D01*
X11779977Y11137651D01*
X11780717Y11135987D01*
X11781457Y11134138D01*
X11782196Y11132196D01*
X11782844Y11129977D01*
X11783398Y11127666D01*
X11783768Y11125077D01*
X11784046Y11122396D01*
X11784138Y11119530D01*
Y11119437D01*
Y11119160D01*
Y11118698D01*
Y11118143D01*
X11784046Y11117403D01*
Y11116571D01*
X11783953Y11115647D01*
X11783861Y11114630D01*
X11783583Y11112318D01*
X11783121Y11109822D01*
X11782566Y11107326D01*
X11781734Y11104922D01*
Y11104829D01*
X11781642Y11104737D01*
X11781549Y11104459D01*
X11781364Y11104090D01*
X11780994Y11103165D01*
X11780347Y11101963D01*
X11779608Y11100576D01*
X11778683Y11098912D01*
X11777481Y11097248D01*
X11776187Y11095584D01*
X11776279D01*
X11776372Y11095399D01*
X11776649Y11095214D01*
X11777019Y11095029D01*
X11777943Y11094382D01*
X11779238Y11093642D01*
X11780810Y11092810D01*
X11782566Y11091885D01*
X11784508Y11091053D01*
X11786542Y11090221D01*
X11781734Y11080976D01*
X11781642D01*
X11781272Y11081160D01*
X11780625Y11081345D01*
X11779885Y11081623D01*
X11779053Y11081993D01*
X11778036Y11082455D01*
X11776002Y11083472D01*
X11775817Y11083564D01*
X11775447Y11083842D01*
X11775077Y11084027D01*
X11774707Y11084304D01*
X11774245Y11084581D01*
X11773690Y11084951D01*
X11772951Y11085413D01*
X11772119Y11085968D01*
X11771194Y11086523D01*
X11770085Y11087263D01*
X11768790Y11088095D01*
X11767403Y11089019D01*
X11767311D01*
X11767126Y11088927D01*
X11766756Y11088742D01*
X11766294Y11088649D01*
X11765739Y11088372D01*
X11765000Y11088187D01*
X11764260Y11087910D01*
X11763335Y11087725D01*
X11761301Y11087170D01*
X11758897Y11086800D01*
X11756309Y11086430D01*
X11753535Y11086338D01*
X11752888D01*
X11752148Y11086430D01*
X11751131Y11086523D01*
X11749837Y11086615D01*
X11748450Y11086800D01*
X11746786Y11087078D01*
X11745122Y11087447D01*
X11743272Y11087910D01*
X11741423Y11088464D01*
X11739482Y11089204D01*
X11737540Y11090036D01*
X11735691Y11090961D01*
X11733842Y11092163D01*
X11732085Y11093457D01*
X11730421Y11095029D01*
X11730329Y11095121D01*
X11730051Y11095399D01*
X11729681Y11095953D01*
X11729127Y11096601D01*
X11728479Y11097525D01*
X11727832Y11098635D01*
X11727000Y11099929D01*
X11726261Y11101316D01*
X11725521Y11102980D01*
X11724781Y11104829D01*
X11724042Y11106863D01*
X11723394Y11108990D01*
X11722840Y11111394D01*
X11722470Y11113982D01*
X11722192Y11116664D01*
X11722100Y11119530D01*
Y11119715D01*
Y11120269D01*
X11722192Y11121009D01*
Y11122118D01*
X11722377Y11123413D01*
X11722562Y11124985D01*
X11722840Y11126649D01*
X11723117Y11128498D01*
X11723579Y11130440D01*
X11724134Y11132381D01*
X11724781Y11134415D01*
X11725613Y11136449D01*
X11726538Y11138483D01*
X11727647Y11140425D01*
X11728942Y11142274D01*
X11730421Y11143938D01*
X11730513Y11144031D01*
X11730791Y11144308D01*
X11731253Y11144770D01*
X11731993Y11145325D01*
X11732825Y11145972D01*
X11733842Y11146712D01*
X11735044Y11147544D01*
X11736431Y11148376D01*
X11738002Y11149116D01*
X11739667Y11149948D01*
X11741516Y11150687D01*
X11743550Y11151335D01*
X11745769Y11151889D01*
X11748080Y11152352D01*
X11750576Y11152629D01*
X11753165Y11152721D01*
X11753812D01*
X11754552Y11152629D01*
D02*
G37*
G36*
X4401252D02*
X4402269D01*
X4403379Y11152444D01*
X4404858Y11152259D01*
X4406337Y11151982D01*
X4408001Y11151612D01*
X4409758Y11151150D01*
X4411607Y11150595D01*
X4413549Y11149855D01*
X4415398Y11149023D01*
X4417247Y11148006D01*
X4419096Y11146804D01*
X4420760Y11145510D01*
X4422424Y11143938D01*
X4422517Y11143846D01*
X4422794Y11143568D01*
X4423164Y11143014D01*
X4423719Y11142366D01*
X4424366Y11141442D01*
X4425106Y11140332D01*
X4425845Y11139130D01*
X4426677Y11137651D01*
X4427417Y11135987D01*
X4428157Y11134138D01*
X4428896Y11132196D01*
X4429544Y11129977D01*
X4430098Y11127666D01*
X4430468Y11125077D01*
X4430746Y11122396D01*
X4430838Y11119530D01*
Y11119437D01*
Y11119160D01*
Y11118698D01*
Y11118143D01*
X4430746Y11117403D01*
Y11116571D01*
X4430653Y11115647D01*
X4430561Y11114630D01*
X4430283Y11112318D01*
X4429821Y11109822D01*
X4429266Y11107326D01*
X4428434Y11104922D01*
Y11104829D01*
X4428342Y11104737D01*
X4428249Y11104459D01*
X4428064Y11104090D01*
X4427694Y11103165D01*
X4427047Y11101963D01*
X4426308Y11100576D01*
X4425383Y11098912D01*
X4424181Y11097248D01*
X4422887Y11095584D01*
X4422979D01*
X4423072Y11095399D01*
X4423349Y11095214D01*
X4423719Y11095029D01*
X4424643Y11094382D01*
X4425938Y11093642D01*
X4427510Y11092810D01*
X4429266Y11091885D01*
X4431208Y11091053D01*
X4433242Y11090221D01*
X4428434Y11080976D01*
X4428342D01*
X4427972Y11081160D01*
X4427325Y11081345D01*
X4426585Y11081623D01*
X4425753Y11081993D01*
X4424736Y11082455D01*
X4422702Y11083472D01*
X4422517Y11083564D01*
X4422147Y11083842D01*
X4421777Y11084027D01*
X4421407Y11084304D01*
X4420945Y11084581D01*
X4420390Y11084951D01*
X4419651Y11085413D01*
X4418819Y11085968D01*
X4417894Y11086523D01*
X4416785Y11087263D01*
X4415490Y11088095D01*
X4414103Y11089019D01*
X4414011D01*
X4413826Y11088927D01*
X4413456Y11088742D01*
X4412994Y11088649D01*
X4412439Y11088372D01*
X4411700Y11088187D01*
X4410960Y11087910D01*
X4410035Y11087725D01*
X4408001Y11087170D01*
X4405597Y11086800D01*
X4403009Y11086430D01*
X4400235Y11086338D01*
X4399588D01*
X4398848Y11086430D01*
X4397831Y11086523D01*
X4396537Y11086615D01*
X4395150Y11086800D01*
X4393486Y11087078D01*
X4391822Y11087447D01*
X4389972Y11087910D01*
X4388123Y11088464D01*
X4386182Y11089204D01*
X4384240Y11090036D01*
X4382391Y11090961D01*
X4380542Y11092163D01*
X4378785Y11093457D01*
X4377121Y11095029D01*
X4377029Y11095121D01*
X4376751Y11095399D01*
X4376381Y11095953D01*
X4375827Y11096601D01*
X4375179Y11097525D01*
X4374532Y11098635D01*
X4373700Y11099929D01*
X4372961Y11101316D01*
X4372221Y11102980D01*
X4371481Y11104829D01*
X4370742Y11106863D01*
X4370094Y11108990D01*
X4369540Y11111394D01*
X4369170Y11113982D01*
X4368892Y11116664D01*
X4368800Y11119530D01*
Y11119715D01*
Y11120269D01*
X4368892Y11121009D01*
Y11122118D01*
X4369077Y11123413D01*
X4369262Y11124985D01*
X4369540Y11126649D01*
X4369817Y11128498D01*
X4370279Y11130440D01*
X4370834Y11132381D01*
X4371481Y11134415D01*
X4372313Y11136449D01*
X4373238Y11138483D01*
X4374347Y11140425D01*
X4375642Y11142274D01*
X4377121Y11143938D01*
X4377213Y11144031D01*
X4377491Y11144308D01*
X4377953Y11144770D01*
X4378693Y11145325D01*
X4379525Y11145972D01*
X4380542Y11146712D01*
X4381744Y11147544D01*
X4383131Y11148376D01*
X4384702Y11149116D01*
X4386367Y11149948D01*
X4388216Y11150687D01*
X4390250Y11151335D01*
X4392469Y11151889D01*
X4394780Y11152352D01*
X4397276Y11152629D01*
X4399865Y11152721D01*
X4400512D01*
X4401252Y11152629D01*
D02*
G37*
G36*
X11822877Y7010840D02*
X11810580D01*
Y7057160D01*
X11810488Y7057068D01*
X11810303Y7056883D01*
X11809933Y7056606D01*
X11809378Y7056143D01*
X11808731Y7055589D01*
X11807992Y7055034D01*
X11807067Y7054387D01*
X11806050Y7053647D01*
X11804941Y7052907D01*
X11803739Y7052168D01*
X11802444Y7051336D01*
X11801057Y7050596D01*
X11798099Y7049209D01*
X11794770Y7047915D01*
Y7059010D01*
X11794863D01*
X11794955Y7059102D01*
X11795233Y7059194D01*
X11795603Y7059287D01*
X11796527Y7059749D01*
X11797821Y7060304D01*
X11799393Y7061044D01*
X11801150Y7062061D01*
X11803091Y7063355D01*
X11805125Y7064834D01*
X11805218Y7064927D01*
X11805403Y7065019D01*
X11805680Y7065297D01*
X11806050Y7065666D01*
X11807067Y7066591D01*
X11808177Y7067793D01*
X11809471Y7069272D01*
X11810765Y7071121D01*
X11811967Y7073063D01*
X11812892Y7075189D01*
X11822877D01*
Y7010840D01*
D02*
G37*
G36*
X4469577D02*
X4457280D01*
Y7057160D01*
X4457188Y7057068D01*
X4457003Y7056883D01*
X4456633Y7056606D01*
X4456078Y7056143D01*
X4455431Y7055589D01*
X4454692Y7055034D01*
X4453767Y7054387D01*
X4452750Y7053647D01*
X4451641Y7052907D01*
X4450439Y7052168D01*
X4449144Y7051336D01*
X4447757Y7050596D01*
X4444799Y7049209D01*
X4441470Y7047915D01*
Y7059010D01*
X4441563D01*
X4441655Y7059102D01*
X4441933Y7059194D01*
X4442303Y7059287D01*
X4443227Y7059749D01*
X4444521Y7060304D01*
X4446093Y7061044D01*
X4447850Y7062061D01*
X4449791Y7063355D01*
X4451825Y7064834D01*
X4451918Y7064927D01*
X4452103Y7065019D01*
X4452380Y7065297D01*
X4452750Y7065666D01*
X4453767Y7066591D01*
X4454877Y7067793D01*
X4456171Y7069272D01*
X4457465Y7071121D01*
X4458667Y7073063D01*
X4459592Y7075189D01*
X4469577D01*
Y7010840D01*
D02*
G37*
G36*
X11754552Y7075929D02*
X11755569D01*
X11756679Y7075744D01*
X11758158Y7075559D01*
X11759637Y7075282D01*
X11761301Y7074912D01*
X11763058Y7074450D01*
X11764907Y7073895D01*
X11766849Y7073155D01*
X11768698Y7072323D01*
X11770547Y7071306D01*
X11772396Y7070104D01*
X11774060Y7068810D01*
X11775724Y7067238D01*
X11775817Y7067146D01*
X11776094Y7066868D01*
X11776464Y7066314D01*
X11777019Y7065666D01*
X11777666Y7064742D01*
X11778406Y7063632D01*
X11779145Y7062430D01*
X11779977Y7060951D01*
X11780717Y7059287D01*
X11781457Y7057438D01*
X11782196Y7055496D01*
X11782844Y7053277D01*
X11783398Y7050966D01*
X11783768Y7048377D01*
X11784046Y7045696D01*
X11784138Y7042830D01*
Y7042737D01*
Y7042460D01*
Y7041998D01*
Y7041443D01*
X11784046Y7040703D01*
Y7039871D01*
X11783953Y7038947D01*
X11783861Y7037930D01*
X11783583Y7035618D01*
X11783121Y7033122D01*
X11782566Y7030626D01*
X11781734Y7028222D01*
Y7028129D01*
X11781642Y7028037D01*
X11781549Y7027759D01*
X11781364Y7027390D01*
X11780994Y7026465D01*
X11780347Y7025263D01*
X11779608Y7023876D01*
X11778683Y7022212D01*
X11777481Y7020548D01*
X11776187Y7018884D01*
X11776279D01*
X11776372Y7018699D01*
X11776649Y7018514D01*
X11777019Y7018329D01*
X11777943Y7017682D01*
X11779238Y7016942D01*
X11780810Y7016110D01*
X11782566Y7015185D01*
X11784508Y7014353D01*
X11786542Y7013521D01*
X11781734Y7004276D01*
X11781642D01*
X11781272Y7004460D01*
X11780625Y7004645D01*
X11779885Y7004923D01*
X11779053Y7005293D01*
X11778036Y7005755D01*
X11776002Y7006772D01*
X11775817Y7006864D01*
X11775447Y7007142D01*
X11775077Y7007327D01*
X11774707Y7007604D01*
X11774245Y7007881D01*
X11773690Y7008251D01*
X11772951Y7008713D01*
X11772119Y7009268D01*
X11771194Y7009823D01*
X11770085Y7010563D01*
X11768790Y7011395D01*
X11767403Y7012319D01*
X11767311D01*
X11767126Y7012227D01*
X11766756Y7012042D01*
X11766294Y7011949D01*
X11765739Y7011672D01*
X11765000Y7011487D01*
X11764260Y7011210D01*
X11763335Y7011025D01*
X11761301Y7010470D01*
X11758897Y7010100D01*
X11756309Y7009730D01*
X11753535Y7009638D01*
X11752888D01*
X11752148Y7009730D01*
X11751131Y7009823D01*
X11749837Y7009915D01*
X11748450Y7010100D01*
X11746786Y7010378D01*
X11745122Y7010747D01*
X11743272Y7011210D01*
X11741423Y7011764D01*
X11739482Y7012504D01*
X11737540Y7013336D01*
X11735691Y7014261D01*
X11733842Y7015463D01*
X11732085Y7016757D01*
X11730421Y7018329D01*
X11730329Y7018421D01*
X11730051Y7018699D01*
X11729681Y7019253D01*
X11729127Y7019901D01*
X11728479Y7020825D01*
X11727832Y7021935D01*
X11727000Y7023229D01*
X11726261Y7024616D01*
X11725521Y7026280D01*
X11724781Y7028129D01*
X11724042Y7030163D01*
X11723394Y7032290D01*
X11722840Y7034694D01*
X11722470Y7037282D01*
X11722192Y7039964D01*
X11722100Y7042830D01*
Y7043015D01*
Y7043569D01*
X11722192Y7044309D01*
Y7045418D01*
X11722377Y7046713D01*
X11722562Y7048285D01*
X11722840Y7049949D01*
X11723117Y7051798D01*
X11723579Y7053740D01*
X11724134Y7055681D01*
X11724781Y7057715D01*
X11725613Y7059749D01*
X11726538Y7061783D01*
X11727647Y7063725D01*
X11728942Y7065574D01*
X11730421Y7067238D01*
X11730513Y7067331D01*
X11730791Y7067608D01*
X11731253Y7068070D01*
X11731993Y7068625D01*
X11732825Y7069272D01*
X11733842Y7070012D01*
X11735044Y7070844D01*
X11736431Y7071676D01*
X11738002Y7072416D01*
X11739667Y7073248D01*
X11741516Y7073987D01*
X11743550Y7074635D01*
X11745769Y7075189D01*
X11748080Y7075652D01*
X11750576Y7075929D01*
X11753165Y7076021D01*
X11753812D01*
X11754552Y7075929D01*
D02*
G37*
G36*
X4401252D02*
X4402269D01*
X4403379Y7075744D01*
X4404858Y7075559D01*
X4406337Y7075282D01*
X4408001Y7074912D01*
X4409758Y7074450D01*
X4411607Y7073895D01*
X4413549Y7073155D01*
X4415398Y7072323D01*
X4417247Y7071306D01*
X4419096Y7070104D01*
X4420760Y7068810D01*
X4422424Y7067238D01*
X4422517Y7067146D01*
X4422794Y7066868D01*
X4423164Y7066314D01*
X4423719Y7065666D01*
X4424366Y7064742D01*
X4425106Y7063632D01*
X4425845Y7062430D01*
X4426677Y7060951D01*
X4427417Y7059287D01*
X4428157Y7057438D01*
X4428896Y7055496D01*
X4429544Y7053277D01*
X4430098Y7050966D01*
X4430468Y7048377D01*
X4430746Y7045696D01*
X4430838Y7042830D01*
Y7042737D01*
Y7042460D01*
Y7041998D01*
Y7041443D01*
X4430746Y7040703D01*
Y7039871D01*
X4430653Y7038947D01*
X4430561Y7037930D01*
X4430283Y7035618D01*
X4429821Y7033122D01*
X4429266Y7030626D01*
X4428434Y7028222D01*
Y7028129D01*
X4428342Y7028037D01*
X4428249Y7027759D01*
X4428064Y7027390D01*
X4427694Y7026465D01*
X4427047Y7025263D01*
X4426308Y7023876D01*
X4425383Y7022212D01*
X4424181Y7020548D01*
X4422887Y7018884D01*
X4422979D01*
X4423072Y7018699D01*
X4423349Y7018514D01*
X4423719Y7018329D01*
X4424643Y7017682D01*
X4425938Y7016942D01*
X4427510Y7016110D01*
X4429266Y7015185D01*
X4431208Y7014353D01*
X4433242Y7013521D01*
X4428434Y7004276D01*
X4428342D01*
X4427972Y7004460D01*
X4427325Y7004645D01*
X4426585Y7004923D01*
X4425753Y7005293D01*
X4424736Y7005755D01*
X4422702Y7006772D01*
X4422517Y7006864D01*
X4422147Y7007142D01*
X4421777Y7007327D01*
X4421407Y7007604D01*
X4420945Y7007881D01*
X4420390Y7008251D01*
X4419651Y7008713D01*
X4418819Y7009268D01*
X4417894Y7009823D01*
X4416785Y7010563D01*
X4415490Y7011395D01*
X4414103Y7012319D01*
X4414011D01*
X4413826Y7012227D01*
X4413456Y7012042D01*
X4412994Y7011949D01*
X4412439Y7011672D01*
X4411700Y7011487D01*
X4410960Y7011210D01*
X4410035Y7011025D01*
X4408001Y7010470D01*
X4405597Y7010100D01*
X4403009Y7009730D01*
X4400235Y7009638D01*
X4399588D01*
X4398848Y7009730D01*
X4397831Y7009823D01*
X4396537Y7009915D01*
X4395150Y7010100D01*
X4393486Y7010378D01*
X4391822Y7010747D01*
X4389972Y7011210D01*
X4388123Y7011764D01*
X4386182Y7012504D01*
X4384240Y7013336D01*
X4382391Y7014261D01*
X4380542Y7015463D01*
X4378785Y7016757D01*
X4377121Y7018329D01*
X4377029Y7018421D01*
X4376751Y7018699D01*
X4376381Y7019253D01*
X4375827Y7019901D01*
X4375179Y7020825D01*
X4374532Y7021935D01*
X4373700Y7023229D01*
X4372961Y7024616D01*
X4372221Y7026280D01*
X4371481Y7028129D01*
X4370742Y7030163D01*
X4370094Y7032290D01*
X4369540Y7034694D01*
X4369170Y7037282D01*
X4368892Y7039964D01*
X4368800Y7042830D01*
Y7043015D01*
Y7043569D01*
X4368892Y7044309D01*
Y7045418D01*
X4369077Y7046713D01*
X4369262Y7048285D01*
X4369540Y7049949D01*
X4369817Y7051798D01*
X4370279Y7053740D01*
X4370834Y7055681D01*
X4371481Y7057715D01*
X4372313Y7059749D01*
X4373238Y7061783D01*
X4374347Y7063725D01*
X4375642Y7065574D01*
X4377121Y7067238D01*
X4377213Y7067331D01*
X4377491Y7067608D01*
X4377953Y7068070D01*
X4378693Y7068625D01*
X4379525Y7069272D01*
X4380542Y7070012D01*
X4381744Y7070844D01*
X4383131Y7071676D01*
X4384702Y7072416D01*
X4386367Y7073248D01*
X4388216Y7073987D01*
X4390250Y7074635D01*
X4392469Y7075189D01*
X4394780Y7075652D01*
X4397276Y7075929D01*
X4399865Y7076021D01*
X4400512D01*
X4401252Y7075929D01*
D02*
G37*
%LPC*%
G36*
X11753073Y11141719D02*
X11752333D01*
X11751778Y11141627D01*
X11751131Y11141534D01*
X11750299Y11141442D01*
X11748542Y11141072D01*
X11746508Y11140332D01*
X11745491Y11139962D01*
X11744382Y11139408D01*
X11743272Y11138761D01*
X11742255Y11138021D01*
X11741238Y11137189D01*
X11740314Y11136172D01*
X11740221Y11136079D01*
X11740129Y11135894D01*
X11739852Y11135617D01*
X11739574Y11135155D01*
X11739204Y11134508D01*
X11738742Y11133860D01*
X11738280Y11133028D01*
X11737910Y11132011D01*
X11737448Y11130902D01*
X11736985Y11129700D01*
X11736523Y11128313D01*
X11736153Y11126834D01*
X11735876Y11125170D01*
X11735599Y11123413D01*
X11735506Y11121564D01*
X11735414Y11119530D01*
Y11119437D01*
Y11119067D01*
Y11118420D01*
X11735506Y11117681D01*
X11735599Y11116756D01*
X11735691Y11115647D01*
X11735783Y11114445D01*
X11736061Y11113150D01*
X11736616Y11110469D01*
X11737448Y11107603D01*
X11738002Y11106308D01*
X11738742Y11104922D01*
X11739482Y11103720D01*
X11740314Y11102610D01*
X11740406Y11102518D01*
X11740499Y11102333D01*
X11740776Y11102056D01*
X11741238Y11101778D01*
X11741701Y11101316D01*
X11742255Y11100854D01*
X11742903Y11100391D01*
X11743735Y11099837D01*
X11745491Y11098820D01*
X11747618Y11097895D01*
X11748820Y11097618D01*
X11750022Y11097340D01*
X11751316Y11097155D01*
X11752703Y11097063D01*
X11753165D01*
X11753720Y11097155D01*
X11754367D01*
X11755199Y11097248D01*
X11756124Y11097433D01*
X11757973Y11097895D01*
X11757788Y11097987D01*
X11757326Y11098357D01*
X11756494Y11098820D01*
X11755477Y11099374D01*
X11754275Y11100021D01*
X11752980Y11100669D01*
X11751501Y11101408D01*
X11750022Y11101963D01*
X11753627Y11109452D01*
X11753720D01*
X11753905Y11109360D01*
X11754275Y11109267D01*
X11754737Y11109082D01*
X11755292Y11108805D01*
X11755939Y11108527D01*
X11757511Y11107788D01*
X11759360Y11106863D01*
X11761394Y11105754D01*
X11763613Y11104367D01*
X11765739Y11102795D01*
X11765832Y11102888D01*
X11766109Y11103350D01*
X11766571Y11103997D01*
X11767126Y11104829D01*
X11767773Y11105846D01*
X11768420Y11107048D01*
X11768975Y11108435D01*
X11769530Y11109914D01*
Y11110007D01*
X11769622Y11110099D01*
X11769715Y11110654D01*
X11769900Y11111486D01*
X11770177Y11112688D01*
X11770454Y11114075D01*
X11770639Y11115739D01*
X11770732Y11117588D01*
X11770824Y11119530D01*
Y11119622D01*
Y11119992D01*
Y11120639D01*
X11770732Y11121379D01*
X11770639Y11122303D01*
X11770547Y11123320D01*
X11770454Y11124522D01*
X11770177Y11125817D01*
X11769622Y11128498D01*
X11768790Y11131272D01*
X11768236Y11132566D01*
X11767588Y11133860D01*
X11766756Y11135062D01*
X11765924Y11136172D01*
X11765832Y11136264D01*
X11765739Y11136449D01*
X11765462Y11136727D01*
X11765000Y11137004D01*
X11764537Y11137466D01*
X11763983Y11137928D01*
X11763243Y11138391D01*
X11762503Y11138945D01*
X11761579Y11139500D01*
X11760654Y11139962D01*
X11758435Y11140887D01*
X11757233Y11141164D01*
X11755939Y11141442D01*
X11754552Y11141627D01*
X11753073Y11141719D01*
D02*
G37*
G36*
X4399773D02*
X4399033D01*
X4398478Y11141627D01*
X4397831Y11141534D01*
X4396999Y11141442D01*
X4395242Y11141072D01*
X4393208Y11140332D01*
X4392191Y11139962D01*
X4391082Y11139408D01*
X4389972Y11138761D01*
X4388955Y11138021D01*
X4387938Y11137189D01*
X4387014Y11136172D01*
X4386921Y11136079D01*
X4386829Y11135894D01*
X4386552Y11135617D01*
X4386274Y11135155D01*
X4385904Y11134508D01*
X4385442Y11133860D01*
X4384980Y11133028D01*
X4384610Y11132011D01*
X4384148Y11130902D01*
X4383685Y11129700D01*
X4383223Y11128313D01*
X4382853Y11126834D01*
X4382576Y11125170D01*
X4382299Y11123413D01*
X4382206Y11121564D01*
X4382114Y11119530D01*
Y11119437D01*
Y11119067D01*
Y11118420D01*
X4382206Y11117681D01*
X4382299Y11116756D01*
X4382391Y11115647D01*
X4382483Y11114445D01*
X4382761Y11113150D01*
X4383316Y11110469D01*
X4384148Y11107603D01*
X4384702Y11106308D01*
X4385442Y11104922D01*
X4386182Y11103720D01*
X4387014Y11102610D01*
X4387106Y11102518D01*
X4387199Y11102333D01*
X4387476Y11102056D01*
X4387938Y11101778D01*
X4388401Y11101316D01*
X4388955Y11100854D01*
X4389603Y11100391D01*
X4390435Y11099837D01*
X4392191Y11098820D01*
X4394318Y11097895D01*
X4395520Y11097618D01*
X4396722Y11097340D01*
X4398016Y11097155D01*
X4399403Y11097063D01*
X4399865D01*
X4400420Y11097155D01*
X4401067D01*
X4401899Y11097248D01*
X4402824Y11097433D01*
X4404673Y11097895D01*
X4404488Y11097987D01*
X4404026Y11098357D01*
X4403194Y11098820D01*
X4402177Y11099374D01*
X4400975Y11100021D01*
X4399680Y11100669D01*
X4398201Y11101408D01*
X4396722Y11101963D01*
X4400327Y11109452D01*
X4400420D01*
X4400605Y11109360D01*
X4400975Y11109267D01*
X4401437Y11109082D01*
X4401992Y11108805D01*
X4402639Y11108527D01*
X4404211Y11107788D01*
X4406060Y11106863D01*
X4408094Y11105754D01*
X4410313Y11104367D01*
X4412439Y11102795D01*
X4412532Y11102888D01*
X4412809Y11103350D01*
X4413271Y11103997D01*
X4413826Y11104829D01*
X4414473Y11105846D01*
X4415120Y11107048D01*
X4415675Y11108435D01*
X4416230Y11109914D01*
Y11110007D01*
X4416322Y11110099D01*
X4416415Y11110654D01*
X4416600Y11111486D01*
X4416877Y11112688D01*
X4417154Y11114075D01*
X4417339Y11115739D01*
X4417432Y11117588D01*
X4417524Y11119530D01*
Y11119622D01*
Y11119992D01*
Y11120639D01*
X4417432Y11121379D01*
X4417339Y11122303D01*
X4417247Y11123320D01*
X4417154Y11124522D01*
X4416877Y11125817D01*
X4416322Y11128498D01*
X4415490Y11131272D01*
X4414936Y11132566D01*
X4414288Y11133860D01*
X4413456Y11135062D01*
X4412624Y11136172D01*
X4412532Y11136264D01*
X4412439Y11136449D01*
X4412162Y11136727D01*
X4411700Y11137004D01*
X4411237Y11137466D01*
X4410683Y11137928D01*
X4409943Y11138391D01*
X4409203Y11138945D01*
X4408279Y11139500D01*
X4407354Y11139962D01*
X4405135Y11140887D01*
X4403933Y11141164D01*
X4402639Y11141442D01*
X4401252Y11141627D01*
X4399773Y11141719D01*
D02*
G37*
G36*
X11753073Y7065019D02*
X11752333D01*
X11751778Y7064927D01*
X11751131Y7064834D01*
X11750299Y7064742D01*
X11748542Y7064372D01*
X11746508Y7063632D01*
X11745491Y7063262D01*
X11744382Y7062708D01*
X11743272Y7062061D01*
X11742255Y7061321D01*
X11741238Y7060489D01*
X11740314Y7059472D01*
X11740221Y7059379D01*
X11740129Y7059194D01*
X11739852Y7058917D01*
X11739574Y7058455D01*
X11739204Y7057808D01*
X11738742Y7057160D01*
X11738280Y7056328D01*
X11737910Y7055311D01*
X11737448Y7054202D01*
X11736985Y7053000D01*
X11736523Y7051613D01*
X11736153Y7050134D01*
X11735876Y7048470D01*
X11735599Y7046713D01*
X11735506Y7044864D01*
X11735414Y7042830D01*
Y7042737D01*
Y7042367D01*
Y7041720D01*
X11735506Y7040981D01*
X11735599Y7040056D01*
X11735691Y7038947D01*
X11735783Y7037745D01*
X11736061Y7036450D01*
X11736616Y7033769D01*
X11737448Y7030903D01*
X11738002Y7029608D01*
X11738742Y7028222D01*
X11739482Y7027020D01*
X11740314Y7025910D01*
X11740406Y7025818D01*
X11740499Y7025633D01*
X11740776Y7025356D01*
X11741238Y7025078D01*
X11741701Y7024616D01*
X11742255Y7024154D01*
X11742903Y7023691D01*
X11743735Y7023137D01*
X11745491Y7022120D01*
X11747618Y7021195D01*
X11748820Y7020918D01*
X11750022Y7020640D01*
X11751316Y7020455D01*
X11752703Y7020363D01*
X11753165D01*
X11753720Y7020455D01*
X11754367D01*
X11755199Y7020548D01*
X11756124Y7020733D01*
X11757973Y7021195D01*
X11757788Y7021287D01*
X11757326Y7021657D01*
X11756494Y7022120D01*
X11755477Y7022674D01*
X11754275Y7023321D01*
X11752980Y7023969D01*
X11751501Y7024708D01*
X11750022Y7025263D01*
X11753627Y7032752D01*
X11753720D01*
X11753905Y7032660D01*
X11754275Y7032567D01*
X11754737Y7032382D01*
X11755292Y7032105D01*
X11755939Y7031827D01*
X11757511Y7031088D01*
X11759360Y7030163D01*
X11761394Y7029054D01*
X11763613Y7027667D01*
X11765739Y7026095D01*
X11765832Y7026188D01*
X11766109Y7026650D01*
X11766571Y7027297D01*
X11767126Y7028129D01*
X11767773Y7029146D01*
X11768420Y7030348D01*
X11768975Y7031735D01*
X11769530Y7033214D01*
Y7033307D01*
X11769622Y7033399D01*
X11769715Y7033954D01*
X11769900Y7034786D01*
X11770177Y7035988D01*
X11770454Y7037375D01*
X11770639Y7039039D01*
X11770732Y7040888D01*
X11770824Y7042830D01*
Y7042922D01*
Y7043292D01*
Y7043939D01*
X11770732Y7044679D01*
X11770639Y7045603D01*
X11770547Y7046620D01*
X11770454Y7047822D01*
X11770177Y7049117D01*
X11769622Y7051798D01*
X11768790Y7054572D01*
X11768236Y7055866D01*
X11767588Y7057160D01*
X11766756Y7058362D01*
X11765924Y7059472D01*
X11765832Y7059564D01*
X11765739Y7059749D01*
X11765462Y7060027D01*
X11765000Y7060304D01*
X11764537Y7060766D01*
X11763983Y7061228D01*
X11763243Y7061691D01*
X11762503Y7062245D01*
X11761579Y7062800D01*
X11760654Y7063262D01*
X11758435Y7064187D01*
X11757233Y7064464D01*
X11755939Y7064742D01*
X11754552Y7064927D01*
X11753073Y7065019D01*
D02*
G37*
G36*
X4399773D02*
X4399033D01*
X4398478Y7064927D01*
X4397831Y7064834D01*
X4396999Y7064742D01*
X4395242Y7064372D01*
X4393208Y7063632D01*
X4392191Y7063262D01*
X4391082Y7062708D01*
X4389972Y7062061D01*
X4388955Y7061321D01*
X4387938Y7060489D01*
X4387014Y7059472D01*
X4386921Y7059379D01*
X4386829Y7059194D01*
X4386552Y7058917D01*
X4386274Y7058455D01*
X4385904Y7057808D01*
X4385442Y7057160D01*
X4384980Y7056328D01*
X4384610Y7055311D01*
X4384148Y7054202D01*
X4383685Y7053000D01*
X4383223Y7051613D01*
X4382853Y7050134D01*
X4382576Y7048470D01*
X4382299Y7046713D01*
X4382206Y7044864D01*
X4382114Y7042830D01*
Y7042737D01*
Y7042367D01*
Y7041720D01*
X4382206Y7040981D01*
X4382299Y7040056D01*
X4382391Y7038947D01*
X4382483Y7037745D01*
X4382761Y7036450D01*
X4383316Y7033769D01*
X4384148Y7030903D01*
X4384702Y7029608D01*
X4385442Y7028222D01*
X4386182Y7027020D01*
X4387014Y7025910D01*
X4387106Y7025818D01*
X4387199Y7025633D01*
X4387476Y7025356D01*
X4387938Y7025078D01*
X4388401Y7024616D01*
X4388955Y7024154D01*
X4389603Y7023691D01*
X4390435Y7023137D01*
X4392191Y7022120D01*
X4394318Y7021195D01*
X4395520Y7020918D01*
X4396722Y7020640D01*
X4398016Y7020455D01*
X4399403Y7020363D01*
X4399865D01*
X4400420Y7020455D01*
X4401067D01*
X4401899Y7020548D01*
X4402824Y7020733D01*
X4404673Y7021195D01*
X4404488Y7021287D01*
X4404026Y7021657D01*
X4403194Y7022120D01*
X4402177Y7022674D01*
X4400975Y7023321D01*
X4399680Y7023969D01*
X4398201Y7024708D01*
X4396722Y7025263D01*
X4400327Y7032752D01*
X4400420D01*
X4400605Y7032660D01*
X4400975Y7032567D01*
X4401437Y7032382D01*
X4401992Y7032105D01*
X4402639Y7031827D01*
X4404211Y7031088D01*
X4406060Y7030163D01*
X4408094Y7029054D01*
X4410313Y7027667D01*
X4412439Y7026095D01*
X4412532Y7026188D01*
X4412809Y7026650D01*
X4413271Y7027297D01*
X4413826Y7028129D01*
X4414473Y7029146D01*
X4415120Y7030348D01*
X4415675Y7031735D01*
X4416230Y7033214D01*
Y7033307D01*
X4416322Y7033399D01*
X4416415Y7033954D01*
X4416600Y7034786D01*
X4416877Y7035988D01*
X4417154Y7037375D01*
X4417339Y7039039D01*
X4417432Y7040888D01*
X4417524Y7042830D01*
Y7042922D01*
Y7043292D01*
Y7043939D01*
X4417432Y7044679D01*
X4417339Y7045603D01*
X4417247Y7046620D01*
X4417154Y7047822D01*
X4416877Y7049117D01*
X4416322Y7051798D01*
X4415490Y7054572D01*
X4414936Y7055866D01*
X4414288Y7057160D01*
X4413456Y7058362D01*
X4412624Y7059472D01*
X4412532Y7059564D01*
X4412439Y7059749D01*
X4412162Y7060027D01*
X4411700Y7060304D01*
X4411237Y7060766D01*
X4410683Y7061228D01*
X4409943Y7061691D01*
X4409203Y7062245D01*
X4408279Y7062800D01*
X4407354Y7063262D01*
X4405135Y7064187D01*
X4403933Y7064464D01*
X4402639Y7064742D01*
X4401252Y7064927D01*
X4399773Y7065019D01*
D02*
G37*
%LPD*%
D36*
X3787300Y6124100D02*
Y7922100D01*
Y6124100D02*
X4950300D01*
Y7922100D01*
X3787300D02*
X4950300D01*
X11140600Y6124100D02*
Y7922100D01*
Y6124100D02*
X12303600D01*
Y7922100D01*
X11140600D02*
X12303600D01*
X3787300Y10200800D02*
Y11998800D01*
Y10200800D02*
X4950300D01*
Y11998800D01*
X3787300D02*
X4950300D01*
X11140600Y10200800D02*
Y11998800D01*
Y10200800D02*
X12303600D01*
Y11998800D01*
X11140600D02*
X12303600D01*
%TF.MD5,5a2a37b9716bfda26aace8dae984cc95*%
M02*
