%TF.GenerationSoftware,Altium Limited,Altium Designer,23.1.1 (15)*%
G04 Layer_Color=16711935*
%FSLAX45Y45*%
%MOMM*%
%TF.SameCoordinates,4CCFFED5-D059-4900-A68D-9618ACEA1AB5*%
%TF.FilePolarity,Negative*%
%TF.FileFunction,Soldermask,Bot*%
%TF.Part,CustomerPanel*%
G01*
G75*
%TA.AperFunction,ComponentPad*%
%ADD53O,4.20319X1.90320*%
%ADD54O,2.00320X4.70319*%
%ADD55O,1.90320X4.20319*%
%ADD56O,2.00320X2.70320*%
G04:AMPARAMS|DCode=57|XSize=2.0032mm|YSize=2.7032mm|CornerRadius=0mm|HoleSize=0mm|Usage=FLASHONLY|Rotation=180.000|XOffset=0mm|YOffset=0mm|HoleType=Round|Shape=Octagon|*
%AMOCTAGOND57*
4,1,8,0.50080,-1.35160,-0.50080,-1.35160,-1.00160,-0.85080,-1.00160,0.85080,-0.50080,1.35160,0.50080,1.35160,1.00160,0.85080,1.00160,-0.85080,0.50080,-1.35160,0.0*
%
%ADD57OCTAGOND57*%

G04:AMPARAMS|DCode=58|XSize=2.2352mm|YSize=1.7272mm|CornerRadius=0mm|HoleSize=0mm|Usage=FLASHONLY|Rotation=90.000|XOffset=0mm|YOffset=0mm|HoleType=Round|Shape=Octagon|*
%AMOCTAGOND58*
4,1,8,0.43180,1.11760,-0.43180,1.11760,-0.86360,0.68580,-0.86360,-0.68580,-0.43180,-1.11760,0.43180,-1.11760,0.86360,-0.68580,0.86360,0.68580,0.43180,1.11760,0.0*
%
%ADD58OCTAGOND58*%

G04:AMPARAMS|DCode=59|XSize=2.2352mm|YSize=1.7272mm|CornerRadius=0mm|HoleSize=0mm|Usage=FLASHONLY|Rotation=180.000|XOffset=0mm|YOffset=0mm|HoleType=Round|Shape=Octagon|*
%AMOCTAGOND59*
4,1,8,-1.11760,0.43180,-1.11760,-0.43180,-0.68580,-0.86360,0.68580,-0.86360,1.11760,-0.43180,1.11760,0.43180,0.68580,0.86360,-0.68580,0.86360,-1.11760,0.43180,0.0*
%
%ADD59OCTAGOND59*%

%ADD60R,5.20320X3.20320*%
%ADD61O,5.20320X3.20320*%
%TA.AperFunction,ViaPad*%
%ADD62C,1.47320*%
D53*
X9174599Y7822897D02*
D03*
Y5193997D02*
D03*
Y6514797D02*
D03*
X3665101Y4267103D02*
D03*
X16527899Y7822897D02*
D03*
Y5193997D02*
D03*
Y6514797D02*
D03*
X11018401Y4267103D02*
D03*
X9174599Y11899597D02*
D03*
Y9270697D02*
D03*
Y10591497D02*
D03*
X3665101Y8343803D02*
D03*
X16527899Y11899597D02*
D03*
Y9270697D02*
D03*
Y10591497D02*
D03*
X11018401Y8343803D02*
D03*
D54*
X8899601Y7352897D02*
D03*
Y4723997D02*
D03*
Y6044797D02*
D03*
X3940099Y4737103D02*
D03*
X16252901Y7352897D02*
D03*
Y4723997D02*
D03*
Y6044797D02*
D03*
X11293399Y4737103D02*
D03*
X8899601Y11429597D02*
D03*
Y8800697D02*
D03*
Y10121497D02*
D03*
X3940099Y8813803D02*
D03*
X16252901Y11429597D02*
D03*
Y8800697D02*
D03*
Y10121497D02*
D03*
X11293399Y8813803D02*
D03*
D55*
X9499600Y7352900D02*
D03*
Y4724000D02*
D03*
Y6044800D02*
D03*
X3340100Y4737100D02*
D03*
X16852901Y7352900D02*
D03*
Y4724000D02*
D03*
Y6044800D02*
D03*
X10693400Y4737100D02*
D03*
X9499600Y11429600D02*
D03*
Y8800700D02*
D03*
Y10121500D02*
D03*
X3340100Y8813800D02*
D03*
X16852901Y11429600D02*
D03*
Y8800700D02*
D03*
Y10121500D02*
D03*
X10693400Y8813800D02*
D03*
D56*
X4521200Y4368800D02*
D03*
X11874500D02*
D03*
X4521200Y8445500D02*
D03*
X11874500D02*
D03*
D57*
X4267200Y4368800D02*
D03*
X11620500D02*
D03*
X4267200Y8445500D02*
D03*
X11620500D02*
D03*
D58*
X3467100Y7835900D02*
D03*
X2959100D02*
D03*
X3213100D02*
D03*
X10820400D02*
D03*
X10312400D02*
D03*
X10566400D02*
D03*
X3467100Y11912600D02*
D03*
X2959100D02*
D03*
X3213100D02*
D03*
X10820400D02*
D03*
X10312400D02*
D03*
X10566400D02*
D03*
D59*
X4191000Y5537200D02*
D03*
Y5283200D02*
D03*
X11544300Y5537200D02*
D03*
Y5283200D02*
D03*
X4191000Y9613900D02*
D03*
Y9359900D02*
D03*
X11544300Y9613900D02*
D03*
Y9359900D02*
D03*
D60*
X3162300Y7264400D02*
D03*
X10515600D02*
D03*
X3162300Y11341100D02*
D03*
X10515600D02*
D03*
D61*
X3162300Y6756400D02*
D03*
X10515600D02*
D03*
X3162300Y10833100D02*
D03*
X10515600D02*
D03*
D62*
X8610600Y7353300D02*
D03*
X9182100Y7366000D02*
D03*
X9194800Y6083300D02*
D03*
Y4724400D02*
D03*
X3556000Y7518400D02*
D03*
X3644900Y4559300D02*
D03*
Y4953000D02*
D03*
X4673600Y7442200D02*
D03*
X4051300Y7454900D02*
D03*
X6045200Y7493000D02*
D03*
X5435600Y7505700D02*
D03*
X7378700Y7556500D02*
D03*
X6870700Y7569200D02*
D03*
X9804400Y4546600D02*
D03*
Y5092700D02*
D03*
Y5638800D02*
D03*
Y6184900D02*
D03*
Y6731000D02*
D03*
Y7277100D02*
D03*
Y7823200D02*
D03*
X8585200Y4584700D02*
D03*
Y4851400D02*
D03*
X5003800Y6718300D02*
D03*
X3683000Y6146800D02*
D03*
X8851900Y6731000D02*
D03*
X6553200Y6299200D02*
D03*
X15963901Y7353300D02*
D03*
X16535400Y7366000D02*
D03*
X16548100Y6083300D02*
D03*
Y4724400D02*
D03*
X10909300Y7518400D02*
D03*
X10998200Y4559300D02*
D03*
Y4953000D02*
D03*
X12026900Y7442200D02*
D03*
X11404600Y7454900D02*
D03*
X13398500Y7493000D02*
D03*
X12788900Y7505700D02*
D03*
X14732001Y7556500D02*
D03*
X14224001Y7569200D02*
D03*
X17157700Y4546600D02*
D03*
Y5092700D02*
D03*
Y5638800D02*
D03*
Y6184900D02*
D03*
Y6731000D02*
D03*
Y7277100D02*
D03*
Y7823200D02*
D03*
X15938499Y4584700D02*
D03*
Y4851400D02*
D03*
X12357100Y6718300D02*
D03*
X11036300Y6146800D02*
D03*
X16205200Y6731000D02*
D03*
X13906500Y6299200D02*
D03*
X8610600Y11430000D02*
D03*
X9182100Y11442700D02*
D03*
X9194800Y10160000D02*
D03*
Y8801100D02*
D03*
X3556000Y11595100D02*
D03*
X3644900Y8636000D02*
D03*
Y9029700D02*
D03*
X4673600Y11518900D02*
D03*
X4051300Y11531600D02*
D03*
X6045200Y11569700D02*
D03*
X5435600Y11582400D02*
D03*
X7378700Y11633200D02*
D03*
X6870700Y11645900D02*
D03*
X9804400Y8623300D02*
D03*
Y9169400D02*
D03*
Y9715500D02*
D03*
Y10261600D02*
D03*
Y10807700D02*
D03*
Y11353800D02*
D03*
Y11899900D02*
D03*
X8585200Y8661400D02*
D03*
Y8928100D02*
D03*
X5003800Y10795000D02*
D03*
X3683000Y10223500D02*
D03*
X8851900Y10807700D02*
D03*
X6553200Y10375900D02*
D03*
X15963901Y11430000D02*
D03*
X16535400Y11442700D02*
D03*
X16548100Y10160000D02*
D03*
Y8801100D02*
D03*
X10909300Y11595100D02*
D03*
X10998200Y8636000D02*
D03*
Y9029700D02*
D03*
X12026900Y11518900D02*
D03*
X11404600Y11531600D02*
D03*
X13398500Y11569700D02*
D03*
X12788900Y11582400D02*
D03*
X14732001Y11633200D02*
D03*
X14224001Y11645900D02*
D03*
X17157700Y8623300D02*
D03*
Y9169400D02*
D03*
Y9715500D02*
D03*
Y10261600D02*
D03*
Y10807700D02*
D03*
Y11353800D02*
D03*
Y11899900D02*
D03*
X15938499Y8661400D02*
D03*
Y8928100D02*
D03*
X12357100Y10795000D02*
D03*
X11036300Y10223500D02*
D03*
X16205200Y10807700D02*
D03*
X13906500Y10375900D02*
D03*
%TF.MD5,4f1c531569c0013489659003ad41c3b7*%
M02*
