%TF.GenerationSoftware,Altium Limited,Altium Designer,23.1.1 (15)*%
G04 Layer_Color=2752767*
%FSLAX45Y45*%
%MOMM*%
%TF.SameCoordinates,4CCFFED5-D059-4900-A68D-9618ACEA1AB5*%
%TF.FilePolarity,Positive*%
%TF.FileFunction,Drawing*%
%TF.Part,CustomerPanel*%
G01*
G75*
%TA.AperFunction,NonConductor*%
%ADD40C,0.12700*%
%ADD77C,0.16933*%
D40*
X9123799Y7772097D02*
Y7873697D01*
X9225399D01*
Y7772097D01*
X9123799D01*
X9448800Y7302100D02*
Y7403700D01*
X9550400D01*
Y7302100D01*
X9448800D01*
X4521200Y4318000D02*
X4470400Y4419600D01*
X4572000D01*
X4521200Y4318000D01*
X4267200D02*
X4216400Y4419600D01*
X4318000D01*
X4267200Y4318000D01*
X9123799Y5143197D02*
Y5244797D01*
X9225399D01*
Y5143197D01*
X9123799D01*
X9448800Y4673200D02*
Y4774800D01*
X9550400D01*
Y4673200D01*
X9448800D01*
X3467100Y7785100D02*
X3492500Y7810500D01*
X3517900D01*
X3492500Y7835900D01*
X3517900Y7861300D01*
X3492500D01*
X3467100Y7886700D01*
X3441700Y7861300D01*
X3416300D01*
X3441700Y7835900D01*
X3416300Y7810500D01*
X3441700D01*
X3467100Y7785100D01*
X2959100D02*
X2984500Y7810500D01*
X3009900D01*
X2984500Y7835900D01*
X3009900Y7861300D01*
X2984500D01*
X2959100Y7886700D01*
X2933700Y7861300D01*
X2908300D01*
X2933700Y7835900D01*
X2908300Y7810500D01*
X2933700D01*
X2959100Y7785100D01*
X3213100D02*
X3238500Y7810500D01*
X3263900D01*
X3238500Y7835900D01*
X3263900Y7861300D01*
X3238500D01*
X3213100Y7886700D01*
X3187700Y7861300D01*
X3162300D01*
X3187700Y7835900D01*
X3162300Y7810500D01*
X3187700D01*
X3213100Y7785100D01*
X9123799Y6463997D02*
Y6565597D01*
X9225399D01*
Y6463997D01*
X9123799D01*
X9448800Y5994000D02*
Y6095600D01*
X9550400D01*
Y5994000D01*
X9448800D01*
X3289300Y4686300D02*
Y4787900D01*
X3390900D01*
Y4686300D01*
X3289300D01*
X3614301Y4216303D02*
Y4317903D01*
X3715901D01*
Y4216303D01*
X3614301D01*
X4191000Y5486400D02*
X4216400Y5511800D01*
X4241800D01*
X4216400Y5537200D01*
X4241800Y5562600D01*
X4216400D01*
X4191000Y5588000D01*
X4165600Y5562600D01*
X4140200D01*
X4165600Y5537200D01*
X4140200Y5511800D01*
X4165600D01*
X4191000Y5486400D01*
Y5232400D02*
X4216400Y5257800D01*
X4241800D01*
X4216400Y5283200D01*
X4241800Y5308600D01*
X4216400D01*
X4191000Y5334000D01*
X4165600Y5308600D01*
X4140200D01*
X4165600Y5283200D01*
X4140200Y5257800D01*
X4165600D01*
X4191000Y5232400D01*
X3111500Y7213600D02*
X3136900Y7264400D01*
X3111500Y7315200D01*
X3162300Y7289800D01*
X3213100Y7315200D01*
X3187700Y7264400D01*
X3213100Y7213600D01*
X3162300Y7239000D01*
X3111500Y7213600D01*
Y6705600D02*
X3136900Y6756400D01*
X3111500Y6807200D01*
X3162300Y6781800D01*
X3213100Y6807200D01*
X3187700Y6756400D01*
X3213100Y6705600D01*
X3162300Y6731000D01*
X3111500Y6705600D01*
X8585200Y7327900D02*
Y7302500D01*
X8636000D01*
Y7327900D01*
X8661400D01*
Y7378700D01*
X8636000D01*
Y7404100D01*
X8585200D01*
Y7378700D01*
X8559800D01*
Y7327900D01*
X8585200D01*
X9156700Y7340600D02*
Y7315200D01*
X9207500D01*
Y7340600D01*
X9232900D01*
Y7391400D01*
X9207500D01*
Y7416800D01*
X9156700D01*
Y7391400D01*
X9131300D01*
Y7340600D01*
X9156700D01*
X9169400Y6057900D02*
Y6032500D01*
X9220200D01*
Y6057900D01*
X9245600D01*
Y6108700D01*
X9220200D01*
Y6134100D01*
X9169400D01*
Y6108700D01*
X9144000D01*
Y6057900D01*
X9169400D01*
Y4699000D02*
Y4673600D01*
X9220200D01*
Y4699000D01*
X9245600D01*
Y4749800D01*
X9220200D01*
Y4775200D01*
X9169400D01*
Y4749800D01*
X9144000D01*
Y4699000D01*
X9169400D01*
X3530600Y7493000D02*
Y7467600D01*
X3581400D01*
Y7493000D01*
X3606800D01*
Y7543800D01*
X3581400D01*
Y7569200D01*
X3530600D01*
Y7543800D01*
X3505200D01*
Y7493000D01*
X3530600D01*
X3619500Y4533900D02*
Y4508500D01*
X3670300D01*
Y4533900D01*
X3695700D01*
Y4584700D01*
X3670300D01*
Y4610100D01*
X3619500D01*
Y4584700D01*
X3594100D01*
Y4533900D01*
X3619500D01*
Y4927600D02*
Y4902200D01*
X3670300D01*
Y4927600D01*
X3695700D01*
Y4978400D01*
X3670300D01*
Y5003800D01*
X3619500D01*
Y4978400D01*
X3594100D01*
Y4927600D01*
X3619500D01*
X4648200Y7416800D02*
Y7391400D01*
X4699000D01*
Y7416800D01*
X4724400D01*
Y7467600D01*
X4699000D01*
Y7493000D01*
X4648200D01*
Y7467600D01*
X4622800D01*
Y7416800D01*
X4648200D01*
X4025900Y7429500D02*
Y7404100D01*
X4076700D01*
Y7429500D01*
X4102100D01*
Y7480300D01*
X4076700D01*
Y7505700D01*
X4025900D01*
Y7480300D01*
X4000500D01*
Y7429500D01*
X4025900D01*
X6019800Y7467600D02*
Y7442200D01*
X6070600D01*
Y7467600D01*
X6096000D01*
Y7518400D01*
X6070600D01*
Y7543800D01*
X6019800D01*
Y7518400D01*
X5994400D01*
Y7467600D01*
X6019800D01*
X5410200Y7480300D02*
Y7454900D01*
X5461000D01*
Y7480300D01*
X5486400D01*
Y7531100D01*
X5461000D01*
Y7556500D01*
X5410200D01*
Y7531100D01*
X5384800D01*
Y7480300D01*
X5410200D01*
X7353300Y7531100D02*
Y7505700D01*
X7404100D01*
Y7531100D01*
X7429500D01*
Y7581900D01*
X7404100D01*
Y7607300D01*
X7353300D01*
Y7581900D01*
X7327900D01*
Y7531100D01*
X7353300D01*
X6845300Y7543800D02*
Y7518400D01*
X6896100D01*
Y7543800D01*
X6921500D01*
Y7594600D01*
X6896100D01*
Y7620000D01*
X6845300D01*
Y7594600D01*
X6819900D01*
Y7543800D01*
X6845300D01*
X9779000Y4521200D02*
Y4495800D01*
X9829800D01*
Y4521200D01*
X9855200D01*
Y4572000D01*
X9829800D01*
Y4597400D01*
X9779000D01*
Y4572000D01*
X9753600D01*
Y4521200D01*
X9779000D01*
Y5067300D02*
Y5041900D01*
X9829800D01*
Y5067300D01*
X9855200D01*
Y5118100D01*
X9829800D01*
Y5143500D01*
X9779000D01*
Y5118100D01*
X9753600D01*
Y5067300D01*
X9779000D01*
Y5613400D02*
Y5588000D01*
X9829800D01*
Y5613400D01*
X9855200D01*
Y5664200D01*
X9829800D01*
Y5689600D01*
X9779000D01*
Y5664200D01*
X9753600D01*
Y5613400D01*
X9779000D01*
Y6159500D02*
Y6134100D01*
X9829800D01*
Y6159500D01*
X9855200D01*
Y6210300D01*
X9829800D01*
Y6235700D01*
X9779000D01*
Y6210300D01*
X9753600D01*
Y6159500D01*
X9779000D01*
Y6705600D02*
Y6680200D01*
X9829800D01*
Y6705600D01*
X9855200D01*
Y6756400D01*
X9829800D01*
Y6781800D01*
X9779000D01*
Y6756400D01*
X9753600D01*
Y6705600D01*
X9779000D01*
Y7251700D02*
Y7226300D01*
X9829800D01*
Y7251700D01*
X9855200D01*
Y7302500D01*
X9829800D01*
Y7327900D01*
X9779000D01*
Y7302500D01*
X9753600D01*
Y7251700D01*
X9779000D01*
Y7797800D02*
Y7772400D01*
X9829800D01*
Y7797800D01*
X9855200D01*
Y7848600D01*
X9829800D01*
Y7874000D01*
X9779000D01*
Y7848600D01*
X9753600D01*
Y7797800D01*
X9779000D01*
X8559800Y4559300D02*
Y4533900D01*
X8610600D01*
Y4559300D01*
X8636000D01*
Y4610100D01*
X8610600D01*
Y4635500D01*
X8559800D01*
Y4610100D01*
X8534400D01*
Y4559300D01*
X8559800D01*
Y4826000D02*
Y4800600D01*
X8610600D01*
Y4826000D01*
X8636000D01*
Y4876800D01*
X8610600D01*
Y4902200D01*
X8559800D01*
Y4876800D01*
X8534400D01*
Y4826000D01*
X8559800D01*
X4978400Y6692900D02*
Y6667500D01*
X5029200D01*
Y6692900D01*
X5054600D01*
Y6743700D01*
X5029200D01*
Y6769100D01*
X4978400D01*
Y6743700D01*
X4953000D01*
Y6692900D01*
X4978400D01*
X3657600Y6121400D02*
Y6096000D01*
X3708400D01*
Y6121400D01*
X3733800D01*
Y6172200D01*
X3708400D01*
Y6197600D01*
X3657600D01*
Y6172200D01*
X3632200D01*
Y6121400D01*
X3657600D01*
X8826500Y6705600D02*
Y6680200D01*
X8877300D01*
Y6705600D01*
X8902700D01*
Y6756400D01*
X8877300D01*
Y6781800D01*
X8826500D01*
Y6756400D01*
X8801100D01*
Y6705600D01*
X8826500D01*
X6527800Y6273800D02*
Y6248400D01*
X6578600D01*
Y6273800D01*
X6604000D01*
Y6324600D01*
X6578600D01*
Y6350000D01*
X6527800D01*
Y6324600D01*
X6502400D01*
Y6273800D01*
X6527800D01*
X16477100Y7772097D02*
Y7873697D01*
X16578699D01*
Y7772097D01*
X16477100D01*
X16802100Y7302100D02*
Y7403700D01*
X16903700D01*
Y7302100D01*
X16802100D01*
X11874500Y4318000D02*
X11823700Y4419600D01*
X11925300D01*
X11874500Y4318000D01*
X11620500D02*
X11569700Y4419600D01*
X11671300D01*
X11620500Y4318000D01*
X16477100Y5143197D02*
Y5244797D01*
X16578699D01*
Y5143197D01*
X16477100D01*
X16802100Y4673200D02*
Y4774800D01*
X16903700D01*
Y4673200D01*
X16802100D01*
X10820400Y7785100D02*
X10845800Y7810500D01*
X10871200D01*
X10845800Y7835900D01*
X10871200Y7861300D01*
X10845800D01*
X10820400Y7886700D01*
X10795000Y7861300D01*
X10769600D01*
X10795000Y7835900D01*
X10769600Y7810500D01*
X10795000D01*
X10820400Y7785100D01*
X10312400D02*
X10337800Y7810500D01*
X10363200D01*
X10337800Y7835900D01*
X10363200Y7861300D01*
X10337800D01*
X10312400Y7886700D01*
X10287000Y7861300D01*
X10261600D01*
X10287000Y7835900D01*
X10261600Y7810500D01*
X10287000D01*
X10312400Y7785100D01*
X10566400D02*
X10591800Y7810500D01*
X10617200D01*
X10591800Y7835900D01*
X10617200Y7861300D01*
X10591800D01*
X10566400Y7886700D01*
X10541000Y7861300D01*
X10515600D01*
X10541000Y7835900D01*
X10515600Y7810500D01*
X10541000D01*
X10566400Y7785100D01*
X16477100Y6463997D02*
Y6565597D01*
X16578699D01*
Y6463997D01*
X16477100D01*
X16802100Y5994000D02*
Y6095600D01*
X16903700D01*
Y5994000D01*
X16802100D01*
X10642600Y4686300D02*
Y4787900D01*
X10744200D01*
Y4686300D01*
X10642600D01*
X10967601Y4216303D02*
Y4317903D01*
X11069201D01*
Y4216303D01*
X10967601D01*
X11544300Y5486400D02*
X11569700Y5511800D01*
X11595100D01*
X11569700Y5537200D01*
X11595100Y5562600D01*
X11569700D01*
X11544300Y5588000D01*
X11518900Y5562600D01*
X11493500D01*
X11518900Y5537200D01*
X11493500Y5511800D01*
X11518900D01*
X11544300Y5486400D01*
Y5232400D02*
X11569700Y5257800D01*
X11595100D01*
X11569700Y5283200D01*
X11595100Y5308600D01*
X11569700D01*
X11544300Y5334000D01*
X11518900Y5308600D01*
X11493500D01*
X11518900Y5283200D01*
X11493500Y5257800D01*
X11518900D01*
X11544300Y5232400D01*
X10464800Y7213600D02*
X10490200Y7264400D01*
X10464800Y7315200D01*
X10515600Y7289800D01*
X10566400Y7315200D01*
X10541000Y7264400D01*
X10566400Y7213600D01*
X10515600Y7239000D01*
X10464800Y7213600D01*
Y6705600D02*
X10490200Y6756400D01*
X10464800Y6807200D01*
X10515600Y6781800D01*
X10566400Y6807200D01*
X10541000Y6756400D01*
X10566400Y6705600D01*
X10515600Y6731000D01*
X10464800Y6705600D01*
X15938499Y7327900D02*
Y7302500D01*
X15989301D01*
Y7327900D01*
X16014700D01*
Y7378700D01*
X15989301D01*
Y7404100D01*
X15938499D01*
Y7378700D01*
X15913100D01*
Y7327900D01*
X15938499D01*
X16510001Y7340600D02*
Y7315200D01*
X16560800D01*
Y7340600D01*
X16586200D01*
Y7391400D01*
X16560800D01*
Y7416800D01*
X16510001D01*
Y7391400D01*
X16484599D01*
Y7340600D01*
X16510001D01*
X16522701Y6057900D02*
Y6032500D01*
X16573500D01*
Y6057900D01*
X16598900D01*
Y6108700D01*
X16573500D01*
Y6134100D01*
X16522701D01*
Y6108700D01*
X16497301D01*
Y6057900D01*
X16522701D01*
Y4699000D02*
Y4673600D01*
X16573500D01*
Y4699000D01*
X16598900D01*
Y4749800D01*
X16573500D01*
Y4775200D01*
X16522701D01*
Y4749800D01*
X16497301D01*
Y4699000D01*
X16522701D01*
X10883900Y7493000D02*
Y7467600D01*
X10934700D01*
Y7493000D01*
X10960100D01*
Y7543800D01*
X10934700D01*
Y7569200D01*
X10883900D01*
Y7543800D01*
X10858500D01*
Y7493000D01*
X10883900D01*
X10972800Y4533900D02*
Y4508500D01*
X11023600D01*
Y4533900D01*
X11049000D01*
Y4584700D01*
X11023600D01*
Y4610100D01*
X10972800D01*
Y4584700D01*
X10947400D01*
Y4533900D01*
X10972800D01*
Y4927600D02*
Y4902200D01*
X11023600D01*
Y4927600D01*
X11049000D01*
Y4978400D01*
X11023600D01*
Y5003800D01*
X10972800D01*
Y4978400D01*
X10947400D01*
Y4927600D01*
X10972800D01*
X12001500Y7416800D02*
Y7391400D01*
X12052300D01*
Y7416800D01*
X12077700D01*
Y7467600D01*
X12052300D01*
Y7493000D01*
X12001500D01*
Y7467600D01*
X11976100D01*
Y7416800D01*
X12001500D01*
X11379200Y7429500D02*
Y7404100D01*
X11430000D01*
Y7429500D01*
X11455400D01*
Y7480300D01*
X11430000D01*
Y7505700D01*
X11379200D01*
Y7480300D01*
X11353800D01*
Y7429500D01*
X11379200D01*
X13373100Y7467600D02*
Y7442200D01*
X13423900D01*
Y7467600D01*
X13449300D01*
Y7518400D01*
X13423900D01*
Y7543800D01*
X13373100D01*
Y7518400D01*
X13347701D01*
Y7467600D01*
X13373100D01*
X12763500Y7480300D02*
Y7454900D01*
X12814301D01*
Y7480300D01*
X12839700D01*
Y7531100D01*
X12814301D01*
Y7556500D01*
X12763500D01*
Y7531100D01*
X12738100D01*
Y7480300D01*
X12763500D01*
X14706599Y7531100D02*
Y7505700D01*
X14757401D01*
Y7531100D01*
X14782800D01*
Y7581900D01*
X14757401D01*
Y7607300D01*
X14706599D01*
Y7581900D01*
X14681200D01*
Y7531100D01*
X14706599D01*
X14198599Y7543800D02*
Y7518400D01*
X14249400D01*
Y7543800D01*
X14274800D01*
Y7594600D01*
X14249400D01*
Y7620000D01*
X14198599D01*
Y7594600D01*
X14173199D01*
Y7543800D01*
X14198599D01*
X17132300Y4521200D02*
Y4495800D01*
X17183099D01*
Y4521200D01*
X17208501D01*
Y4572000D01*
X17183099D01*
Y4597400D01*
X17132300D01*
Y4572000D01*
X17106900D01*
Y4521200D01*
X17132300D01*
Y5067300D02*
Y5041900D01*
X17183099D01*
Y5067300D01*
X17208501D01*
Y5118100D01*
X17183099D01*
Y5143500D01*
X17132300D01*
Y5118100D01*
X17106900D01*
Y5067300D01*
X17132300D01*
Y5613400D02*
Y5588000D01*
X17183099D01*
Y5613400D01*
X17208501D01*
Y5664200D01*
X17183099D01*
Y5689600D01*
X17132300D01*
Y5664200D01*
X17106900D01*
Y5613400D01*
X17132300D01*
Y6159500D02*
Y6134100D01*
X17183099D01*
Y6159500D01*
X17208501D01*
Y6210300D01*
X17183099D01*
Y6235700D01*
X17132300D01*
Y6210300D01*
X17106900D01*
Y6159500D01*
X17132300D01*
Y6705600D02*
Y6680200D01*
X17183099D01*
Y6705600D01*
X17208501D01*
Y6756400D01*
X17183099D01*
Y6781800D01*
X17132300D01*
Y6756400D01*
X17106900D01*
Y6705600D01*
X17132300D01*
Y7251700D02*
Y7226300D01*
X17183099D01*
Y7251700D01*
X17208501D01*
Y7302500D01*
X17183099D01*
Y7327900D01*
X17132300D01*
Y7302500D01*
X17106900D01*
Y7251700D01*
X17132300D01*
Y7797800D02*
Y7772400D01*
X17183099D01*
Y7797800D01*
X17208501D01*
Y7848600D01*
X17183099D01*
Y7874000D01*
X17132300D01*
Y7848600D01*
X17106900D01*
Y7797800D01*
X17132300D01*
X15913100Y4559300D02*
Y4533900D01*
X15963901D01*
Y4559300D01*
X15989301D01*
Y4610100D01*
X15963901D01*
Y4635500D01*
X15913100D01*
Y4610100D01*
X15887700D01*
Y4559300D01*
X15913100D01*
Y4826000D02*
Y4800600D01*
X15963901D01*
Y4826000D01*
X15989301D01*
Y4876800D01*
X15963901D01*
Y4902200D01*
X15913100D01*
Y4876800D01*
X15887700D01*
Y4826000D01*
X15913100D01*
X12331700Y6692900D02*
Y6667500D01*
X12382500D01*
Y6692900D01*
X12407900D01*
Y6743700D01*
X12382500D01*
Y6769100D01*
X12331700D01*
Y6743700D01*
X12306300D01*
Y6692900D01*
X12331700D01*
X11010900Y6121400D02*
Y6096000D01*
X11061700D01*
Y6121400D01*
X11087100D01*
Y6172200D01*
X11061700D01*
Y6197600D01*
X11010900D01*
Y6172200D01*
X10985500D01*
Y6121400D01*
X11010900D01*
X16179800Y6705600D02*
Y6680200D01*
X16230600D01*
Y6705600D01*
X16256000D01*
Y6756400D01*
X16230600D01*
Y6781800D01*
X16179800D01*
Y6756400D01*
X16154401D01*
Y6705600D01*
X16179800D01*
X13881100Y6273800D02*
Y6248400D01*
X13931900D01*
Y6273800D01*
X13957300D01*
Y6324600D01*
X13931900D01*
Y6350000D01*
X13881100D01*
Y6324600D01*
X13855701D01*
Y6273800D01*
X13881100D01*
X9123799Y11848797D02*
Y11950397D01*
X9225399D01*
Y11848797D01*
X9123799D01*
X9448800Y11378800D02*
Y11480400D01*
X9550400D01*
Y11378800D01*
X9448800D01*
X4521200Y8394700D02*
X4470400Y8496300D01*
X4572000D01*
X4521200Y8394700D01*
X4267200D02*
X4216400Y8496300D01*
X4318000D01*
X4267200Y8394700D01*
X9123799Y9219897D02*
Y9321497D01*
X9225399D01*
Y9219897D01*
X9123799D01*
X9448800Y8749900D02*
Y8851500D01*
X9550400D01*
Y8749900D01*
X9448800D01*
X3467100Y11861800D02*
X3492500Y11887200D01*
X3517900D01*
X3492500Y11912600D01*
X3517900Y11938000D01*
X3492500D01*
X3467100Y11963400D01*
X3441700Y11938000D01*
X3416300D01*
X3441700Y11912600D01*
X3416300Y11887200D01*
X3441700D01*
X3467100Y11861800D01*
X2959100D02*
X2984500Y11887200D01*
X3009900D01*
X2984500Y11912600D01*
X3009900Y11938000D01*
X2984500D01*
X2959100Y11963400D01*
X2933700Y11938000D01*
X2908300D01*
X2933700Y11912600D01*
X2908300Y11887200D01*
X2933700D01*
X2959100Y11861800D01*
X3213100D02*
X3238500Y11887200D01*
X3263900D01*
X3238500Y11912600D01*
X3263900Y11938000D01*
X3238500D01*
X3213100Y11963400D01*
X3187700Y11938000D01*
X3162300D01*
X3187700Y11912600D01*
X3162300Y11887200D01*
X3187700D01*
X3213100Y11861800D01*
X9123799Y10540697D02*
Y10642297D01*
X9225399D01*
Y10540697D01*
X9123799D01*
X9448800Y10070700D02*
Y10172300D01*
X9550400D01*
Y10070700D01*
X9448800D01*
X3289300Y8763000D02*
Y8864600D01*
X3390900D01*
Y8763000D01*
X3289300D01*
X3614301Y8293003D02*
Y8394603D01*
X3715901D01*
Y8293003D01*
X3614301D01*
X4191000Y9563100D02*
X4216400Y9588500D01*
X4241800D01*
X4216400Y9613900D01*
X4241800Y9639300D01*
X4216400D01*
X4191000Y9664700D01*
X4165600Y9639300D01*
X4140200D01*
X4165600Y9613900D01*
X4140200Y9588500D01*
X4165600D01*
X4191000Y9563100D01*
Y9309100D02*
X4216400Y9334500D01*
X4241800D01*
X4216400Y9359900D01*
X4241800Y9385300D01*
X4216400D01*
X4191000Y9410700D01*
X4165600Y9385300D01*
X4140200D01*
X4165600Y9359900D01*
X4140200Y9334500D01*
X4165600D01*
X4191000Y9309100D01*
X3111500Y11290300D02*
X3136900Y11341100D01*
X3111500Y11391900D01*
X3162300Y11366500D01*
X3213100Y11391900D01*
X3187700Y11341100D01*
X3213100Y11290300D01*
X3162300Y11315700D01*
X3111500Y11290300D01*
Y10782300D02*
X3136900Y10833100D01*
X3111500Y10883900D01*
X3162300Y10858500D01*
X3213100Y10883900D01*
X3187700Y10833100D01*
X3213100Y10782300D01*
X3162300Y10807700D01*
X3111500Y10782300D01*
X8585200Y11404600D02*
Y11379200D01*
X8636000D01*
Y11404600D01*
X8661400D01*
Y11455400D01*
X8636000D01*
Y11480800D01*
X8585200D01*
Y11455400D01*
X8559800D01*
Y11404600D01*
X8585200D01*
X9156700Y11417300D02*
Y11391900D01*
X9207500D01*
Y11417300D01*
X9232900D01*
Y11468100D01*
X9207500D01*
Y11493500D01*
X9156700D01*
Y11468100D01*
X9131300D01*
Y11417300D01*
X9156700D01*
X9169400Y10134600D02*
Y10109200D01*
X9220200D01*
Y10134600D01*
X9245600D01*
Y10185400D01*
X9220200D01*
Y10210800D01*
X9169400D01*
Y10185400D01*
X9144000D01*
Y10134600D01*
X9169400D01*
Y8775700D02*
Y8750300D01*
X9220200D01*
Y8775700D01*
X9245600D01*
Y8826500D01*
X9220200D01*
Y8851900D01*
X9169400D01*
Y8826500D01*
X9144000D01*
Y8775700D01*
X9169400D01*
X3530600Y11569700D02*
Y11544300D01*
X3581400D01*
Y11569700D01*
X3606800D01*
Y11620500D01*
X3581400D01*
Y11645900D01*
X3530600D01*
Y11620500D01*
X3505200D01*
Y11569700D01*
X3530600D01*
X3619500Y8610600D02*
Y8585200D01*
X3670300D01*
Y8610600D01*
X3695700D01*
Y8661400D01*
X3670300D01*
Y8686800D01*
X3619500D01*
Y8661400D01*
X3594100D01*
Y8610600D01*
X3619500D01*
Y9004300D02*
Y8978900D01*
X3670300D01*
Y9004300D01*
X3695700D01*
Y9055100D01*
X3670300D01*
Y9080500D01*
X3619500D01*
Y9055100D01*
X3594100D01*
Y9004300D01*
X3619500D01*
X4648200Y11493500D02*
Y11468100D01*
X4699000D01*
Y11493500D01*
X4724400D01*
Y11544300D01*
X4699000D01*
Y11569700D01*
X4648200D01*
Y11544300D01*
X4622800D01*
Y11493500D01*
X4648200D01*
X4025900Y11506200D02*
Y11480800D01*
X4076700D01*
Y11506200D01*
X4102100D01*
Y11557000D01*
X4076700D01*
Y11582400D01*
X4025900D01*
Y11557000D01*
X4000500D01*
Y11506200D01*
X4025900D01*
X6019800Y11544300D02*
Y11518900D01*
X6070600D01*
Y11544300D01*
X6096000D01*
Y11595100D01*
X6070600D01*
Y11620500D01*
X6019800D01*
Y11595100D01*
X5994400D01*
Y11544300D01*
X6019800D01*
X5410200Y11557000D02*
Y11531600D01*
X5461000D01*
Y11557000D01*
X5486400D01*
Y11607800D01*
X5461000D01*
Y11633200D01*
X5410200D01*
Y11607800D01*
X5384800D01*
Y11557000D01*
X5410200D01*
X7353300Y11607800D02*
Y11582400D01*
X7404100D01*
Y11607800D01*
X7429500D01*
Y11658600D01*
X7404100D01*
Y11684000D01*
X7353300D01*
Y11658600D01*
X7327900D01*
Y11607800D01*
X7353300D01*
X6845300Y11620500D02*
Y11595100D01*
X6896100D01*
Y11620500D01*
X6921500D01*
Y11671300D01*
X6896100D01*
Y11696700D01*
X6845300D01*
Y11671300D01*
X6819900D01*
Y11620500D01*
X6845300D01*
X9779000Y8597900D02*
Y8572500D01*
X9829800D01*
Y8597900D01*
X9855200D01*
Y8648700D01*
X9829800D01*
Y8674100D01*
X9779000D01*
Y8648700D01*
X9753600D01*
Y8597900D01*
X9779000D01*
Y9144000D02*
Y9118600D01*
X9829800D01*
Y9144000D01*
X9855200D01*
Y9194800D01*
X9829800D01*
Y9220200D01*
X9779000D01*
Y9194800D01*
X9753600D01*
Y9144000D01*
X9779000D01*
Y9690100D02*
Y9664700D01*
X9829800D01*
Y9690100D01*
X9855200D01*
Y9740900D01*
X9829800D01*
Y9766300D01*
X9779000D01*
Y9740900D01*
X9753600D01*
Y9690100D01*
X9779000D01*
Y10236200D02*
Y10210800D01*
X9829800D01*
Y10236200D01*
X9855200D01*
Y10287000D01*
X9829800D01*
Y10312400D01*
X9779000D01*
Y10287000D01*
X9753600D01*
Y10236200D01*
X9779000D01*
Y10782300D02*
Y10756900D01*
X9829800D01*
Y10782300D01*
X9855200D01*
Y10833100D01*
X9829800D01*
Y10858500D01*
X9779000D01*
Y10833100D01*
X9753600D01*
Y10782300D01*
X9779000D01*
Y11328400D02*
Y11303000D01*
X9829800D01*
Y11328400D01*
X9855200D01*
Y11379200D01*
X9829800D01*
Y11404600D01*
X9779000D01*
Y11379200D01*
X9753600D01*
Y11328400D01*
X9779000D01*
Y11874500D02*
Y11849100D01*
X9829800D01*
Y11874500D01*
X9855200D01*
Y11925300D01*
X9829800D01*
Y11950700D01*
X9779000D01*
Y11925300D01*
X9753600D01*
Y11874500D01*
X9779000D01*
X8559800Y8636000D02*
Y8610600D01*
X8610600D01*
Y8636000D01*
X8636000D01*
Y8686800D01*
X8610600D01*
Y8712200D01*
X8559800D01*
Y8686800D01*
X8534400D01*
Y8636000D01*
X8559800D01*
Y8902700D02*
Y8877300D01*
X8610600D01*
Y8902700D01*
X8636000D01*
Y8953500D01*
X8610600D01*
Y8978900D01*
X8559800D01*
Y8953500D01*
X8534400D01*
Y8902700D01*
X8559800D01*
X4978400Y10769600D02*
Y10744200D01*
X5029200D01*
Y10769600D01*
X5054600D01*
Y10820400D01*
X5029200D01*
Y10845800D01*
X4978400D01*
Y10820400D01*
X4953000D01*
Y10769600D01*
X4978400D01*
X3657600Y10198100D02*
Y10172700D01*
X3708400D01*
Y10198100D01*
X3733800D01*
Y10248900D01*
X3708400D01*
Y10274300D01*
X3657600D01*
Y10248900D01*
X3632200D01*
Y10198100D01*
X3657600D01*
X8826500Y10782300D02*
Y10756900D01*
X8877300D01*
Y10782300D01*
X8902700D01*
Y10833100D01*
X8877300D01*
Y10858500D01*
X8826500D01*
Y10833100D01*
X8801100D01*
Y10782300D01*
X8826500D01*
X6527800Y10350500D02*
Y10325100D01*
X6578600D01*
Y10350500D01*
X6604000D01*
Y10401300D01*
X6578600D01*
Y10426700D01*
X6527800D01*
Y10401300D01*
X6502400D01*
Y10350500D01*
X6527800D01*
X16477100Y11848797D02*
Y11950397D01*
X16578699D01*
Y11848797D01*
X16477100D01*
X16802100Y11378800D02*
Y11480400D01*
X16903700D01*
Y11378800D01*
X16802100D01*
X11874500Y8394700D02*
X11823700Y8496300D01*
X11925300D01*
X11874500Y8394700D01*
X11620500D02*
X11569700Y8496300D01*
X11671300D01*
X11620500Y8394700D01*
X16477100Y9219897D02*
Y9321497D01*
X16578699D01*
Y9219897D01*
X16477100D01*
X16802100Y8749900D02*
Y8851500D01*
X16903700D01*
Y8749900D01*
X16802100D01*
X10820400Y11861800D02*
X10845800Y11887200D01*
X10871200D01*
X10845800Y11912600D01*
X10871200Y11938000D01*
X10845800D01*
X10820400Y11963400D01*
X10795000Y11938000D01*
X10769600D01*
X10795000Y11912600D01*
X10769600Y11887200D01*
X10795000D01*
X10820400Y11861800D01*
X10312400D02*
X10337800Y11887200D01*
X10363200D01*
X10337800Y11912600D01*
X10363200Y11938000D01*
X10337800D01*
X10312400Y11963400D01*
X10287000Y11938000D01*
X10261600D01*
X10287000Y11912600D01*
X10261600Y11887200D01*
X10287000D01*
X10312400Y11861800D01*
X10566400D02*
X10591800Y11887200D01*
X10617200D01*
X10591800Y11912600D01*
X10617200Y11938000D01*
X10591800D01*
X10566400Y11963400D01*
X10541000Y11938000D01*
X10515600D01*
X10541000Y11912600D01*
X10515600Y11887200D01*
X10541000D01*
X10566400Y11861800D01*
X16477100Y10540697D02*
Y10642297D01*
X16578699D01*
Y10540697D01*
X16477100D01*
X16802100Y10070700D02*
Y10172300D01*
X16903700D01*
Y10070700D01*
X16802100D01*
X10642600Y8763000D02*
Y8864600D01*
X10744200D01*
Y8763000D01*
X10642600D01*
X10967601Y8293003D02*
Y8394603D01*
X11069201D01*
Y8293003D01*
X10967601D01*
X11544300Y9563100D02*
X11569700Y9588500D01*
X11595100D01*
X11569700Y9613900D01*
X11595100Y9639300D01*
X11569700D01*
X11544300Y9664700D01*
X11518900Y9639300D01*
X11493500D01*
X11518900Y9613900D01*
X11493500Y9588500D01*
X11518900D01*
X11544300Y9563100D01*
Y9309100D02*
X11569700Y9334500D01*
X11595100D01*
X11569700Y9359900D01*
X11595100Y9385300D01*
X11569700D01*
X11544300Y9410700D01*
X11518900Y9385300D01*
X11493500D01*
X11518900Y9359900D01*
X11493500Y9334500D01*
X11518900D01*
X11544300Y9309100D01*
X10464800Y11290300D02*
X10490200Y11341100D01*
X10464800Y11391900D01*
X10515600Y11366500D01*
X10566400Y11391900D01*
X10541000Y11341100D01*
X10566400Y11290300D01*
X10515600Y11315700D01*
X10464800Y11290300D01*
Y10782300D02*
X10490200Y10833100D01*
X10464800Y10883900D01*
X10515600Y10858500D01*
X10566400Y10883900D01*
X10541000Y10833100D01*
X10566400Y10782300D01*
X10515600Y10807700D01*
X10464800Y10782300D01*
X15938499Y11404600D02*
Y11379200D01*
X15989301D01*
Y11404600D01*
X16014700D01*
Y11455400D01*
X15989301D01*
Y11480800D01*
X15938499D01*
Y11455400D01*
X15913100D01*
Y11404600D01*
X15938499D01*
X16510001Y11417300D02*
Y11391900D01*
X16560800D01*
Y11417300D01*
X16586200D01*
Y11468100D01*
X16560800D01*
Y11493500D01*
X16510001D01*
Y11468100D01*
X16484599D01*
Y11417300D01*
X16510001D01*
X16522701Y10134600D02*
Y10109200D01*
X16573500D01*
Y10134600D01*
X16598900D01*
Y10185400D01*
X16573500D01*
Y10210800D01*
X16522701D01*
Y10185400D01*
X16497301D01*
Y10134600D01*
X16522701D01*
Y8775700D02*
Y8750300D01*
X16573500D01*
Y8775700D01*
X16598900D01*
Y8826500D01*
X16573500D01*
Y8851900D01*
X16522701D01*
Y8826500D01*
X16497301D01*
Y8775700D01*
X16522701D01*
X10883900Y11569700D02*
Y11544300D01*
X10934700D01*
Y11569700D01*
X10960100D01*
Y11620500D01*
X10934700D01*
Y11645900D01*
X10883900D01*
Y11620500D01*
X10858500D01*
Y11569700D01*
X10883900D01*
X10972800Y8610600D02*
Y8585200D01*
X11023600D01*
Y8610600D01*
X11049000D01*
Y8661400D01*
X11023600D01*
Y8686800D01*
X10972800D01*
Y8661400D01*
X10947400D01*
Y8610600D01*
X10972800D01*
Y9004300D02*
Y8978900D01*
X11023600D01*
Y9004300D01*
X11049000D01*
Y9055100D01*
X11023600D01*
Y9080500D01*
X10972800D01*
Y9055100D01*
X10947400D01*
Y9004300D01*
X10972800D01*
X12001500Y11493500D02*
Y11468100D01*
X12052300D01*
Y11493500D01*
X12077700D01*
Y11544300D01*
X12052300D01*
Y11569700D01*
X12001500D01*
Y11544300D01*
X11976100D01*
Y11493500D01*
X12001500D01*
X11379200Y11506200D02*
Y11480800D01*
X11430000D01*
Y11506200D01*
X11455400D01*
Y11557000D01*
X11430000D01*
Y11582400D01*
X11379200D01*
Y11557000D01*
X11353800D01*
Y11506200D01*
X11379200D01*
X13373100Y11544300D02*
Y11518900D01*
X13423900D01*
Y11544300D01*
X13449300D01*
Y11595100D01*
X13423900D01*
Y11620500D01*
X13373100D01*
Y11595100D01*
X13347701D01*
Y11544300D01*
X13373100D01*
X12763500Y11557000D02*
Y11531600D01*
X12814301D01*
Y11557000D01*
X12839700D01*
Y11607800D01*
X12814301D01*
Y11633200D01*
X12763500D01*
Y11607800D01*
X12738100D01*
Y11557000D01*
X12763500D01*
X14706599Y11607800D02*
Y11582400D01*
X14757401D01*
Y11607800D01*
X14782800D01*
Y11658600D01*
X14757401D01*
Y11684000D01*
X14706599D01*
Y11658600D01*
X14681200D01*
Y11607800D01*
X14706599D01*
X14198599Y11620500D02*
Y11595100D01*
X14249400D01*
Y11620500D01*
X14274800D01*
Y11671300D01*
X14249400D01*
Y11696700D01*
X14198599D01*
Y11671300D01*
X14173199D01*
Y11620500D01*
X14198599D01*
X17132300Y8597900D02*
Y8572500D01*
X17183099D01*
Y8597900D01*
X17208501D01*
Y8648700D01*
X17183099D01*
Y8674100D01*
X17132300D01*
Y8648700D01*
X17106900D01*
Y8597900D01*
X17132300D01*
Y9144000D02*
Y9118600D01*
X17183099D01*
Y9144000D01*
X17208501D01*
Y9194800D01*
X17183099D01*
Y9220200D01*
X17132300D01*
Y9194800D01*
X17106900D01*
Y9144000D01*
X17132300D01*
Y9690100D02*
Y9664700D01*
X17183099D01*
Y9690100D01*
X17208501D01*
Y9740900D01*
X17183099D01*
Y9766300D01*
X17132300D01*
Y9740900D01*
X17106900D01*
Y9690100D01*
X17132300D01*
Y10236200D02*
Y10210800D01*
X17183099D01*
Y10236200D01*
X17208501D01*
Y10287000D01*
X17183099D01*
Y10312400D01*
X17132300D01*
Y10287000D01*
X17106900D01*
Y10236200D01*
X17132300D01*
Y10782300D02*
Y10756900D01*
X17183099D01*
Y10782300D01*
X17208501D01*
Y10833100D01*
X17183099D01*
Y10858500D01*
X17132300D01*
Y10833100D01*
X17106900D01*
Y10782300D01*
X17132300D01*
Y11328400D02*
Y11303000D01*
X17183099D01*
Y11328400D01*
X17208501D01*
Y11379200D01*
X17183099D01*
Y11404600D01*
X17132300D01*
Y11379200D01*
X17106900D01*
Y11328400D01*
X17132300D01*
Y11874500D02*
Y11849100D01*
X17183099D01*
Y11874500D01*
X17208501D01*
Y11925300D01*
X17183099D01*
Y11950700D01*
X17132300D01*
Y11925300D01*
X17106900D01*
Y11874500D01*
X17132300D01*
X15913100Y8636000D02*
Y8610600D01*
X15963901D01*
Y8636000D01*
X15989301D01*
Y8686800D01*
X15963901D01*
Y8712200D01*
X15913100D01*
Y8686800D01*
X15887700D01*
Y8636000D01*
X15913100D01*
Y8902700D02*
Y8877300D01*
X15963901D01*
Y8902700D01*
X15989301D01*
Y8953500D01*
X15963901D01*
Y8978900D01*
X15913100D01*
Y8953500D01*
X15887700D01*
Y8902700D01*
X15913100D01*
X12331700Y10769600D02*
Y10744200D01*
X12382500D01*
Y10769600D01*
X12407900D01*
Y10820400D01*
X12382500D01*
Y10845800D01*
X12331700D01*
Y10820400D01*
X12306300D01*
Y10769600D01*
X12331700D01*
X11010900Y10198100D02*
Y10172700D01*
X11061700D01*
Y10198100D01*
X11087100D01*
Y10248900D01*
X11061700D01*
Y10274300D01*
X11010900D01*
Y10248900D01*
X10985500D01*
Y10198100D01*
X11010900D01*
X16179800Y10782300D02*
Y10756900D01*
X16230600D01*
Y10782300D01*
X16256000D01*
Y10833100D01*
X16230600D01*
Y10858500D01*
X16179800D01*
Y10833100D01*
X16154401D01*
Y10782300D01*
X16179800D01*
X13881100Y10350500D02*
Y10325100D01*
X13931900D01*
Y10350500D01*
X13957300D01*
Y10401300D01*
X13931900D01*
Y10426700D01*
X13881100D01*
Y10401300D01*
X13855701D01*
Y10350500D01*
X13881100D01*
D77*
X8950401Y7352897D02*
G03*
X8950401Y7352897I-50800J0D01*
G01*
Y4723997D02*
G03*
X8950401Y4723997I-50800J0D01*
G01*
Y6044797D02*
G03*
X8950401Y6044797I-50800J0D01*
G01*
X3990899Y4737103D02*
G03*
X3990899Y4737103I-50800J0D01*
G01*
X16303700Y7352897D02*
G03*
X16303700Y7352897I-50800J0D01*
G01*
Y4723997D02*
G03*
X16303700Y4723997I-50800J0D01*
G01*
Y6044797D02*
G03*
X16303700Y6044797I-50800J0D01*
G01*
X11344199Y4737103D02*
G03*
X11344199Y4737103I-50800J0D01*
G01*
X8950401Y11429597D02*
G03*
X8950401Y11429597I-50800J0D01*
G01*
Y8800697D02*
G03*
X8950401Y8800697I-50800J0D01*
G01*
Y10121497D02*
G03*
X8950401Y10121497I-50800J0D01*
G01*
X3990899Y8813803D02*
G03*
X3990899Y8813803I-50800J0D01*
G01*
X16303700Y11429597D02*
G03*
X16303700Y11429597I-50800J0D01*
G01*
Y8800697D02*
G03*
X16303700Y8800697I-50800J0D01*
G01*
Y10121497D02*
G03*
X16303700Y10121497I-50800J0D01*
G01*
X11344199Y8813803D02*
G03*
X11344199Y8813803I-50800J0D01*
G01*
%TF.MD5,2d15f63ed0c6da989ab182b010ee442d*%
M02*
