%TF.GenerationSoftware,Altium Limited,Altium Designer,23.1.1 (15)*%
G04 Layer_Physical_Order=1*
G04 Layer_Color=255*
%FSLAX45Y45*%
%MOMM*%
%TF.SameCoordinates,4CCFFED5-D059-4900-A68D-9618ACEA1AB5*%
%TF.FilePolarity,Positive*%
%TF.FileFunction,Copper,L1,Top,Signal*%
%TF.Part,CustomerPanel*%
G01*
G75*
%TA.AperFunction,SMDPad,CuDef*%
%ADD10R,2.33000X1.56000*%
%ADD11R,1.50000X1.30000*%
G04:AMPARAMS|DCode=12|XSize=1mm|YSize=0.8mm|CornerRadius=0.1mm|HoleSize=0mm|Usage=FLASHONLY|Rotation=180.000|XOffset=0mm|YOffset=0mm|HoleType=Round|Shape=RoundedRectangle|*
%AMROUNDEDRECTD12*
21,1,1.00000,0.60000,0,0,180.0*
21,1,0.80000,0.80000,0,0,180.0*
1,1,0.20000,-0.40000,0.30000*
1,1,0.20000,0.40000,0.30000*
1,1,0.20000,0.40000,-0.30000*
1,1,0.20000,-0.40000,-0.30000*
%
%ADD12ROUNDEDRECTD12*%
%ADD13R,1.30000X1.50000*%
%ADD14R,1.01999X3.08282*%
%ADD15R,10.99998X8.49998*%
%ADD16R,2.90000X5.40000*%
%ADD17R,2.00000X4.00000*%
%TA.AperFunction,ConnectorPad*%
%ADD18R,11.43000X8.89000*%
%ADD19R,2.08000X3.81000*%
%TA.AperFunction,SMDPad,CuDef*%
%ADD20R,1.60000X3.50000*%
%TA.AperFunction,Conductor*%
%ADD21C,2.00000*%
%ADD22C,1.70000*%
%ADD23C,1.50000*%
%ADD24C,0.50000*%
%ADD25C,1.00000*%
%TA.AperFunction,ComponentPad*%
%ADD26O,3.99999X1.70000*%
%ADD27O,1.80000X4.49999*%
%ADD28O,1.70000X3.99999*%
%ADD29O,1.80000X2.50000*%
G04:AMPARAMS|DCode=30|XSize=1.8mm|YSize=2.5mm|CornerRadius=0mm|HoleSize=0mm|Usage=FLASHONLY|Rotation=180.000|XOffset=0mm|YOffset=0mm|HoleType=Round|Shape=Octagon|*
%AMOCTAGOND30*
4,1,8,0.45000,-1.25000,-0.45000,-1.25000,-0.90000,-0.80000,-0.90000,0.80000,-0.45000,1.25000,0.45000,1.25000,0.90000,0.80000,0.90000,-0.80000,0.45000,-1.25000,0.0*
%
%ADD30OCTAGOND30*%

G04:AMPARAMS|DCode=31|XSize=2.032mm|YSize=1.524mm|CornerRadius=0mm|HoleSize=0mm|Usage=FLASHONLY|Rotation=90.000|XOffset=0mm|YOffset=0mm|HoleType=Round|Shape=Octagon|*
%AMOCTAGOND31*
4,1,8,0.38100,1.01600,-0.38100,1.01600,-0.76200,0.63500,-0.76200,-0.63500,-0.38100,-1.01600,0.38100,-1.01600,0.76200,-0.63500,0.76200,0.63500,0.38100,1.01600,0.0*
%
%ADD31OCTAGOND31*%

G04:AMPARAMS|DCode=32|XSize=2.032mm|YSize=1.524mm|CornerRadius=0mm|HoleSize=0mm|Usage=FLASHONLY|Rotation=180.000|XOffset=0mm|YOffset=0mm|HoleType=Round|Shape=Octagon|*
%AMOCTAGOND32*
4,1,8,-1.01600,0.38100,-1.01600,-0.38100,-0.63500,-0.76200,0.63500,-0.76200,1.01600,-0.38100,1.01600,0.38100,0.63500,0.76200,-0.63500,0.76200,-1.01600,0.38100,0.0*
%
%ADD32OCTAGOND32*%

%ADD33R,5.00000X3.00000*%
%ADD34O,5.00000X3.00000*%
%TA.AperFunction,ViaPad*%
%ADD35C,1.27000*%
G36*
X17424400Y8140700D02*
X10121900D01*
Y12166600D01*
X17424400D01*
Y8140700D01*
D02*
G37*
G36*
X10071100D02*
X2768600D01*
Y12166600D01*
X10071100D01*
Y8140700D01*
D02*
G37*
G36*
X17424400Y4064000D02*
X10121900D01*
Y8089900D01*
X17424400D01*
Y4064000D01*
D02*
G37*
G36*
X10071100D02*
X2768600D01*
Y8089900D01*
X10071100D01*
Y4064000D01*
D02*
G37*
%LPC*%
G36*
X17170399Y11988533D02*
Y11912600D01*
X17246333D01*
X17240543Y11934214D01*
X17228838Y11954486D01*
X17212286Y11971038D01*
X17192014Y11982742D01*
X17170399Y11988533D01*
D02*
G37*
G36*
X17145000D02*
X17123386Y11982742D01*
X17103114Y11971038D01*
X17086562Y11954486D01*
X17074858Y11934214D01*
X17069067Y11912600D01*
X17145000D01*
Y11988533D01*
D02*
G37*
G36*
X17246333Y11887200D02*
X17170399D01*
Y11811267D01*
X17192014Y11817058D01*
X17212286Y11828762D01*
X17228838Y11845314D01*
X17240543Y11865586D01*
X17246333Y11887200D01*
D02*
G37*
G36*
X17145000D02*
X17069067D01*
X17074858Y11865586D01*
X17086562Y11845314D01*
X17103114Y11828762D01*
X17123386Y11817058D01*
X17145000Y11811267D01*
Y11887200D01*
D02*
G37*
G36*
X15227299Y12141787D02*
X10375900D01*
X10356235Y12137876D01*
X10339564Y12126736D01*
X10291797Y12078969D01*
X10280657Y12062298D01*
X10276746Y12042633D01*
Y12039600D01*
X10261600D01*
X10210800Y11988800D01*
Y11836400D01*
X10261600Y11785600D01*
X10363200D01*
X10414000Y11836400D01*
Y11988800D01*
X10380486Y12022314D01*
X10397185Y12039013D01*
X10491495D01*
X10498383Y12022383D01*
X10464800Y11988800D01*
Y11836400D01*
X10490349Y11810851D01*
Y11702801D01*
X10461824Y11674276D01*
X10449738Y11658525D01*
X10442141Y11640183D01*
X10439549Y11620500D01*
Y11516500D01*
X10240200D01*
Y11165700D01*
X10588327D01*
X10972264Y10781764D01*
X10998459Y10761663D01*
X11028964Y10749028D01*
X11061700Y10744718D01*
X11061702Y10744718D01*
X11540309D01*
X11845618Y10439409D01*
Y10405302D01*
X11845618Y10405300D01*
X11846700Y10397080D01*
Y10185400D01*
X12105500D01*
Y10617200D01*
X12025573D01*
X11682136Y10960636D01*
X11655941Y10980737D01*
X11625436Y10993372D01*
X11592700Y10997682D01*
X11592698Y10997682D01*
X11114091D01*
X10791000Y11320773D01*
Y11516500D01*
X10591651D01*
Y11588999D01*
X10620176Y11617524D01*
X10632262Y11633275D01*
X10639859Y11651617D01*
X10642451Y11671300D01*
Y11810851D01*
X10668000Y11836400D01*
Y11988800D01*
X10634417Y12022383D01*
X10641305Y12039013D01*
X10745495D01*
X10752383Y12022383D01*
X10718800Y11988800D01*
Y11836400D01*
X10769600Y11785600D01*
X10871200D01*
X10922000Y11836400D01*
Y11988800D01*
X10888417Y12022383D01*
X10895305Y12039013D01*
X12481883D01*
X12498800Y12036400D01*
X12498800Y12021013D01*
Y11598700D01*
X13074199D01*
X13649599D01*
Y12021013D01*
X13649599Y12036400D01*
X13666516Y12039013D01*
X13885683D01*
X13902602Y12036400D01*
X13902602Y12021013D01*
Y11598701D01*
X14478000D01*
Y11586001D01*
D01*
Y11598701D01*
X15053400D01*
Y12021013D01*
X15053400Y12036400D01*
X15070317Y12039013D01*
X15206015D01*
X15356064Y11888964D01*
X15372736Y11877824D01*
X15392400Y11873913D01*
X15532619D01*
Y11850300D01*
X15533701Y11842081D01*
Y11792816D01*
X15532619Y11784597D01*
Y11736988D01*
X15277563Y11481934D01*
X15257463Y11455738D01*
X15244827Y11425233D01*
X15240518Y11392497D01*
X15240518Y11392495D01*
Y11054774D01*
X15100291D01*
X15074081Y11051324D01*
X15056178Y11043908D01*
X14999892D01*
Y10960089D01*
X14999026Y10953508D01*
X14999892Y10946927D01*
Y10863109D01*
X14985432Y10854559D01*
X14981593D01*
X14860376Y10975776D01*
X14844624Y10987862D01*
X14826283Y10995459D01*
X14806599Y10998051D01*
X14706599D01*
X14686917Y10995459D01*
X14676172Y10991009D01*
X14668575Y10987862D01*
X14652824Y10975776D01*
X14594225Y10917176D01*
X14582138Y10901425D01*
X14574541Y10883083D01*
X14571948Y10863400D01*
Y10734648D01*
X14554399Y10733560D01*
X14553600Y10733560D01*
X14490700D01*
Y10554019D01*
Y10374478D01*
X14553600D01*
X14554399Y10374478D01*
X14571600D01*
X14572400Y10374478D01*
X14724399D01*
Y10374477D01*
X14741600D01*
Y10374478D01*
X14805299D01*
Y10554019D01*
X14817999D01*
Y10566719D01*
X14894398D01*
Y10703515D01*
X14912067Y10712646D01*
X14919664Y10709499D01*
X14930409Y10705049D01*
X14950092Y10702457D01*
X14999892D01*
Y10673108D01*
X15024242D01*
Y10637492D01*
X14999892D01*
Y10465492D01*
X14999892Y10452092D01*
X14999892Y10438692D01*
Y10369792D01*
X15100291D01*
X15200693D01*
Y10438692D01*
X15200693Y10452092D01*
X15200693Y10465492D01*
Y10637492D01*
X15176343D01*
Y10673108D01*
X15200693D01*
Y10852242D01*
X15240518D01*
Y9605648D01*
X15197452Y9562582D01*
X15057201D01*
Y9731500D01*
X14716400D01*
Y9140700D01*
X15057201D01*
Y9309618D01*
X15249840D01*
X15249841Y9309618D01*
X15282579Y9313928D01*
X15313083Y9326563D01*
X15339279Y9346664D01*
X15456436Y9463821D01*
X15476537Y9490017D01*
X15489172Y9520521D01*
X15493481Y9553257D01*
X15493481Y9553260D01*
Y10960100D01*
Y11340106D01*
X15712573Y11559197D01*
X15784500D01*
Y11676377D01*
X15785582Y11684597D01*
X15785582Y11684599D01*
Y11784597D01*
X15784500Y11792816D01*
Y11831124D01*
X15790292Y11836918D01*
X16025809D01*
X16052567Y11810160D01*
X16078761Y11790060D01*
X16109268Y11777424D01*
X16142004Y11773114D01*
X16142006Y11773115D01*
X16527899D01*
X16560635Y11777425D01*
X16586757Y11788244D01*
X16642899D01*
X16671719Y11792038D01*
X16698575Y11803163D01*
X16721637Y11820859D01*
X16739333Y11843920D01*
X16750456Y11870777D01*
X16754253Y11899597D01*
X16750456Y11928417D01*
X16739333Y11955273D01*
X16721637Y11978335D01*
X16698575Y11996031D01*
X16671719Y12007155D01*
X16642899Y12010949D01*
X16586757D01*
X16560635Y12021769D01*
X16527899Y12026079D01*
X16194394D01*
X16167638Y12052836D01*
X16141441Y12072937D01*
X16110936Y12085572D01*
X16078200Y12089882D01*
X16078198Y12089882D01*
X15737904D01*
X15737903Y12089882D01*
X15705167Y12085572D01*
X15674661Y12072937D01*
X15648466Y12052836D01*
X15648466Y12052835D01*
X15605627Y12009997D01*
X15533701D01*
Y11976687D01*
X15413686D01*
X15263635Y12126736D01*
X15246965Y12137876D01*
X15227299Y12141787D01*
D02*
G37*
G36*
X10922000Y11683733D02*
Y11607800D01*
X10997933D01*
X10992142Y11629414D01*
X10980438Y11649686D01*
X10963886Y11666238D01*
X10943614Y11677942D01*
X10922000Y11683733D01*
D02*
G37*
G36*
X10896600D02*
X10874986Y11677942D01*
X10854714Y11666238D01*
X10838162Y11649686D01*
X10826458Y11629414D01*
X10820667Y11607800D01*
X10896600D01*
Y11683733D01*
D02*
G37*
G36*
X12319000Y12014200D02*
X11734800D01*
Y11557000D01*
X12319000D01*
Y12014200D01*
D02*
G37*
G36*
X11709400D02*
X11125200D01*
Y11557000D01*
X11709400D01*
Y12014200D01*
D02*
G37*
G36*
X10997933Y11582400D02*
X10922000D01*
Y11506467D01*
X10943614Y11512258D01*
X10963886Y11523962D01*
X10980438Y11540514D01*
X10992142Y11560786D01*
X10997933Y11582400D01*
D02*
G37*
G36*
X10896600D02*
X10820667D01*
X10826458Y11560786D01*
X10838162Y11540514D01*
X10854714Y11523962D01*
X10874986Y11512258D01*
X10896600Y11506467D01*
Y11582400D01*
D02*
G37*
G36*
X16548100Y11531333D02*
Y11455400D01*
X16624033D01*
X16618242Y11477014D01*
X16606538Y11497286D01*
X16589986Y11513838D01*
X16569714Y11525542D01*
X16548100Y11531333D01*
D02*
G37*
G36*
X16522701D02*
X16501086Y11525542D01*
X16480814Y11513838D01*
X16464262Y11497286D01*
X16452557Y11477014D01*
X16446767Y11455400D01*
X16522701D01*
Y11531333D01*
D02*
G37*
G36*
X15976601Y11518633D02*
Y11442700D01*
X16052533D01*
X16046742Y11464314D01*
X16035039Y11484586D01*
X16018486Y11501138D01*
X15998215Y11512842D01*
X15976601Y11518633D01*
D02*
G37*
G36*
X15951199D02*
X15929585Y11512842D01*
X15909314Y11501138D01*
X15892763Y11484586D01*
X15881058Y11464314D01*
X15875267Y11442700D01*
X15951199D01*
Y11518633D01*
D02*
G37*
G36*
X16865601Y11654280D02*
Y11442299D01*
X16964253D01*
Y11544600D01*
X16960458Y11573420D01*
X16949335Y11600276D01*
X16931638Y11623338D01*
X16908575Y11641034D01*
X16881720Y11652158D01*
X16865601Y11654280D01*
D02*
G37*
G36*
X16840199D02*
X16824080Y11652158D01*
X16797224Y11641034D01*
X16774162Y11623338D01*
X16756467Y11600276D01*
X16745341Y11573420D01*
X16741547Y11544600D01*
Y11442299D01*
X16840199D01*
Y11654280D01*
D02*
G37*
G36*
X16265601Y11679320D02*
Y11442298D01*
X16369296D01*
Y11564597D01*
X16365331Y11594722D01*
X16353702Y11622795D01*
X16335205Y11646901D01*
X16311099Y11665398D01*
X16283026Y11677026D01*
X16265601Y11679320D01*
D02*
G37*
G36*
X16240201Y11679321D02*
X16222775Y11677026D01*
X16194704Y11665398D01*
X16170596Y11646901D01*
X16152100Y11622795D01*
X16140471Y11594722D01*
X16136505Y11564597D01*
Y11442298D01*
X16240201D01*
Y11679321D01*
D02*
G37*
G36*
X17170399Y11442433D02*
Y11366500D01*
X17246333D01*
X17240543Y11388114D01*
X17228838Y11408386D01*
X17212286Y11424938D01*
X17192014Y11436642D01*
X17170399Y11442433D01*
D02*
G37*
G36*
X17145000D02*
X17123386Y11436642D01*
X17103114Y11424938D01*
X17086562Y11408386D01*
X17074858Y11388114D01*
X17069067Y11366500D01*
X17145000D01*
Y11442433D01*
D02*
G37*
G36*
X16624033Y11430000D02*
X16548100D01*
Y11354067D01*
X16569714Y11359858D01*
X16589986Y11371562D01*
X16606538Y11388114D01*
X16618242Y11408386D01*
X16624033Y11430000D01*
D02*
G37*
G36*
X16522701D02*
X16446767D01*
X16452557Y11408386D01*
X16464262Y11388114D01*
X16480814Y11371562D01*
X16501086Y11359858D01*
X16522701Y11354067D01*
Y11430000D01*
D02*
G37*
G36*
X16052533Y11417300D02*
X15976601D01*
Y11341367D01*
X15998215Y11347158D01*
X16018486Y11358862D01*
X16035039Y11375414D01*
X16046742Y11395686D01*
X16052533Y11417300D01*
D02*
G37*
G36*
X15951199D02*
X15875267D01*
X15881058Y11395686D01*
X15892763Y11375414D01*
X15909314Y11358862D01*
X15929585Y11347158D01*
X15951199Y11341367D01*
Y11417300D01*
D02*
G37*
G36*
X17246333Y11341100D02*
X17170399D01*
Y11265167D01*
X17192014Y11270958D01*
X17212286Y11282662D01*
X17228838Y11299214D01*
X17240543Y11319486D01*
X17246333Y11341100D01*
D02*
G37*
G36*
X17145000D02*
X17069067D01*
X17074858Y11319486D01*
X17086562Y11299214D01*
X17103114Y11282662D01*
X17123386Y11270958D01*
X17145000Y11265167D01*
Y11341100D01*
D02*
G37*
G36*
X16964253Y11416899D02*
X16865601D01*
Y11204920D01*
X16881720Y11207042D01*
X16908575Y11218166D01*
X16931638Y11235862D01*
X16949335Y11258924D01*
X16960458Y11285780D01*
X16964253Y11314600D01*
Y11416899D01*
D02*
G37*
G36*
X16840199D02*
X16741547D01*
Y11314600D01*
X16745341Y11285780D01*
X16756467Y11258924D01*
X16774162Y11235862D01*
X16797224Y11218166D01*
X16824080Y11207042D01*
X16840199Y11204920D01*
Y11416899D01*
D02*
G37*
G36*
X16369296Y11416898D02*
X16265601D01*
Y11179874D01*
X16283026Y11182168D01*
X16311099Y11193796D01*
X16335205Y11212293D01*
X16353702Y11236400D01*
X16365331Y11264472D01*
X16369296Y11294597D01*
Y11416898D01*
D02*
G37*
G36*
X16240201D02*
X16136505D01*
Y11294597D01*
X16140471Y11264472D01*
X16152100Y11236400D01*
X16170596Y11212293D01*
X16194704Y11193796D01*
X16222775Y11182168D01*
X16240201Y11179874D01*
Y11416898D01*
D02*
G37*
G36*
X15053400Y11573301D02*
X14490700D01*
Y11135602D01*
X15053400D01*
Y11573301D01*
D02*
G37*
G36*
X14465300D02*
X13902602D01*
Y11135602D01*
X14465300D01*
Y11573301D01*
D02*
G37*
G36*
X13061499Y11573300D02*
X12498800D01*
Y11135602D01*
X13061499D01*
Y11573300D01*
D02*
G37*
G36*
X13779492Y11209008D02*
Y11131308D01*
X13867192D01*
Y11209008D01*
X13779492D01*
D02*
G37*
G36*
X13649599Y11573300D02*
X13086899D01*
Y11135602D01*
X13648392D01*
X13649599Y11135601D01*
X13666393Y11132690D01*
Y11131308D01*
X13754092D01*
Y11209008D01*
X13667598D01*
X13666393Y11209008D01*
X13649599Y11211920D01*
Y11573300D01*
D02*
G37*
G36*
X15784500Y11299997D02*
X15671800D01*
Y11087297D01*
X15784500D01*
Y11299997D01*
D02*
G37*
G36*
X15646400D02*
X15533701D01*
Y11087297D01*
X15646400D01*
Y11299997D01*
D02*
G37*
G36*
X12319000Y11531600D02*
X11734800D01*
Y11074400D01*
X12319000D01*
Y11531600D01*
D02*
G37*
G36*
X11709400D02*
X11125200D01*
Y11074400D01*
X11709400D01*
Y11531600D01*
D02*
G37*
G36*
X15784500Y11061897D02*
X15671800D01*
Y10849197D01*
X15784500D01*
Y11061897D01*
D02*
G37*
G36*
X15646400D02*
X15533701D01*
Y10849197D01*
X15646400D01*
Y11061897D01*
D02*
G37*
G36*
X17170399Y10896333D02*
Y10820400D01*
X17246333D01*
X17240543Y10842014D01*
X17228838Y10862286D01*
X17212286Y10878838D01*
X17192014Y10890542D01*
X17170399Y10896333D01*
D02*
G37*
G36*
X17145000D02*
X17123386Y10890542D01*
X17103114Y10878838D01*
X17086562Y10862286D01*
X17074858Y10842014D01*
X17069067Y10820400D01*
X17145000D01*
Y10896333D01*
D02*
G37*
G36*
X12369800Y10883633D02*
Y10807700D01*
X12445733D01*
X12439942Y10829314D01*
X12428238Y10849586D01*
X12411686Y10866138D01*
X12391414Y10877842D01*
X12369800Y10883633D01*
D02*
G37*
G36*
X12344400D02*
X12322786Y10877842D01*
X12302514Y10866138D01*
X12285962Y10849586D01*
X12274258Y10829314D01*
X12268467Y10807700D01*
X12344400D01*
Y10883633D01*
D02*
G37*
G36*
X17246333Y10795000D02*
X17170399D01*
Y10719067D01*
X17192014Y10724858D01*
X17212286Y10736562D01*
X17228838Y10753114D01*
X17240543Y10773386D01*
X17246333Y10795000D01*
D02*
G37*
G36*
X17145000D02*
X17069067D01*
X17074858Y10773386D01*
X17086562Y10753114D01*
X17103114Y10736562D01*
X17123386Y10724858D01*
X17145000Y10719067D01*
Y10795000D01*
D02*
G37*
G36*
X12445733Y10782300D02*
X12369800D01*
Y10706367D01*
X12391414Y10712158D01*
X12411686Y10723862D01*
X12428238Y10740414D01*
X12439942Y10760686D01*
X12445733Y10782300D01*
D02*
G37*
G36*
X12344400D02*
X12268467D01*
X12274258Y10760686D01*
X12285962Y10740414D01*
X12302514Y10723862D01*
X12322786Y10712158D01*
X12344400Y10706367D01*
Y10782300D01*
D02*
G37*
G36*
X16205200Y10908966D02*
X16178992Y10905516D01*
X16154567Y10895399D01*
X16133594Y10879306D01*
X16130070Y10875783D01*
X16113979Y10854810D01*
X16103860Y10830387D01*
X16100410Y10804177D01*
X16100410Y10804175D01*
Y10683524D01*
X15784500D01*
Y10701897D01*
X15533701D01*
Y10251097D01*
X15784500D01*
Y10480992D01*
X16389519D01*
X16389520Y10480992D01*
X16397990Y10482107D01*
X16412900Y10480144D01*
X16642899D01*
X16671719Y10483938D01*
X16698575Y10495063D01*
X16721637Y10512759D01*
X16739333Y10535820D01*
X16750456Y10562677D01*
X16754253Y10591497D01*
X16750456Y10620317D01*
X16739333Y10647173D01*
X16721637Y10670235D01*
X16698575Y10687931D01*
X16671719Y10699055D01*
X16642899Y10702849D01*
X16412900D01*
X16384079Y10699055D01*
X16357224Y10687931D01*
X16351482Y10683524D01*
X16302943D01*
Y10781315D01*
X16303017Y10781491D01*
X16306467Y10807700D01*
X16303017Y10833910D01*
X16292899Y10858333D01*
X16276807Y10879306D01*
X16255833Y10895399D01*
X16231410Y10905516D01*
X16205200Y10908966D01*
D02*
G37*
G36*
X13490598Y10733560D02*
X13426898D01*
Y10566719D01*
X13490598D01*
Y10733560D01*
D02*
G37*
G36*
X13867192Y11105908D02*
X13766792D01*
X13666393D01*
Y11037008D01*
X13666393Y11028208D01*
Y11017387D01*
X13653664Y11004659D01*
X13392409D01*
X13372725Y11002067D01*
X13354382Y10994470D01*
X13338632Y10982384D01*
X13191422Y10835174D01*
X13179337Y10819423D01*
X13171739Y10801082D01*
X13169147Y10781398D01*
Y10734908D01*
X13167799Y10733560D01*
X13150600D01*
X13149799Y10733560D01*
X13086899D01*
Y10554019D01*
Y10374478D01*
X13149799D01*
X13150600Y10374478D01*
X13167799D01*
X13168599Y10374478D01*
X13319798D01*
X13320598Y10374478D01*
Y10374477D01*
X13337801D01*
Y10374478D01*
X13401498D01*
Y10554019D01*
X13414198D01*
D01*
X13401498D01*
Y10733560D01*
X13337799D01*
Y10733560D01*
X13329501Y10735315D01*
X13325839Y10754488D01*
X13423909Y10852557D01*
X13666393D01*
Y10838208D01*
X13690741D01*
Y10802592D01*
X13666393D01*
Y10621793D01*
X13666393Y10621792D01*
Y10612591D01*
X13666393D01*
X13666393Y10603792D01*
Y10565004D01*
X13507228Y10405840D01*
X13490598Y10412728D01*
Y10541319D01*
X13426898D01*
Y10374478D01*
X13452347D01*
X13459236Y10357848D01*
X13301494Y10200106D01*
X13301143Y10199649D01*
X13285544Y10205643D01*
X13284093Y10206998D01*
Y10223500D01*
X13220700D01*
Y10170107D01*
X13248000D01*
X13261812Y10172854D01*
X13263893Y10174244D01*
X13278433Y10162311D01*
X13275284Y10154710D01*
X13271834Y10128500D01*
X13271834Y10128498D01*
Y9744200D01*
X13202699D01*
Y9153400D01*
X13543500D01*
Y9744200D01*
X13474367D01*
Y10086554D01*
X13766792Y10378980D01*
X13817596Y10328175D01*
X13818800Y10325267D01*
X13834467Y10304851D01*
X13834085Y10302231D01*
X13828058Y10286851D01*
X13762180D01*
X13742496Y10284259D01*
X13724153Y10276662D01*
X13708403Y10264576D01*
X13586024Y10142197D01*
X13573938Y10126447D01*
X13566341Y10108105D01*
X13563750Y10088421D01*
Y8610082D01*
X12396791D01*
X12216882Y8789991D01*
Y9148132D01*
X12232700Y9153400D01*
Y9153400D01*
X12573500D01*
Y9636648D01*
X12956976Y10020124D01*
X12969061Y10035875D01*
X12972209Y10043472D01*
X12976659Y10054217D01*
X12979251Y10073900D01*
Y10205985D01*
X12979292Y10206200D01*
Y10266200D01*
X12979251Y10266415D01*
Y10373129D01*
X12980598Y10374478D01*
X12997800D01*
X12998599Y10374478D01*
X13061499D01*
Y10554019D01*
Y10733560D01*
X12998599D01*
X12997800Y10733560D01*
X12980598D01*
X12979800Y10733560D01*
X12827800D01*
Y10733561D01*
X12810599D01*
Y10733560D01*
X12809801Y10733560D01*
X12657800D01*
Y10629411D01*
X12655462Y10627617D01*
X12053280Y10025435D01*
X12027159Y10014615D01*
X12000964Y9994515D01*
X11980863Y9968320D01*
X11968228Y9937815D01*
X11963918Y9905078D01*
Y9740382D01*
X11544300D01*
X11511564Y9736072D01*
X11481059Y9723437D01*
X11470716Y9715500D01*
X11468100D01*
X11459475Y9706875D01*
X11454864Y9703336D01*
X11451325Y9698725D01*
X11417300Y9664700D01*
Y9563100D01*
X11451325Y9529075D01*
X11454864Y9524464D01*
X11459475Y9520925D01*
X11468100Y9512300D01*
X11474597Y9504382D01*
X11466353Y9486382D01*
X11068591D01*
X10947700Y9607273D01*
Y9679200D01*
X10932282D01*
Y9840700D01*
X10947700D01*
Y10047500D01*
X10932282D01*
Y10198670D01*
X10950282Y10201040D01*
X10953458Y10189186D01*
X10965162Y10168914D01*
X10981714Y10152362D01*
X10984913Y10150515D01*
Y10071100D01*
X10988824Y10051435D01*
X10999964Y10034764D01*
X11038056Y9996672D01*
X11054727Y9985532D01*
X11074392Y9981621D01*
X11104908D01*
Y9932608D01*
X11276908D01*
X11290308Y9932608D01*
X11303708Y9932608D01*
X11632508D01*
X11645908Y9932608D01*
X11659308Y9932608D01*
X11728208D01*
Y10033008D01*
Y10133408D01*
X11659308D01*
X11645908Y10133408D01*
X11632508Y10133408D01*
X11519487D01*
Y10185400D01*
X11597500D01*
Y10617200D01*
X11338700D01*
Y10185400D01*
X11416713D01*
Y10133408D01*
X11303708D01*
X11290308Y10133408D01*
X11276908Y10133408D01*
X11104908D01*
Y10133408D01*
X11094109Y10134588D01*
X11091629Y10148264D01*
X11091503Y10152979D01*
X11107438Y10168914D01*
X11119142Y10189186D01*
X11125200Y10211796D01*
Y10235204D01*
X11119142Y10257814D01*
X11107438Y10278086D01*
X11090886Y10294638D01*
X11070614Y10306342D01*
X11048004Y10312400D01*
X11024596D01*
X11001986Y10306342D01*
X10981714Y10294638D01*
X10965700Y10278624D01*
X10963211Y10278729D01*
X10947700Y10283840D01*
Y10415800D01*
X10932282D01*
Y10542900D01*
X10927972Y10575636D01*
X10915337Y10606141D01*
X10895237Y10632336D01*
X10895236Y10632337D01*
X10772681Y10754892D01*
X10778433Y10765653D01*
X10788462Y10798716D01*
X10791849Y10833100D01*
X10788462Y10867484D01*
X10778433Y10900547D01*
X10762145Y10931019D01*
X10740227Y10957727D01*
X10713519Y10979645D01*
X10683047Y10995933D01*
X10649985Y11005962D01*
X10615600Y11009349D01*
X10415600D01*
X10381215Y11005962D01*
X10348153Y10995933D01*
X10317681Y10979645D01*
X10290973Y10957727D01*
X10269055Y10931019D01*
X10252767Y10900547D01*
X10242738Y10867484D01*
X10239351Y10833100D01*
X10242738Y10798716D01*
X10252767Y10765653D01*
X10269055Y10735181D01*
X10290973Y10708473D01*
X10317681Y10686555D01*
X10348153Y10670267D01*
X10381215Y10660238D01*
X10415600Y10656851D01*
X10522659D01*
X10525197Y10650725D01*
X10545297Y10624530D01*
X10679318Y10490509D01*
Y10415800D01*
X10663900D01*
Y10209000D01*
X10679318D01*
Y10047500D01*
X10663900D01*
Y9840700D01*
X10679318D01*
Y9679200D01*
X10663900D01*
Y9472400D01*
X10724827D01*
X10926763Y9270465D01*
X10926764Y9270464D01*
X10952959Y9250363D01*
X10983464Y9237728D01*
X11016200Y9233418D01*
X11016202Y9233418D01*
X11544300D01*
X11577036Y9237728D01*
X11607541Y9250363D01*
X11617884Y9258300D01*
X11620500D01*
X11629125Y9266925D01*
X11633736Y9270464D01*
X11637275Y9275075D01*
X11671300Y9309100D01*
Y9410700D01*
X11637275Y9444725D01*
X11633736Y9449336D01*
X11629125Y9452875D01*
X11620500Y9461500D01*
X11614003Y9469418D01*
X11622247Y9487418D01*
X11963918D01*
Y8737602D01*
X11963918Y8737600D01*
X11968228Y8704864D01*
X11980863Y8674359D01*
X12000964Y8648164D01*
X12254963Y8394165D01*
X12254964Y8394164D01*
X12281159Y8374063D01*
X12311664Y8361428D01*
X12344400Y8357118D01*
X12344402Y8357118D01*
X15074898D01*
X15074899Y8357118D01*
X15107635Y8361428D01*
X15138141Y8374063D01*
X15164336Y8394164D01*
X15650873Y8880700D01*
X15764500D01*
Y8957467D01*
X15768637Y8962859D01*
X15781271Y8993364D01*
X15785582Y9026100D01*
Y9081100D01*
X15781271Y9113836D01*
X15768637Y9144341D01*
X15765366Y9148603D01*
Y9230086D01*
X15793913Y9258634D01*
X15976338D01*
X16032054Y9202918D01*
X16032056Y9202917D01*
X16053027Y9186824D01*
X16077451Y9176708D01*
X16103661Y9173257D01*
X16359651D01*
X16384079Y9163138D01*
X16412900Y9159344D01*
X16642899D01*
X16671719Y9163138D01*
X16698575Y9174263D01*
X16721637Y9191959D01*
X16739333Y9215020D01*
X16750456Y9241877D01*
X16754253Y9270697D01*
X16750456Y9299517D01*
X16739333Y9326373D01*
X16721637Y9349435D01*
X16698575Y9367131D01*
X16671719Y9378255D01*
X16642899Y9382049D01*
X16412900D01*
X16384079Y9378255D01*
X16378127Y9375789D01*
X16145607D01*
X16089891Y9431506D01*
X16068918Y9447599D01*
X16044495Y9457716D01*
X16018285Y9461166D01*
X16018282Y9461166D01*
X15751970D01*
X15751968Y9461166D01*
X15725758Y9457716D01*
X15701335Y9447599D01*
X15680362Y9431506D01*
X15680360Y9431505D01*
X15592494Y9343638D01*
X15576401Y9322665D01*
X15566284Y9298242D01*
X15564079Y9281500D01*
X15553700D01*
Y9149733D01*
X15549564Y9144341D01*
X15538400Y9117394D01*
X15534158Y9115637D01*
X15507964Y9095536D01*
X15022508Y8610082D01*
X13715851D01*
Y10056920D01*
X13793680Y10134749D01*
X14078423D01*
X14098106Y10137341D01*
X14116447Y10144938D01*
X14132199Y10157024D01*
X14190778Y10215603D01*
X14202863Y10231353D01*
X14206010Y10238951D01*
X14210461Y10249695D01*
X14213052Y10269379D01*
Y10356627D01*
X14213950Y10357465D01*
X14231950Y10349650D01*
Y10258739D01*
X14230908Y10253500D01*
Y10193500D01*
X14230949Y10193285D01*
Y10160202D01*
X13922044Y9851297D01*
X13909959Y9835546D01*
X13902362Y9817205D01*
X13899771Y9797521D01*
Y9731500D01*
X13746400D01*
Y9140700D01*
X14087199D01*
Y9731500D01*
X14051872D01*
Y9766020D01*
X14360777Y10074925D01*
X14372862Y10090676D01*
X14376010Y10098273D01*
X14380460Y10109017D01*
X14383051Y10128701D01*
Y10193285D01*
X14383093Y10193500D01*
Y10217232D01*
X14384052Y10224499D01*
Y10373390D01*
X14401601Y10374478D01*
X14402400Y10374478D01*
X14465300D01*
Y10554019D01*
Y10733560D01*
X14402400D01*
X14401601Y10733560D01*
X14384399D01*
X14383600Y10733560D01*
X14232401D01*
X14231601Y10733560D01*
X14214400D01*
X14213602Y10733560D01*
X14061601D01*
Y10557961D01*
X14060951Y10553020D01*
Y10300880D01*
X14046922Y10286851D01*
X13984943D01*
X13978915Y10302231D01*
X13978532Y10304851D01*
X13994199Y10325267D01*
X14004317Y10349690D01*
X14007767Y10375900D01*
Y10382482D01*
X14007767Y10382484D01*
X14004317Y10408693D01*
X13994199Y10433117D01*
X13978107Y10454090D01*
X13978105Y10454091D01*
X13867192Y10565004D01*
Y10603792D01*
X13867192Y10612591D01*
X13867192D01*
Y10621793D01*
X13867192D01*
Y10802592D01*
X13842844D01*
Y10838208D01*
X13867192D01*
Y11010208D01*
X13867192Y11023608D01*
X13867192Y11037008D01*
Y11105908D01*
D02*
G37*
G36*
X14894398Y10541319D02*
X14830699D01*
Y10374478D01*
X14894398D01*
Y10541319D01*
D02*
G37*
G36*
X17170399Y10350233D02*
Y10274300D01*
X17246333D01*
X17240543Y10295914D01*
X17228838Y10316186D01*
X17212286Y10332738D01*
X17192014Y10344442D01*
X17170399Y10350233D01*
D02*
G37*
G36*
X17145000D02*
X17123386Y10344442D01*
X17103114Y10332738D01*
X17086562Y10316186D01*
X17074858Y10295914D01*
X17069067Y10274300D01*
X17145000D01*
Y10350233D01*
D02*
G37*
G36*
X15200693Y10344392D02*
X15112991D01*
Y10266692D01*
X15200693D01*
Y10344392D01*
D02*
G37*
G36*
X15087592D02*
X14999892D01*
Y10266692D01*
X15087592D01*
Y10344392D01*
D02*
G37*
G36*
X13248000Y10302293D02*
X13220700D01*
Y10248900D01*
X13284093D01*
Y10266200D01*
X13281346Y10280012D01*
X13273521Y10291722D01*
X13261812Y10299546D01*
X13248000Y10302293D01*
D02*
G37*
G36*
X13195300D02*
X13167999D01*
X13154189Y10299546D01*
X13142477Y10291722D01*
X13134654Y10280012D01*
X13131908Y10266200D01*
Y10248900D01*
X13195300D01*
Y10302293D01*
D02*
G37*
G36*
X14651801Y10289593D02*
X14624501D01*
Y10236200D01*
X14687894D01*
Y10253500D01*
X14685147Y10267312D01*
X14677322Y10279022D01*
X14665613Y10286846D01*
X14651801Y10289593D01*
D02*
G37*
G36*
X14599101D02*
X14571802D01*
X14557990Y10286846D01*
X14546278Y10279022D01*
X14538455Y10267312D01*
X14535709Y10253500D01*
Y10236200D01*
X14599101D01*
Y10289593D01*
D02*
G37*
G36*
X17246333Y10248900D02*
X17170399D01*
Y10172967D01*
X17192014Y10178758D01*
X17212286Y10190462D01*
X17228838Y10207014D01*
X17240543Y10227286D01*
X17246333Y10248900D01*
D02*
G37*
G36*
X17145000D02*
X17069067D01*
X17074858Y10227286D01*
X17086562Y10207014D01*
X17103114Y10190462D01*
X17123386Y10178758D01*
X17145000Y10172967D01*
Y10248900D01*
D02*
G37*
G36*
X16560800Y10248633D02*
Y10172700D01*
X16636732D01*
X16630942Y10194314D01*
X16619238Y10214586D01*
X16602686Y10231138D01*
X16582414Y10242842D01*
X16560800Y10248633D01*
D02*
G37*
G36*
X16535400D02*
X16513786Y10242842D01*
X16493513Y10231138D01*
X16476962Y10214586D01*
X16465257Y10194314D01*
X16459467Y10172700D01*
X16535400D01*
Y10248633D01*
D02*
G37*
G36*
X13195300Y10223500D02*
X13131908D01*
Y10206200D01*
X13134654Y10192388D01*
X13142477Y10180678D01*
X13154189Y10172854D01*
X13167999Y10170107D01*
X13195300D01*
Y10223500D01*
D02*
G37*
G36*
X14687894Y10210800D02*
X14624501D01*
Y10157407D01*
X14651801D01*
X14665613Y10160154D01*
X14677322Y10167978D01*
X14685147Y10179688D01*
X14687894Y10193500D01*
Y10210800D01*
D02*
G37*
G36*
X14599101D02*
X14535709D01*
Y10193500D01*
X14538455Y10179688D01*
X14546278Y10167978D01*
X14557990Y10160154D01*
X14571802Y10157407D01*
X14599101D01*
Y10210800D01*
D02*
G37*
G36*
X16865601Y10346180D02*
Y10134199D01*
X16964253D01*
Y10236500D01*
X16960458Y10265320D01*
X16949335Y10292176D01*
X16931638Y10315238D01*
X16908575Y10332934D01*
X16881720Y10344058D01*
X16865601Y10346180D01*
D02*
G37*
G36*
X16840199D02*
X16824080Y10344058D01*
X16797224Y10332934D01*
X16774162Y10315238D01*
X16756467Y10292176D01*
X16745341Y10265320D01*
X16741547Y10236500D01*
Y10134199D01*
X16840199D01*
Y10346180D01*
D02*
G37*
G36*
X16265601Y10371220D02*
Y10134198D01*
X16369296D01*
Y10256497D01*
X16365331Y10286622D01*
X16353702Y10314695D01*
X16335205Y10338801D01*
X16311099Y10357298D01*
X16283026Y10368926D01*
X16265601Y10371220D01*
D02*
G37*
G36*
X16240201Y10371221D02*
X16222775Y10368926D01*
X16194704Y10357298D01*
X16170596Y10338801D01*
X16152100Y10314695D01*
X16140471Y10286622D01*
X16136505Y10256497D01*
Y10134198D01*
X16240201D01*
Y10371221D01*
D02*
G37*
G36*
X16636732Y10147300D02*
X16560800D01*
Y10071367D01*
X16582414Y10077158D01*
X16602686Y10088862D01*
X16619238Y10105414D01*
X16630942Y10125686D01*
X16636732Y10147300D01*
D02*
G37*
G36*
X16535400D02*
X16459467D01*
X16465257Y10125686D01*
X16476962Y10105414D01*
X16493513Y10088862D01*
X16513786Y10077158D01*
X16535400Y10071367D01*
Y10147300D01*
D02*
G37*
G36*
X11753608Y10133408D02*
Y10045708D01*
X11831308D01*
Y10133408D01*
X11753608D01*
D02*
G37*
G36*
X11831308Y10020308D02*
X11753608D01*
Y9932608D01*
X11831308D01*
Y10020308D01*
D02*
G37*
G36*
X16964253Y10108799D02*
X16865601D01*
Y9896820D01*
X16881720Y9898942D01*
X16908575Y9910066D01*
X16931638Y9927762D01*
X16949335Y9950824D01*
X16960458Y9977680D01*
X16964253Y10006500D01*
Y10108799D01*
D02*
G37*
G36*
X16840199D02*
X16741547D01*
Y10006500D01*
X16745341Y9977680D01*
X16756467Y9950824D01*
X16774162Y9927762D01*
X16797224Y9910066D01*
X16824080Y9898942D01*
X16840199Y9896820D01*
Y10108799D01*
D02*
G37*
G36*
X16369296Y10108798D02*
X16265601D01*
Y9871774D01*
X16283026Y9874068D01*
X16311099Y9885696D01*
X16335205Y9904193D01*
X16353702Y9928300D01*
X16365331Y9956372D01*
X16369296Y9986497D01*
Y10108798D01*
D02*
G37*
G36*
X16240201D02*
X16136505D01*
Y9986497D01*
X16140471Y9956372D01*
X16152100Y9928300D01*
X16170596Y9904193D01*
X16194704Y9885696D01*
X16222775Y9874068D01*
X16240201Y9871774D01*
Y10108798D01*
D02*
G37*
G36*
X15784500Y9991897D02*
X15671800D01*
Y9779197D01*
X15784500D01*
Y9991897D01*
D02*
G37*
G36*
X15646400D02*
X15533701D01*
Y9779197D01*
X15646400D01*
Y9991897D01*
D02*
G37*
G36*
X15659100Y9766497D02*
D01*
D01*
D01*
D02*
G37*
G36*
X17170399Y9804133D02*
Y9728200D01*
X17246333D01*
X17240543Y9749814D01*
X17228838Y9770086D01*
X17212286Y9786638D01*
X17192014Y9798342D01*
X17170399Y9804133D01*
D02*
G37*
G36*
X17145000D02*
X17123386Y9798342D01*
X17103114Y9786638D01*
X17086562Y9770086D01*
X17074858Y9749814D01*
X17069067Y9728200D01*
X17145000D01*
Y9804133D01*
D02*
G37*
G36*
X17246333Y9702800D02*
X17170399D01*
Y9626867D01*
X17192014Y9632658D01*
X17212286Y9644362D01*
X17228838Y9660914D01*
X17240543Y9681186D01*
X17246333Y9702800D01*
D02*
G37*
G36*
X17145000D02*
X17069067D01*
X17074858Y9681186D01*
X17086562Y9660914D01*
X17103114Y9644362D01*
X17123386Y9632658D01*
X17145000Y9626867D01*
Y9702800D01*
D02*
G37*
G36*
X15784500Y9753797D02*
X15671800D01*
Y9541097D01*
X15784500D01*
Y9753797D01*
D02*
G37*
G36*
X15646400D02*
X15533701D01*
Y9541097D01*
X15646400D01*
Y9753797D01*
D02*
G37*
G36*
X17170399Y9258033D02*
Y9182100D01*
X17246333D01*
X17240543Y9203714D01*
X17228838Y9223986D01*
X17212286Y9240538D01*
X17192014Y9252242D01*
X17170399Y9258033D01*
D02*
G37*
G36*
X17145000D02*
X17123386Y9252242D01*
X17103114Y9240538D01*
X17086562Y9223986D01*
X17074858Y9203714D01*
X17069067Y9182100D01*
X17145000D01*
Y9258033D01*
D02*
G37*
G36*
X17246333Y9156700D02*
X17170399D01*
Y9080767D01*
X17192014Y9086558D01*
X17212286Y9098262D01*
X17228838Y9114814D01*
X17240543Y9135086D01*
X17246333Y9156700D01*
D02*
G37*
G36*
X17145000D02*
X17069067D01*
X17074858Y9135086D01*
X17086562Y9114814D01*
X17103114Y9098262D01*
X17123386Y9086558D01*
X17145000Y9080767D01*
Y9156700D01*
D02*
G37*
G36*
X11010900Y9118333D02*
Y9042400D01*
X11086833D01*
X11081042Y9064014D01*
X11069338Y9084286D01*
X11052786Y9100838D01*
X11032514Y9112542D01*
X11010900Y9118333D01*
D02*
G37*
G36*
X10985500D02*
X10963886Y9112542D01*
X10943614Y9100838D01*
X10927062Y9084286D01*
X10915358Y9064014D01*
X10909567Y9042400D01*
X10985500D01*
Y9118333D01*
D02*
G37*
G36*
X11086833Y9017000D02*
X11010900D01*
Y8941067D01*
X11032514Y8946858D01*
X11052786Y8958562D01*
X11069338Y8975114D01*
X11081042Y8995386D01*
X11086833Y9017000D01*
D02*
G37*
G36*
X10985500D02*
X10909567D01*
X10915358Y8995386D01*
X10927062Y8975114D01*
X10943614Y8958562D01*
X10963886Y8946858D01*
X10985500Y8941067D01*
Y9017000D01*
D02*
G37*
G36*
X15951199Y9016733D02*
Y8940800D01*
X16027133D01*
X16021342Y8962414D01*
X16009637Y8982686D01*
X15993086Y8999238D01*
X15972813Y9010942D01*
X15951199Y9016733D01*
D02*
G37*
G36*
X15925800D02*
X15904185Y9010942D01*
X15883914Y8999238D01*
X15867361Y8982686D01*
X15855658Y8962414D01*
X15849867Y8940800D01*
X15925800D01*
Y9016733D01*
D02*
G37*
G36*
X16027133Y8915400D02*
X15951199D01*
Y8839467D01*
X15972813Y8845258D01*
X15993086Y8856962D01*
X16009637Y8873514D01*
X16021342Y8893786D01*
X16027133Y8915400D01*
D02*
G37*
G36*
X15925800D02*
X15849867D01*
X15855658Y8893786D01*
X15867361Y8873514D01*
X15883914Y8856962D01*
X15904185Y8845258D01*
X15925800Y8839467D01*
Y8915400D01*
D02*
G37*
G36*
X11280699Y9063526D02*
X11263274Y9061232D01*
X11235201Y9049604D01*
X11211095Y9031107D01*
X11192598Y9007000D01*
X11180970Y8978928D01*
X11177004Y8948803D01*
Y8826503D01*
X11280699D01*
Y9063526D01*
D02*
G37*
G36*
X10706100Y9038480D02*
Y8826500D01*
X10804753D01*
Y8928800D01*
X10800958Y8957620D01*
X10789834Y8984476D01*
X10772138Y9007538D01*
X10749076Y9025234D01*
X10722220Y9036358D01*
X10706100Y9038480D01*
D02*
G37*
G36*
X10680700D02*
X10664580Y9036358D01*
X10637724Y9025234D01*
X10614662Y9007538D01*
X10596966Y8984476D01*
X10585842Y8957620D01*
X10582047Y8928800D01*
Y8826500D01*
X10680700D01*
Y9038480D01*
D02*
G37*
G36*
X16560800Y8889733D02*
Y8813800D01*
X16636732D01*
X16630942Y8835414D01*
X16619238Y8855686D01*
X16602686Y8872238D01*
X16582414Y8883942D01*
X16560800Y8889733D01*
D02*
G37*
G36*
X16535400D02*
X16513786Y8883942D01*
X16493513Y8872238D01*
X16476962Y8855686D01*
X16465257Y8835414D01*
X16459467Y8813800D01*
X16535400D01*
Y8889733D01*
D02*
G37*
G36*
X16865601Y9025380D02*
Y8813399D01*
X16964253D01*
Y8915700D01*
X16960458Y8944520D01*
X16949335Y8971376D01*
X16931638Y8994438D01*
X16908575Y9012134D01*
X16881720Y9023258D01*
X16865601Y9025380D01*
D02*
G37*
G36*
X16840199D02*
X16824080Y9023258D01*
X16797224Y9012134D01*
X16774162Y8994438D01*
X16756467Y8971376D01*
X16745341Y8944520D01*
X16741547Y8915700D01*
Y8813399D01*
X16840199D01*
Y9025380D01*
D02*
G37*
G36*
X16265601Y9050420D02*
Y8813397D01*
X16369296D01*
Y8935697D01*
X16365331Y8965822D01*
X16353702Y8993895D01*
X16335205Y9018001D01*
X16311099Y9036498D01*
X16283026Y9048126D01*
X16265601Y9050420D01*
D02*
G37*
G36*
X16240201Y9050421D02*
X16222775Y9048126D01*
X16194704Y9036498D01*
X16170596Y9018001D01*
X16152100Y8993895D01*
X16140471Y8965822D01*
X16136505Y8935697D01*
Y8813397D01*
X16240201D01*
Y9050421D01*
D02*
G37*
G36*
X16636732Y8788400D02*
X16560800D01*
Y8712467D01*
X16582414Y8718258D01*
X16602686Y8729962D01*
X16619238Y8746514D01*
X16630942Y8766786D01*
X16636732Y8788400D01*
D02*
G37*
G36*
X16535400D02*
X16459467D01*
X16465257Y8766786D01*
X16476962Y8746514D01*
X16493513Y8729962D01*
X16513786Y8718258D01*
X16535400Y8712467D01*
Y8788400D01*
D02*
G37*
G36*
X15951199Y8750033D02*
Y8674100D01*
X16027133D01*
X16021342Y8695714D01*
X16009637Y8715986D01*
X15993086Y8732538D01*
X15972813Y8744242D01*
X15951199Y8750033D01*
D02*
G37*
G36*
X15925800D02*
X15904185Y8744242D01*
X15883914Y8732538D01*
X15867361Y8715986D01*
X15855658Y8695714D01*
X15849867Y8674100D01*
X15925800D01*
Y8750033D01*
D02*
G37*
G36*
X11010900Y8724633D02*
Y8648700D01*
X11086833D01*
X11081042Y8670314D01*
X11069338Y8690586D01*
X11052786Y8707138D01*
X11032514Y8718842D01*
X11010900Y8724633D01*
D02*
G37*
G36*
X10985500D02*
X10963886Y8718842D01*
X10943614Y8707138D01*
X10927062Y8690586D01*
X10915358Y8670314D01*
X10909567Y8648700D01*
X10985500D01*
Y8724633D01*
D02*
G37*
G36*
X17170399Y8711933D02*
Y8636000D01*
X17246333D01*
X17240543Y8657614D01*
X17228838Y8677886D01*
X17212286Y8694438D01*
X17192014Y8706142D01*
X17170399Y8711933D01*
D02*
G37*
G36*
X17145000D02*
X17123386Y8706142D01*
X17103114Y8694438D01*
X17086562Y8677886D01*
X17074858Y8657614D01*
X17069067Y8636000D01*
X17145000D01*
Y8711933D01*
D02*
G37*
G36*
X10804753Y8801100D02*
X10706100D01*
Y8589120D01*
X10722220Y8591242D01*
X10749076Y8602366D01*
X10772138Y8620062D01*
X10789834Y8643124D01*
X10800958Y8669980D01*
X10804753Y8698800D01*
Y8801100D01*
D02*
G37*
G36*
X16964253Y8787999D02*
X16865601D01*
Y8576020D01*
X16881720Y8578142D01*
X16908575Y8589266D01*
X16931638Y8606962D01*
X16949335Y8630024D01*
X16960458Y8656880D01*
X16964253Y8685700D01*
Y8787999D01*
D02*
G37*
G36*
X16840199D02*
X16741547D01*
Y8685700D01*
X16745341Y8656880D01*
X16756467Y8630024D01*
X16774162Y8606962D01*
X16797224Y8589266D01*
X16824080Y8578142D01*
X16840199Y8576020D01*
Y8787999D01*
D02*
G37*
G36*
X16027133Y8648700D02*
X15951199D01*
Y8572767D01*
X15972813Y8578558D01*
X15993086Y8590262D01*
X16009637Y8606814D01*
X16021342Y8627086D01*
X16027133Y8648700D01*
D02*
G37*
G36*
X15925800D02*
X15849867D01*
X15855658Y8627086D01*
X15867361Y8606814D01*
X15883914Y8590262D01*
X15904185Y8578558D01*
X15925800Y8572767D01*
Y8648700D01*
D02*
G37*
G36*
X11280699Y8801103D02*
X11177004D01*
Y8678803D01*
X11180970Y8648678D01*
X11192598Y8620605D01*
X11211095Y8596499D01*
X11235201Y8578002D01*
X11263274Y8566374D01*
X11280699Y8564079D01*
Y8801103D01*
D02*
G37*
G36*
X10377800Y10438882D02*
X10345064Y10434572D01*
X10314559Y10421937D01*
X10306561Y10415800D01*
X10235900D01*
Y10302684D01*
X10234202Y10289784D01*
X10234202Y10289782D01*
Y10045409D01*
X10234202Y10045407D01*
X10234818Y10040727D01*
Y9960602D01*
X10234817Y9960600D01*
X10235900Y9952378D01*
Y9840700D01*
X10251318D01*
Y9679200D01*
X10235900D01*
Y9472400D01*
X10251318D01*
Y8684902D01*
X10251318Y8684900D01*
X10255628Y8652164D01*
X10268263Y8621659D01*
X10288363Y8595464D01*
X10629460Y8254368D01*
X10629460Y8254367D01*
X10655656Y8234266D01*
X10686161Y8221631D01*
X10718897Y8217321D01*
X10718899Y8217321D01*
X11018401D01*
X11051137Y8221631D01*
X11077258Y8232451D01*
X11133400D01*
X11162221Y8236245D01*
X11189077Y8247369D01*
X11212139Y8265065D01*
X11229835Y8288127D01*
X11231611Y8292416D01*
X11426110D01*
X11445776Y8296328D01*
X11462447Y8307467D01*
X11491736Y8336757D01*
X11493319Y8339125D01*
X11516493Y8341407D01*
X11562800Y8295100D01*
X11607800D01*
Y8445500D01*
Y8595900D01*
X11562800D01*
X11523417Y8556517D01*
X11506787Y8563405D01*
Y8762327D01*
X11524008Y8764208D01*
Y8764208D01*
X11696008D01*
X11704808Y8764208D01*
X11715629D01*
X11728358Y8751480D01*
Y8572240D01*
X11728516Y8571041D01*
X11711467Y8562633D01*
X11678200Y8595900D01*
X11633200D01*
Y8458200D01*
X11735900D01*
Y8497666D01*
X11753900Y8505576D01*
X11760596Y8499429D01*
X11758104Y8480500D01*
Y8410500D01*
X11762070Y8380374D01*
X11773699Y8352302D01*
X11792196Y8328196D01*
X11816302Y8309698D01*
X11844375Y8298070D01*
X11874500Y8294104D01*
X11904625Y8298070D01*
X11932698Y8309698D01*
X11956804Y8328196D01*
X11975301Y8352302D01*
X11986930Y8380374D01*
X11990896Y8410500D01*
Y8480500D01*
X11986930Y8510626D01*
X11975301Y8538698D01*
X11956804Y8562804D01*
X11932698Y8581302D01*
X11904625Y8592930D01*
X11889245Y8594955D01*
X11880459Y8603741D01*
Y8764208D01*
X11894808D01*
Y8965008D01*
X11722808D01*
X11709408Y8965008D01*
X11696008Y8965008D01*
X11524008D01*
Y8915995D01*
X11484690D01*
X11465024Y8912084D01*
X11448353Y8900944D01*
X11427795Y8880386D01*
X11409795Y8887842D01*
Y8948803D01*
X11405829Y8978928D01*
X11394200Y9007000D01*
X11375703Y9031107D01*
X11351597Y9049604D01*
X11323524Y9061232D01*
X11306099Y9063526D01*
Y8813803D01*
Y8564079D01*
X11323524Y8566374D01*
X11351597Y8578002D01*
X11375703Y8596499D01*
X11386013Y8609935D01*
X11404013Y8603825D01*
Y8395190D01*
X11231611D01*
X11229835Y8399480D01*
X11212139Y8422541D01*
X11189077Y8440237D01*
X11162221Y8451362D01*
X11133400Y8455156D01*
X11077258D01*
X11051137Y8465975D01*
X11018401Y8470285D01*
X10771287D01*
X10669078Y8572494D01*
X10677486Y8589543D01*
X10680700Y8589120D01*
Y8801100D01*
X10582047D01*
Y8698800D01*
X10584143Y8682886D01*
X10567094Y8674479D01*
X10504282Y8737291D01*
Y9472400D01*
X10519700D01*
Y9679200D01*
X10504282D01*
Y9840700D01*
X10519700D01*
Y10047500D01*
X10487425D01*
X10487166Y10049470D01*
Y10209000D01*
X10519700D01*
Y10415800D01*
X10449039D01*
X10441041Y10421937D01*
X10410536Y10434572D01*
X10377800Y10438882D01*
D02*
G37*
G36*
X11086833Y8623300D02*
X11010900D01*
Y8547367D01*
X11032514Y8553158D01*
X11052786Y8564862D01*
X11069338Y8581414D01*
X11081042Y8601686D01*
X11086833Y8623300D01*
D02*
G37*
G36*
X10985500D02*
X10909567D01*
X10915358Y8601686D01*
X10927062Y8581414D01*
X10943614Y8564862D01*
X10963886Y8553158D01*
X10985500Y8547367D01*
Y8623300D01*
D02*
G37*
G36*
X17246333Y8610600D02*
X17170399D01*
Y8534667D01*
X17192014Y8540458D01*
X17212286Y8552162D01*
X17228838Y8568714D01*
X17240543Y8588986D01*
X17246333Y8610600D01*
D02*
G37*
G36*
X17145000D02*
X17069067D01*
X17074858Y8588986D01*
X17086562Y8568714D01*
X17103114Y8552162D01*
X17123386Y8540458D01*
X17145000Y8534667D01*
Y8610600D01*
D02*
G37*
G36*
X15646400Y8721500D02*
X15553700D01*
Y8533801D01*
X15646400D01*
Y8721500D01*
D02*
G37*
G36*
X16369296Y8787997D02*
X16252901D01*
X16136505D01*
Y8665697D01*
X16140471Y8635572D01*
X16151636Y8608622D01*
Y8397514D01*
X16123087Y8368966D01*
X15793913D01*
X15765366Y8397514D01*
Y8516098D01*
X15765366Y8516100D01*
X15764500Y8522682D01*
Y8721500D01*
X15671800D01*
Y8521101D01*
X15659100D01*
Y8508401D01*
X15553700D01*
Y8320700D01*
X15569872D01*
X15576401Y8304935D01*
X15592494Y8283962D01*
X15680360Y8196095D01*
X15680362Y8196094D01*
X15701335Y8180001D01*
X15725758Y8169884D01*
X15751968Y8166434D01*
X15751970Y8166434D01*
X16165031D01*
X16165033Y8166434D01*
X16191243Y8169884D01*
X16215666Y8180001D01*
X16236639Y8196094D01*
X16324506Y8283961D01*
X16324507Y8283962D01*
X16340601Y8304935D01*
X16350717Y8329358D01*
X16354167Y8355568D01*
X16354167Y8355570D01*
Y8608622D01*
X16365331Y8635572D01*
X16369296Y8665697D01*
Y8787997D01*
D02*
G37*
G36*
X11735900Y8432800D02*
X11633200D01*
Y8295100D01*
X11678200D01*
X11735900Y8352800D01*
Y8432800D01*
D02*
G37*
G36*
X9817100Y11988533D02*
Y11912600D01*
X9893033D01*
X9887242Y11934214D01*
X9875538Y11954486D01*
X9858986Y11971038D01*
X9838714Y11982742D01*
X9817100Y11988533D01*
D02*
G37*
G36*
X9791700D02*
X9770086Y11982742D01*
X9749814Y11971038D01*
X9733262Y11954486D01*
X9721558Y11934214D01*
X9715767Y11912600D01*
X9791700D01*
Y11988533D01*
D02*
G37*
G36*
X9893033Y11887200D02*
X9817100D01*
Y11811267D01*
X9838714Y11817058D01*
X9858986Y11828762D01*
X9875538Y11845314D01*
X9887242Y11865586D01*
X9893033Y11887200D01*
D02*
G37*
G36*
X9791700D02*
X9715767D01*
X9721558Y11865586D01*
X9733262Y11845314D01*
X9749814Y11828762D01*
X9770086Y11817058D01*
X9791700Y11811267D01*
Y11887200D01*
D02*
G37*
G36*
X7874000Y12141787D02*
X3022600D01*
X3002935Y12137876D01*
X2986264Y12126736D01*
X2938497Y12078969D01*
X2927357Y12062298D01*
X2923446Y12042633D01*
Y12039600D01*
X2908300D01*
X2857500Y11988800D01*
Y11836400D01*
X2908300Y11785600D01*
X3009900D01*
X3060700Y11836400D01*
Y11988800D01*
X3027186Y12022314D01*
X3043885Y12039013D01*
X3138195D01*
X3145083Y12022383D01*
X3111500Y11988800D01*
Y11836400D01*
X3137049Y11810851D01*
Y11702801D01*
X3108524Y11674276D01*
X3096438Y11658525D01*
X3088841Y11640183D01*
X3086249Y11620500D01*
Y11516500D01*
X2886900D01*
Y11165700D01*
X3235027D01*
X3618964Y10781764D01*
X3645159Y10761663D01*
X3675664Y10749028D01*
X3708400Y10744718D01*
X3708402Y10744718D01*
X4187009D01*
X4492318Y10439409D01*
Y10405302D01*
X4492318Y10405300D01*
X4493400Y10397080D01*
Y10185400D01*
X4752200D01*
Y10617200D01*
X4672273D01*
X4328836Y10960636D01*
X4302641Y10980737D01*
X4272136Y10993372D01*
X4239400Y10997682D01*
X4239398Y10997682D01*
X3760791D01*
X3437700Y11320773D01*
Y11516500D01*
X3238351D01*
Y11588999D01*
X3266876Y11617524D01*
X3278962Y11633275D01*
X3286559Y11651617D01*
X3289151Y11671300D01*
Y11810851D01*
X3314700Y11836400D01*
Y11988800D01*
X3281117Y12022383D01*
X3288005Y12039013D01*
X3392195D01*
X3399083Y12022383D01*
X3365500Y11988800D01*
Y11836400D01*
X3416300Y11785600D01*
X3517900D01*
X3568700Y11836400D01*
Y11988800D01*
X3535117Y12022383D01*
X3542005Y12039013D01*
X5128583D01*
X5145500Y12036400D01*
X5145500Y12021013D01*
Y11598700D01*
X5720899D01*
X6296298D01*
Y12021013D01*
X6296298Y12036400D01*
X6313216Y12039013D01*
X6532383D01*
X6549301Y12036400D01*
X6549301Y12021013D01*
Y11598701D01*
X7124700D01*
Y11586001D01*
D01*
Y11598701D01*
X7700099D01*
Y12021013D01*
X7700099Y12036400D01*
X7717017Y12039013D01*
X7852715D01*
X8002764Y11888964D01*
X8019435Y11877824D01*
X8039100Y11873913D01*
X8179318D01*
Y11850300D01*
X8180400Y11842081D01*
Y11792816D01*
X8179318Y11784597D01*
Y11736988D01*
X7924264Y11481934D01*
X7904163Y11455738D01*
X7891528Y11425233D01*
X7887218Y11392497D01*
X7887218Y11392495D01*
Y11054774D01*
X7746992D01*
X7720782Y11051324D01*
X7702879Y11043908D01*
X7646592D01*
Y10960089D01*
X7645726Y10953508D01*
X7646592Y10946927D01*
Y10863109D01*
X7632133Y10854559D01*
X7628293D01*
X7507076Y10975776D01*
X7491325Y10987862D01*
X7472984Y10995459D01*
X7453300Y10998051D01*
X7353300D01*
X7333617Y10995459D01*
X7322872Y10991009D01*
X7315275Y10987862D01*
X7299524Y10975776D01*
X7240924Y10917176D01*
X7228838Y10901425D01*
X7221240Y10883083D01*
X7218649Y10863400D01*
Y10734648D01*
X7201099Y10733560D01*
X7200300Y10733560D01*
X7137400D01*
Y10554019D01*
Y10374478D01*
X7200300D01*
X7201099Y10374478D01*
X7218300D01*
X7219100Y10374478D01*
X7371099D01*
Y10374477D01*
X7388300D01*
Y10374478D01*
X7451999D01*
Y10554019D01*
X7464699D01*
Y10566719D01*
X7541099D01*
Y10703515D01*
X7558767Y10712646D01*
X7566364Y10709499D01*
X7577109Y10705049D01*
X7596792Y10702457D01*
X7646592D01*
Y10673108D01*
X7670941D01*
Y10637492D01*
X7646592D01*
Y10465492D01*
X7646592Y10452092D01*
X7646592Y10438692D01*
Y10369792D01*
X7746992D01*
X7847392D01*
Y10438692D01*
X7847392Y10452092D01*
X7847392Y10465492D01*
Y10637492D01*
X7823043D01*
Y10673108D01*
X7847392D01*
Y10852242D01*
X7887218D01*
Y9605648D01*
X7844152Y9562582D01*
X7703900D01*
Y9731500D01*
X7363100D01*
Y9140700D01*
X7703900D01*
Y9309618D01*
X7896540D01*
X7896542Y9309618D01*
X7929279Y9313928D01*
X7959783Y9326563D01*
X7985979Y9346664D01*
X8103136Y9463821D01*
X8123237Y9490017D01*
X8135872Y9520521D01*
X8140182Y9553257D01*
X8140182Y9553260D01*
Y10960100D01*
Y11340106D01*
X8359273Y11559197D01*
X8431200D01*
Y11676377D01*
X8432282Y11684597D01*
X8432282Y11684599D01*
Y11784597D01*
X8431200Y11792816D01*
Y11831124D01*
X8436993Y11836918D01*
X8672509D01*
X8699267Y11810160D01*
X8725462Y11790060D01*
X8755968Y11777424D01*
X8788704Y11773114D01*
X8788706Y11773115D01*
X9174599D01*
X9207335Y11777425D01*
X9233457Y11788244D01*
X9289599D01*
X9318419Y11792038D01*
X9345275Y11803163D01*
X9368337Y11820859D01*
X9386033Y11843920D01*
X9397157Y11870777D01*
X9400952Y11899597D01*
X9397157Y11928417D01*
X9386033Y11955273D01*
X9368337Y11978335D01*
X9345275Y11996031D01*
X9318419Y12007155D01*
X9289599Y12010949D01*
X9233457D01*
X9207335Y12021769D01*
X9174599Y12026079D01*
X8841094D01*
X8814337Y12052836D01*
X8788141Y12072937D01*
X8757636Y12085572D01*
X8724900Y12089882D01*
X8724898Y12089882D01*
X8384605D01*
X8384603Y12089882D01*
X8351867Y12085572D01*
X8321362Y12072937D01*
X8295166Y12052836D01*
X8295166Y12052835D01*
X8252327Y12009997D01*
X8180400D01*
Y11976687D01*
X8060385D01*
X7910336Y12126736D01*
X7893665Y12137876D01*
X7874000Y12141787D01*
D02*
G37*
G36*
X3568700Y11683733D02*
Y11607800D01*
X3644633D01*
X3638842Y11629414D01*
X3627138Y11649686D01*
X3610586Y11666238D01*
X3590314Y11677942D01*
X3568700Y11683733D01*
D02*
G37*
G36*
X3543300D02*
X3521686Y11677942D01*
X3501414Y11666238D01*
X3484862Y11649686D01*
X3473158Y11629414D01*
X3467367Y11607800D01*
X3543300D01*
Y11683733D01*
D02*
G37*
G36*
X4965700Y12014200D02*
X4381500D01*
Y11557000D01*
X4965700D01*
Y12014200D01*
D02*
G37*
G36*
X4356100D02*
X3771900D01*
Y11557000D01*
X4356100D01*
Y12014200D01*
D02*
G37*
G36*
X3644633Y11582400D02*
X3568700D01*
Y11506467D01*
X3590314Y11512258D01*
X3610586Y11523962D01*
X3627138Y11540514D01*
X3638842Y11560786D01*
X3644633Y11582400D01*
D02*
G37*
G36*
X3543300D02*
X3467367D01*
X3473158Y11560786D01*
X3484862Y11540514D01*
X3501414Y11523962D01*
X3521686Y11512258D01*
X3543300Y11506467D01*
Y11582400D01*
D02*
G37*
G36*
X9194800Y11531333D02*
Y11455400D01*
X9270733D01*
X9264942Y11477014D01*
X9253238Y11497286D01*
X9236686Y11513838D01*
X9216414Y11525542D01*
X9194800Y11531333D01*
D02*
G37*
G36*
X9169400D02*
X9147786Y11525542D01*
X9127514Y11513838D01*
X9110962Y11497286D01*
X9099258Y11477014D01*
X9093467Y11455400D01*
X9169400D01*
Y11531333D01*
D02*
G37*
G36*
X8623300Y11518633D02*
Y11442700D01*
X8699233D01*
X8693442Y11464314D01*
X8681738Y11484586D01*
X8665186Y11501138D01*
X8644914Y11512842D01*
X8623300Y11518633D01*
D02*
G37*
G36*
X8597900D02*
X8576286Y11512842D01*
X8556014Y11501138D01*
X8539462Y11484586D01*
X8527758Y11464314D01*
X8521967Y11442700D01*
X8597900D01*
Y11518633D01*
D02*
G37*
G36*
X9512300Y11654280D02*
Y11442299D01*
X9610953D01*
Y11544600D01*
X9607158Y11573420D01*
X9596034Y11600276D01*
X9578338Y11623338D01*
X9555276Y11641034D01*
X9528420Y11652158D01*
X9512300Y11654280D01*
D02*
G37*
G36*
X9486900D02*
X9470780Y11652158D01*
X9443924Y11641034D01*
X9420862Y11623338D01*
X9403166Y11600276D01*
X9392042Y11573420D01*
X9388247Y11544600D01*
Y11442299D01*
X9486900D01*
Y11654280D01*
D02*
G37*
G36*
X8912301Y11679320D02*
Y11442298D01*
X9015996D01*
Y11564597D01*
X9012030Y11594722D01*
X9000402Y11622795D01*
X8981905Y11646901D01*
X8957799Y11665398D01*
X8929726Y11677026D01*
X8912301Y11679320D01*
D02*
G37*
G36*
X8886901Y11679321D02*
X8869476Y11677026D01*
X8841403Y11665398D01*
X8817297Y11646901D01*
X8798800Y11622795D01*
X8787171Y11594722D01*
X8783205Y11564597D01*
Y11442298D01*
X8886901D01*
Y11679321D01*
D02*
G37*
G36*
X9817100Y11442433D02*
Y11366500D01*
X9893033D01*
X9887242Y11388114D01*
X9875538Y11408386D01*
X9858986Y11424938D01*
X9838714Y11436642D01*
X9817100Y11442433D01*
D02*
G37*
G36*
X9791700D02*
X9770086Y11436642D01*
X9749814Y11424938D01*
X9733262Y11408386D01*
X9721558Y11388114D01*
X9715767Y11366500D01*
X9791700D01*
Y11442433D01*
D02*
G37*
G36*
X9270733Y11430000D02*
X9194800D01*
Y11354067D01*
X9216414Y11359858D01*
X9236686Y11371562D01*
X9253238Y11388114D01*
X9264942Y11408386D01*
X9270733Y11430000D01*
D02*
G37*
G36*
X9169400D02*
X9093467D01*
X9099258Y11408386D01*
X9110962Y11388114D01*
X9127514Y11371562D01*
X9147786Y11359858D01*
X9169400Y11354067D01*
Y11430000D01*
D02*
G37*
G36*
X8699233Y11417300D02*
X8623300D01*
Y11341367D01*
X8644914Y11347158D01*
X8665186Y11358862D01*
X8681738Y11375414D01*
X8693442Y11395686D01*
X8699233Y11417300D01*
D02*
G37*
G36*
X8597900D02*
X8521967D01*
X8527758Y11395686D01*
X8539462Y11375414D01*
X8556014Y11358862D01*
X8576286Y11347158D01*
X8597900Y11341367D01*
Y11417300D01*
D02*
G37*
G36*
X9893033Y11341100D02*
X9817100D01*
Y11265167D01*
X9838714Y11270958D01*
X9858986Y11282662D01*
X9875538Y11299214D01*
X9887242Y11319486D01*
X9893033Y11341100D01*
D02*
G37*
G36*
X9791700D02*
X9715767D01*
X9721558Y11319486D01*
X9733262Y11299214D01*
X9749814Y11282662D01*
X9770086Y11270958D01*
X9791700Y11265167D01*
Y11341100D01*
D02*
G37*
G36*
X9610953Y11416899D02*
X9512300D01*
Y11204920D01*
X9528420Y11207042D01*
X9555276Y11218166D01*
X9578338Y11235862D01*
X9596034Y11258924D01*
X9607158Y11285780D01*
X9610953Y11314600D01*
Y11416899D01*
D02*
G37*
G36*
X9486900D02*
X9388247D01*
Y11314600D01*
X9392042Y11285780D01*
X9403166Y11258924D01*
X9420862Y11235862D01*
X9443924Y11218166D01*
X9470780Y11207042D01*
X9486900Y11204920D01*
Y11416899D01*
D02*
G37*
G36*
X9015996Y11416898D02*
X8912301D01*
Y11179874D01*
X8929726Y11182168D01*
X8957799Y11193796D01*
X8981905Y11212293D01*
X9000402Y11236400D01*
X9012030Y11264472D01*
X9015996Y11294597D01*
Y11416898D01*
D02*
G37*
G36*
X8886901D02*
X8783205D01*
Y11294597D01*
X8787171Y11264472D01*
X8798800Y11236400D01*
X8817297Y11212293D01*
X8841403Y11193796D01*
X8869476Y11182168D01*
X8886901Y11179874D01*
Y11416898D01*
D02*
G37*
G36*
X7700099Y11573301D02*
X7137400D01*
Y11135602D01*
X7700099D01*
Y11573301D01*
D02*
G37*
G36*
X7112000D02*
X6549301D01*
Y11135602D01*
X7112000D01*
Y11573301D01*
D02*
G37*
G36*
X5708199Y11573300D02*
X5145500D01*
Y11135602D01*
X5708199D01*
Y11573300D01*
D02*
G37*
G36*
X6426192Y11209008D02*
Y11131308D01*
X6513892D01*
Y11209008D01*
X6426192D01*
D02*
G37*
G36*
X6296298Y11573300D02*
X5733599D01*
Y11135602D01*
X6295092D01*
X6296298Y11135601D01*
X6313092Y11132690D01*
Y11131308D01*
X6400792D01*
Y11209008D01*
X6314298D01*
X6313092Y11209008D01*
X6296298Y11211920D01*
Y11573300D01*
D02*
G37*
G36*
X8431200Y11299997D02*
X8318500D01*
Y11087297D01*
X8431200D01*
Y11299997D01*
D02*
G37*
G36*
X8293100D02*
X8180400D01*
Y11087297D01*
X8293100D01*
Y11299997D01*
D02*
G37*
G36*
X4965700Y11531600D02*
X4381500D01*
Y11074400D01*
X4965700D01*
Y11531600D01*
D02*
G37*
G36*
X4356100D02*
X3771900D01*
Y11074400D01*
X4356100D01*
Y11531600D01*
D02*
G37*
G36*
X8431200Y11061897D02*
X8318500D01*
Y10849197D01*
X8431200D01*
Y11061897D01*
D02*
G37*
G36*
X8293100D02*
X8180400D01*
Y10849197D01*
X8293100D01*
Y11061897D01*
D02*
G37*
G36*
X9817100Y10896333D02*
Y10820400D01*
X9893033D01*
X9887242Y10842014D01*
X9875538Y10862286D01*
X9858986Y10878838D01*
X9838714Y10890542D01*
X9817100Y10896333D01*
D02*
G37*
G36*
X9791700D02*
X9770086Y10890542D01*
X9749814Y10878838D01*
X9733262Y10862286D01*
X9721558Y10842014D01*
X9715767Y10820400D01*
X9791700D01*
Y10896333D01*
D02*
G37*
G36*
X5016500Y10883633D02*
Y10807700D01*
X5092433D01*
X5086642Y10829314D01*
X5074938Y10849586D01*
X5058386Y10866138D01*
X5038114Y10877842D01*
X5016500Y10883633D01*
D02*
G37*
G36*
X4991100D02*
X4969486Y10877842D01*
X4949214Y10866138D01*
X4932662Y10849586D01*
X4920958Y10829314D01*
X4915167Y10807700D01*
X4991100D01*
Y10883633D01*
D02*
G37*
G36*
X9893033Y10795000D02*
X9817100D01*
Y10719067D01*
X9838714Y10724858D01*
X9858986Y10736562D01*
X9875538Y10753114D01*
X9887242Y10773386D01*
X9893033Y10795000D01*
D02*
G37*
G36*
X9791700D02*
X9715767D01*
X9721558Y10773386D01*
X9733262Y10753114D01*
X9749814Y10736562D01*
X9770086Y10724858D01*
X9791700Y10719067D01*
Y10795000D01*
D02*
G37*
G36*
X5092433Y10782300D02*
X5016500D01*
Y10706367D01*
X5038114Y10712158D01*
X5058386Y10723862D01*
X5074938Y10740414D01*
X5086642Y10760686D01*
X5092433Y10782300D01*
D02*
G37*
G36*
X4991100D02*
X4915167D01*
X4920958Y10760686D01*
X4932662Y10740414D01*
X4949214Y10723862D01*
X4969486Y10712158D01*
X4991100Y10706367D01*
Y10782300D01*
D02*
G37*
G36*
X8851900Y10908966D02*
X8825691Y10905516D01*
X8801267Y10895399D01*
X8780294Y10879306D01*
X8776771Y10875783D01*
X8760678Y10854810D01*
X8750561Y10830387D01*
X8747110Y10804177D01*
X8747111Y10804175D01*
Y10683524D01*
X8431200D01*
Y10701897D01*
X8180400D01*
Y10251097D01*
X8431200D01*
Y10480992D01*
X9036218D01*
X9036220Y10480992D01*
X9044690Y10482107D01*
X9059600Y10480144D01*
X9289599D01*
X9318419Y10483938D01*
X9345275Y10495063D01*
X9368337Y10512759D01*
X9386033Y10535820D01*
X9397157Y10562677D01*
X9400952Y10591497D01*
X9397157Y10620317D01*
X9386033Y10647173D01*
X9368337Y10670235D01*
X9345275Y10687931D01*
X9318419Y10699055D01*
X9289599Y10702849D01*
X9059600D01*
X9030779Y10699055D01*
X9003923Y10687931D01*
X8998181Y10683524D01*
X8949643D01*
Y10781315D01*
X8949716Y10781491D01*
X8953166Y10807700D01*
X8949716Y10833910D01*
X8939599Y10858333D01*
X8923506Y10879306D01*
X8902533Y10895399D01*
X8878110Y10905516D01*
X8851900Y10908966D01*
D02*
G37*
G36*
X6137298Y10733560D02*
X6073598D01*
Y10566719D01*
X6137298D01*
Y10733560D01*
D02*
G37*
G36*
X6513892Y11105908D02*
X6413492D01*
X6313092D01*
Y11037008D01*
X6313092Y11028208D01*
Y11017387D01*
X6300364Y11004659D01*
X6039108D01*
X6019425Y11002067D01*
X6001083Y10994470D01*
X5985332Y10982384D01*
X5838122Y10835174D01*
X5826036Y10819423D01*
X5818439Y10801082D01*
X5815847Y10781398D01*
Y10734908D01*
X5814499Y10733560D01*
X5797299D01*
X5796499Y10733560D01*
X5733599D01*
Y10554019D01*
Y10374478D01*
X5796499D01*
X5797299Y10374478D01*
X5814499D01*
X5815299Y10374478D01*
X5966499D01*
X5967298Y10374478D01*
Y10374477D01*
X5984500D01*
Y10374478D01*
X6048198D01*
Y10554019D01*
X6060898D01*
D01*
X6048198D01*
Y10733560D01*
X5984499D01*
Y10733560D01*
X5976201Y10735315D01*
X5972539Y10754488D01*
X6070609Y10852557D01*
X6313092D01*
Y10838208D01*
X6337441D01*
Y10802592D01*
X6313092D01*
Y10621793D01*
X6313092Y10621792D01*
Y10612591D01*
X6313092D01*
X6313092Y10603792D01*
Y10565004D01*
X6153928Y10405840D01*
X6137298Y10412728D01*
Y10541319D01*
X6073598D01*
Y10374478D01*
X6099047D01*
X6105936Y10357848D01*
X5948194Y10200106D01*
X5947843Y10199649D01*
X5932244Y10205643D01*
X5930793Y10206998D01*
Y10223500D01*
X5867400D01*
Y10170107D01*
X5894700D01*
X5908512Y10172854D01*
X5910593Y10174244D01*
X5925133Y10162311D01*
X5921984Y10154710D01*
X5918534Y10128500D01*
X5918534Y10128498D01*
Y9744200D01*
X5849400D01*
Y9153400D01*
X6190200D01*
Y9744200D01*
X6121066D01*
Y10086554D01*
X6413492Y10378980D01*
X6464296Y10328175D01*
X6465501Y10325267D01*
X6481167Y10304851D01*
X6480785Y10302231D01*
X6474758Y10286851D01*
X6408879D01*
X6389195Y10284259D01*
X6370853Y10276662D01*
X6355103Y10264576D01*
X6232724Y10142197D01*
X6220638Y10126447D01*
X6213041Y10108105D01*
X6210449Y10088421D01*
Y8610082D01*
X5043491D01*
X4863582Y8789991D01*
Y9148132D01*
X4879400Y9153400D01*
Y9153400D01*
X5220200D01*
Y9636648D01*
X5603676Y10020124D01*
X5615762Y10035875D01*
X5618909Y10043472D01*
X5623359Y10054217D01*
X5625951Y10073900D01*
Y10205985D01*
X5625993Y10206200D01*
Y10266200D01*
X5625951Y10266415D01*
Y10373129D01*
X5627299Y10374478D01*
X5644500D01*
X5645299Y10374478D01*
X5708199D01*
Y10554019D01*
Y10733560D01*
X5645299D01*
X5644500Y10733560D01*
X5627299D01*
X5626500Y10733560D01*
X5474500D01*
Y10733561D01*
X5457299D01*
Y10733560D01*
X5456500Y10733560D01*
X5304500D01*
Y10629411D01*
X5302162Y10627617D01*
X4699980Y10025435D01*
X4673859Y10014615D01*
X4647664Y9994515D01*
X4627563Y9968320D01*
X4614928Y9937815D01*
X4610618Y9905078D01*
Y9740382D01*
X4191000D01*
X4158264Y9736072D01*
X4127759Y9723437D01*
X4117416Y9715500D01*
X4114800D01*
X4106175Y9706875D01*
X4101564Y9703336D01*
X4098025Y9698725D01*
X4064000Y9664700D01*
Y9563100D01*
X4098025Y9529075D01*
X4101564Y9524464D01*
X4106175Y9520925D01*
X4114800Y9512300D01*
X4121297Y9504382D01*
X4113053Y9486382D01*
X3715291D01*
X3594400Y9607273D01*
Y9679200D01*
X3578982D01*
Y9840700D01*
X3594400D01*
Y10047500D01*
X3578982D01*
Y10198670D01*
X3596982Y10201040D01*
X3600158Y10189186D01*
X3611862Y10168914D01*
X3628414Y10152362D01*
X3631613Y10150515D01*
Y10071100D01*
X3635524Y10051435D01*
X3646664Y10034764D01*
X3684756Y9996672D01*
X3701427Y9985532D01*
X3721092Y9981621D01*
X3751608D01*
Y9932608D01*
X3923608D01*
X3937008Y9932608D01*
X3950408Y9932608D01*
X4279208D01*
X4292608Y9932608D01*
X4306008Y9932608D01*
X4374908D01*
Y10033008D01*
Y10133408D01*
X4306008D01*
X4292608Y10133408D01*
X4279208Y10133408D01*
X4166187D01*
Y10185400D01*
X4244200D01*
Y10617200D01*
X3985400D01*
Y10185400D01*
X4063413D01*
Y10133408D01*
X3950408D01*
X3937008Y10133408D01*
X3923608Y10133408D01*
X3751608D01*
Y10133408D01*
X3740809Y10134588D01*
X3738329Y10148264D01*
X3738203Y10152979D01*
X3754138Y10168914D01*
X3765842Y10189186D01*
X3771900Y10211796D01*
Y10235204D01*
X3765842Y10257814D01*
X3754138Y10278086D01*
X3737586Y10294638D01*
X3717314Y10306342D01*
X3694704Y10312400D01*
X3671296D01*
X3648686Y10306342D01*
X3628414Y10294638D01*
X3612400Y10278624D01*
X3609911Y10278729D01*
X3594400Y10283840D01*
Y10415800D01*
X3578982D01*
Y10542900D01*
X3574672Y10575636D01*
X3562037Y10606141D01*
X3541937Y10632336D01*
X3541936Y10632337D01*
X3419381Y10754892D01*
X3425133Y10765653D01*
X3435162Y10798716D01*
X3438549Y10833100D01*
X3435162Y10867484D01*
X3425133Y10900547D01*
X3408845Y10931019D01*
X3386927Y10957727D01*
X3360219Y10979645D01*
X3329747Y10995933D01*
X3296685Y11005962D01*
X3262300Y11009349D01*
X3062300D01*
X3027915Y11005962D01*
X2994853Y10995933D01*
X2964381Y10979645D01*
X2937673Y10957727D01*
X2915755Y10931019D01*
X2899467Y10900547D01*
X2889438Y10867484D01*
X2886051Y10833100D01*
X2889438Y10798716D01*
X2899467Y10765653D01*
X2915755Y10735181D01*
X2937673Y10708473D01*
X2964381Y10686555D01*
X2994853Y10670267D01*
X3027915Y10660238D01*
X3062300Y10656851D01*
X3169359D01*
X3171897Y10650725D01*
X3191997Y10624530D01*
X3326018Y10490509D01*
Y10415800D01*
X3310600D01*
Y10209000D01*
X3326018D01*
Y10047500D01*
X3310600D01*
Y9840700D01*
X3326018D01*
Y9679200D01*
X3310600D01*
Y9472400D01*
X3371527D01*
X3573463Y9270465D01*
X3573464Y9270464D01*
X3599659Y9250363D01*
X3630164Y9237728D01*
X3662900Y9233418D01*
X3662902Y9233418D01*
X4191000D01*
X4223736Y9237728D01*
X4254241Y9250363D01*
X4264584Y9258300D01*
X4267200D01*
X4275825Y9266925D01*
X4280436Y9270464D01*
X4283975Y9275075D01*
X4318000Y9309100D01*
Y9410700D01*
X4283975Y9444725D01*
X4280436Y9449336D01*
X4275825Y9452875D01*
X4267200Y9461500D01*
X4260703Y9469418D01*
X4268947Y9487418D01*
X4610618D01*
Y8737602D01*
X4610618Y8737600D01*
X4614928Y8704864D01*
X4627563Y8674359D01*
X4647664Y8648164D01*
X4901663Y8394165D01*
X4901664Y8394164D01*
X4927859Y8374063D01*
X4958364Y8361428D01*
X4991100Y8357118D01*
X4991102Y8357118D01*
X7721598D01*
X7721600Y8357118D01*
X7754336Y8361428D01*
X7784841Y8374063D01*
X7811036Y8394164D01*
X8297573Y8880700D01*
X8411200D01*
Y8957467D01*
X8415337Y8962859D01*
X8427972Y8993364D01*
X8432282Y9026100D01*
Y9081100D01*
X8427972Y9113836D01*
X8415337Y9144341D01*
X8412066Y9148603D01*
Y9230086D01*
X8440614Y9258634D01*
X8623038D01*
X8678754Y9202918D01*
X8678755Y9202917D01*
X8699728Y9186824D01*
X8724151Y9176708D01*
X8750361Y9173257D01*
X9006351D01*
X9030779Y9163138D01*
X9059600Y9159344D01*
X9289599D01*
X9318419Y9163138D01*
X9345275Y9174263D01*
X9368337Y9191959D01*
X9386033Y9215020D01*
X9397157Y9241877D01*
X9400952Y9270697D01*
X9397157Y9299517D01*
X9386033Y9326373D01*
X9368337Y9349435D01*
X9345275Y9367131D01*
X9318419Y9378255D01*
X9289599Y9382049D01*
X9059600D01*
X9030779Y9378255D01*
X9024827Y9375789D01*
X8792307D01*
X8736591Y9431506D01*
X8715618Y9447599D01*
X8691194Y9457716D01*
X8664984Y9461166D01*
X8664982Y9461166D01*
X8398670D01*
X8398668Y9461166D01*
X8372458Y9457716D01*
X8348035Y9447599D01*
X8327062Y9431506D01*
X8327061Y9431505D01*
X8239194Y9343638D01*
X8223101Y9322665D01*
X8212984Y9298242D01*
X8210780Y9281500D01*
X8200400D01*
Y9149733D01*
X8196263Y9144341D01*
X8185101Y9117394D01*
X8180859Y9115637D01*
X8154663Y9095536D01*
X7669209Y8610082D01*
X6362551D01*
Y10056920D01*
X6440380Y10134749D01*
X6725123D01*
X6744806Y10137341D01*
X6763148Y10144938D01*
X6778899Y10157024D01*
X6837477Y10215603D01*
X6849563Y10231353D01*
X6852710Y10238951D01*
X6857161Y10249695D01*
X6859752Y10269379D01*
Y10356627D01*
X6860650Y10357465D01*
X6878650Y10349650D01*
Y10258739D01*
X6877608Y10253500D01*
Y10193500D01*
X6877650Y10193285D01*
Y10160202D01*
X6568745Y9851297D01*
X6556659Y9835546D01*
X6549062Y9817205D01*
X6546471Y9797521D01*
Y9731500D01*
X6393100D01*
Y9140700D01*
X6733900D01*
Y9731500D01*
X6698572D01*
Y9766020D01*
X7007477Y10074925D01*
X7019563Y10090676D01*
X7022710Y10098273D01*
X7027160Y10109017D01*
X7029751Y10128701D01*
Y10193285D01*
X7029794Y10193500D01*
Y10217232D01*
X7030751Y10224499D01*
Y10373390D01*
X7048301Y10374478D01*
X7049100Y10374478D01*
X7112000D01*
Y10554019D01*
Y10733560D01*
X7049100D01*
X7048301Y10733560D01*
X7031100D01*
X7030300Y10733560D01*
X6879100D01*
X6878301Y10733560D01*
X6861100D01*
X6860301Y10733560D01*
X6708301D01*
Y10557961D01*
X6707651Y10553020D01*
Y10300880D01*
X6693622Y10286851D01*
X6631642D01*
X6625615Y10302231D01*
X6625233Y10304851D01*
X6640899Y10325267D01*
X6651016Y10349690D01*
X6654466Y10375900D01*
Y10382482D01*
X6654466Y10382484D01*
X6651016Y10408693D01*
X6640899Y10433117D01*
X6624806Y10454090D01*
X6624805Y10454091D01*
X6513892Y10565004D01*
Y10603792D01*
X6513892Y10612591D01*
X6513892D01*
Y10621793D01*
X6513892D01*
Y10802592D01*
X6489543D01*
Y10838208D01*
X6513892D01*
Y11010208D01*
X6513892Y11023608D01*
X6513892Y11037008D01*
Y11105908D01*
D02*
G37*
G36*
X7541099Y10541319D02*
X7477399D01*
Y10374478D01*
X7541099D01*
Y10541319D01*
D02*
G37*
G36*
X9817100Y10350233D02*
Y10274300D01*
X9893033D01*
X9887242Y10295914D01*
X9875538Y10316186D01*
X9858986Y10332738D01*
X9838714Y10344442D01*
X9817100Y10350233D01*
D02*
G37*
G36*
X9791700D02*
X9770086Y10344442D01*
X9749814Y10332738D01*
X9733262Y10316186D01*
X9721558Y10295914D01*
X9715767Y10274300D01*
X9791700D01*
Y10350233D01*
D02*
G37*
G36*
X7847392Y10344392D02*
X7759692D01*
Y10266692D01*
X7847392D01*
Y10344392D01*
D02*
G37*
G36*
X7734292D02*
X7646592D01*
Y10266692D01*
X7734292D01*
Y10344392D01*
D02*
G37*
G36*
X5894700Y10302293D02*
X5867400D01*
Y10248900D01*
X5930793D01*
Y10266200D01*
X5928046Y10280012D01*
X5920222Y10291722D01*
X5908512Y10299546D01*
X5894700Y10302293D01*
D02*
G37*
G36*
X5842000D02*
X5814700D01*
X5800888Y10299546D01*
X5789178Y10291722D01*
X5781354Y10280012D01*
X5778607Y10266200D01*
Y10248900D01*
X5842000D01*
Y10302293D01*
D02*
G37*
G36*
X7298501Y10289593D02*
X7271201D01*
Y10236200D01*
X7334594D01*
Y10253500D01*
X7331847Y10267312D01*
X7324023Y10279022D01*
X7312313Y10286846D01*
X7298501Y10289593D01*
D02*
G37*
G36*
X7245801D02*
X7218501D01*
X7204689Y10286846D01*
X7192979Y10279022D01*
X7185155Y10267312D01*
X7182408Y10253500D01*
Y10236200D01*
X7245801D01*
Y10289593D01*
D02*
G37*
G36*
X9893033Y10248900D02*
X9817100D01*
Y10172967D01*
X9838714Y10178758D01*
X9858986Y10190462D01*
X9875538Y10207014D01*
X9887242Y10227286D01*
X9893033Y10248900D01*
D02*
G37*
G36*
X9791700D02*
X9715767D01*
X9721558Y10227286D01*
X9733262Y10207014D01*
X9749814Y10190462D01*
X9770086Y10178758D01*
X9791700Y10172967D01*
Y10248900D01*
D02*
G37*
G36*
X9207500Y10248633D02*
Y10172700D01*
X9283433D01*
X9277642Y10194314D01*
X9265938Y10214586D01*
X9249386Y10231138D01*
X9229114Y10242842D01*
X9207500Y10248633D01*
D02*
G37*
G36*
X9182100D02*
X9160486Y10242842D01*
X9140214Y10231138D01*
X9123662Y10214586D01*
X9111958Y10194314D01*
X9106167Y10172700D01*
X9182100D01*
Y10248633D01*
D02*
G37*
G36*
X5842000Y10223500D02*
X5778607D01*
Y10206200D01*
X5781354Y10192388D01*
X5789178Y10180678D01*
X5800888Y10172854D01*
X5814700Y10170107D01*
X5842000D01*
Y10223500D01*
D02*
G37*
G36*
X7334594Y10210800D02*
X7271201D01*
Y10157407D01*
X7298501D01*
X7312313Y10160154D01*
X7324023Y10167978D01*
X7331847Y10179688D01*
X7334594Y10193500D01*
Y10210800D01*
D02*
G37*
G36*
X7245801D02*
X7182408D01*
Y10193500D01*
X7185155Y10179688D01*
X7192979Y10167978D01*
X7204689Y10160154D01*
X7218501Y10157407D01*
X7245801D01*
Y10210800D01*
D02*
G37*
G36*
X9512300Y10346180D02*
Y10134199D01*
X9610953D01*
Y10236500D01*
X9607158Y10265320D01*
X9596034Y10292176D01*
X9578338Y10315238D01*
X9555276Y10332934D01*
X9528420Y10344058D01*
X9512300Y10346180D01*
D02*
G37*
G36*
X9486900D02*
X9470780Y10344058D01*
X9443924Y10332934D01*
X9420862Y10315238D01*
X9403166Y10292176D01*
X9392042Y10265320D01*
X9388247Y10236500D01*
Y10134199D01*
X9486900D01*
Y10346180D01*
D02*
G37*
G36*
X8912301Y10371220D02*
Y10134198D01*
X9015996D01*
Y10256497D01*
X9012030Y10286622D01*
X9000402Y10314695D01*
X8981905Y10338801D01*
X8957799Y10357298D01*
X8929726Y10368926D01*
X8912301Y10371220D01*
D02*
G37*
G36*
X8886901Y10371221D02*
X8869476Y10368926D01*
X8841403Y10357298D01*
X8817297Y10338801D01*
X8798800Y10314695D01*
X8787171Y10286622D01*
X8783205Y10256497D01*
Y10134198D01*
X8886901D01*
Y10371221D01*
D02*
G37*
G36*
X9283433Y10147300D02*
X9207500D01*
Y10071367D01*
X9229114Y10077158D01*
X9249386Y10088862D01*
X9265938Y10105414D01*
X9277642Y10125686D01*
X9283433Y10147300D01*
D02*
G37*
G36*
X9182100D02*
X9106167D01*
X9111958Y10125686D01*
X9123662Y10105414D01*
X9140214Y10088862D01*
X9160486Y10077158D01*
X9182100Y10071367D01*
Y10147300D01*
D02*
G37*
G36*
X4400308Y10133408D02*
Y10045708D01*
X4478008D01*
Y10133408D01*
X4400308D01*
D02*
G37*
G36*
X4478008Y10020308D02*
X4400308D01*
Y9932608D01*
X4478008D01*
Y10020308D01*
D02*
G37*
G36*
X9610953Y10108799D02*
X9512300D01*
Y9896820D01*
X9528420Y9898942D01*
X9555276Y9910066D01*
X9578338Y9927762D01*
X9596034Y9950824D01*
X9607158Y9977680D01*
X9610953Y10006500D01*
Y10108799D01*
D02*
G37*
G36*
X9486900D02*
X9388247D01*
Y10006500D01*
X9392042Y9977680D01*
X9403166Y9950824D01*
X9420862Y9927762D01*
X9443924Y9910066D01*
X9470780Y9898942D01*
X9486900Y9896820D01*
Y10108799D01*
D02*
G37*
G36*
X9015996Y10108798D02*
X8912301D01*
Y9871774D01*
X8929726Y9874068D01*
X8957799Y9885696D01*
X8981905Y9904193D01*
X9000402Y9928300D01*
X9012030Y9956372D01*
X9015996Y9986497D01*
Y10108798D01*
D02*
G37*
G36*
X8886901D02*
X8783205D01*
Y9986497D01*
X8787171Y9956372D01*
X8798800Y9928300D01*
X8817297Y9904193D01*
X8841403Y9885696D01*
X8869476Y9874068D01*
X8886901Y9871774D01*
Y10108798D01*
D02*
G37*
G36*
X8431200Y9991897D02*
X8318500D01*
Y9779197D01*
X8431200D01*
Y9991897D01*
D02*
G37*
G36*
X8293100D02*
X8180400D01*
Y9779197D01*
X8293100D01*
Y9991897D01*
D02*
G37*
G36*
X8305800Y9766497D02*
D01*
D01*
D01*
D02*
G37*
G36*
X9817100Y9804133D02*
Y9728200D01*
X9893033D01*
X9887242Y9749814D01*
X9875538Y9770086D01*
X9858986Y9786638D01*
X9838714Y9798342D01*
X9817100Y9804133D01*
D02*
G37*
G36*
X9791700D02*
X9770086Y9798342D01*
X9749814Y9786638D01*
X9733262Y9770086D01*
X9721558Y9749814D01*
X9715767Y9728200D01*
X9791700D01*
Y9804133D01*
D02*
G37*
G36*
X9893033Y9702800D02*
X9817100D01*
Y9626867D01*
X9838714Y9632658D01*
X9858986Y9644362D01*
X9875538Y9660914D01*
X9887242Y9681186D01*
X9893033Y9702800D01*
D02*
G37*
G36*
X9791700D02*
X9715767D01*
X9721558Y9681186D01*
X9733262Y9660914D01*
X9749814Y9644362D01*
X9770086Y9632658D01*
X9791700Y9626867D01*
Y9702800D01*
D02*
G37*
G36*
X8431200Y9753797D02*
X8318500D01*
Y9541097D01*
X8431200D01*
Y9753797D01*
D02*
G37*
G36*
X8293100D02*
X8180400D01*
Y9541097D01*
X8293100D01*
Y9753797D01*
D02*
G37*
G36*
X9817100Y9258033D02*
Y9182100D01*
X9893033D01*
X9887242Y9203714D01*
X9875538Y9223986D01*
X9858986Y9240538D01*
X9838714Y9252242D01*
X9817100Y9258033D01*
D02*
G37*
G36*
X9791700D02*
X9770086Y9252242D01*
X9749814Y9240538D01*
X9733262Y9223986D01*
X9721558Y9203714D01*
X9715767Y9182100D01*
X9791700D01*
Y9258033D01*
D02*
G37*
G36*
X9893033Y9156700D02*
X9817100D01*
Y9080767D01*
X9838714Y9086558D01*
X9858986Y9098262D01*
X9875538Y9114814D01*
X9887242Y9135086D01*
X9893033Y9156700D01*
D02*
G37*
G36*
X9791700D02*
X9715767D01*
X9721558Y9135086D01*
X9733262Y9114814D01*
X9749814Y9098262D01*
X9770086Y9086558D01*
X9791700Y9080767D01*
Y9156700D01*
D02*
G37*
G36*
X3657600Y9118333D02*
Y9042400D01*
X3733533D01*
X3727742Y9064014D01*
X3716038Y9084286D01*
X3699486Y9100838D01*
X3679214Y9112542D01*
X3657600Y9118333D01*
D02*
G37*
G36*
X3632200D02*
X3610586Y9112542D01*
X3590314Y9100838D01*
X3573762Y9084286D01*
X3562058Y9064014D01*
X3556267Y9042400D01*
X3632200D01*
Y9118333D01*
D02*
G37*
G36*
X3733533Y9017000D02*
X3657600D01*
Y8941067D01*
X3679214Y8946858D01*
X3699486Y8958562D01*
X3716038Y8975114D01*
X3727742Y8995386D01*
X3733533Y9017000D01*
D02*
G37*
G36*
X3632200D02*
X3556267D01*
X3562058Y8995386D01*
X3573762Y8975114D01*
X3590314Y8958562D01*
X3610586Y8946858D01*
X3632200Y8941067D01*
Y9017000D01*
D02*
G37*
G36*
X8597900Y9016733D02*
Y8940800D01*
X8673833D01*
X8668042Y8962414D01*
X8656338Y8982686D01*
X8639786Y8999238D01*
X8619514Y9010942D01*
X8597900Y9016733D01*
D02*
G37*
G36*
X8572500D02*
X8550886Y9010942D01*
X8530614Y8999238D01*
X8514062Y8982686D01*
X8502358Y8962414D01*
X8496567Y8940800D01*
X8572500D01*
Y9016733D01*
D02*
G37*
G36*
X8673833Y8915400D02*
X8597900D01*
Y8839467D01*
X8619514Y8845258D01*
X8639786Y8856962D01*
X8656338Y8873514D01*
X8668042Y8893786D01*
X8673833Y8915400D01*
D02*
G37*
G36*
X8572500D02*
X8496567D01*
X8502358Y8893786D01*
X8514062Y8873514D01*
X8530614Y8856962D01*
X8550886Y8845258D01*
X8572500Y8839467D01*
Y8915400D01*
D02*
G37*
G36*
X3927399Y9063526D02*
X3909974Y9061232D01*
X3881901Y9049604D01*
X3857795Y9031107D01*
X3839298Y9007000D01*
X3827670Y8978928D01*
X3823704Y8948803D01*
Y8826503D01*
X3927399D01*
Y9063526D01*
D02*
G37*
G36*
X3352800Y9038480D02*
Y8826500D01*
X3451453D01*
Y8928800D01*
X3447658Y8957620D01*
X3436534Y8984476D01*
X3418838Y9007538D01*
X3395776Y9025234D01*
X3368920Y9036358D01*
X3352800Y9038480D01*
D02*
G37*
G36*
X3327400D02*
X3311280Y9036358D01*
X3284424Y9025234D01*
X3261362Y9007538D01*
X3243666Y8984476D01*
X3232542Y8957620D01*
X3228747Y8928800D01*
Y8826500D01*
X3327400D01*
Y9038480D01*
D02*
G37*
G36*
X9207500Y8889733D02*
Y8813800D01*
X9283433D01*
X9277642Y8835414D01*
X9265938Y8855686D01*
X9249386Y8872238D01*
X9229114Y8883942D01*
X9207500Y8889733D01*
D02*
G37*
G36*
X9182100D02*
X9160486Y8883942D01*
X9140214Y8872238D01*
X9123662Y8855686D01*
X9111958Y8835414D01*
X9106167Y8813800D01*
X9182100D01*
Y8889733D01*
D02*
G37*
G36*
X9512300Y9025380D02*
Y8813399D01*
X9610953D01*
Y8915700D01*
X9607158Y8944520D01*
X9596034Y8971376D01*
X9578338Y8994438D01*
X9555276Y9012134D01*
X9528420Y9023258D01*
X9512300Y9025380D01*
D02*
G37*
G36*
X9486900D02*
X9470780Y9023258D01*
X9443924Y9012134D01*
X9420862Y8994438D01*
X9403166Y8971376D01*
X9392042Y8944520D01*
X9388247Y8915700D01*
Y8813399D01*
X9486900D01*
Y9025380D01*
D02*
G37*
G36*
X8912301Y9050420D02*
Y8813397D01*
X9015996D01*
Y8935697D01*
X9012030Y8965822D01*
X9000402Y8993895D01*
X8981905Y9018001D01*
X8957799Y9036498D01*
X8929726Y9048126D01*
X8912301Y9050420D01*
D02*
G37*
G36*
X8886901Y9050421D02*
X8869476Y9048126D01*
X8841403Y9036498D01*
X8817297Y9018001D01*
X8798800Y8993895D01*
X8787171Y8965822D01*
X8783205Y8935697D01*
Y8813397D01*
X8886901D01*
Y9050421D01*
D02*
G37*
G36*
X9283433Y8788400D02*
X9207500D01*
Y8712467D01*
X9229114Y8718258D01*
X9249386Y8729962D01*
X9265938Y8746514D01*
X9277642Y8766786D01*
X9283433Y8788400D01*
D02*
G37*
G36*
X9182100D02*
X9106167D01*
X9111958Y8766786D01*
X9123662Y8746514D01*
X9140214Y8729962D01*
X9160486Y8718258D01*
X9182100Y8712467D01*
Y8788400D01*
D02*
G37*
G36*
X8597900Y8750033D02*
Y8674100D01*
X8673833D01*
X8668042Y8695714D01*
X8656338Y8715986D01*
X8639786Y8732538D01*
X8619514Y8744242D01*
X8597900Y8750033D01*
D02*
G37*
G36*
X8572500D02*
X8550886Y8744242D01*
X8530614Y8732538D01*
X8514062Y8715986D01*
X8502358Y8695714D01*
X8496567Y8674100D01*
X8572500D01*
Y8750033D01*
D02*
G37*
G36*
X3657600Y8724633D02*
Y8648700D01*
X3733533D01*
X3727742Y8670314D01*
X3716038Y8690586D01*
X3699486Y8707138D01*
X3679214Y8718842D01*
X3657600Y8724633D01*
D02*
G37*
G36*
X3632200D02*
X3610586Y8718842D01*
X3590314Y8707138D01*
X3573762Y8690586D01*
X3562058Y8670314D01*
X3556267Y8648700D01*
X3632200D01*
Y8724633D01*
D02*
G37*
G36*
X9817100Y8711933D02*
Y8636000D01*
X9893033D01*
X9887242Y8657614D01*
X9875538Y8677886D01*
X9858986Y8694438D01*
X9838714Y8706142D01*
X9817100Y8711933D01*
D02*
G37*
G36*
X9791700D02*
X9770086Y8706142D01*
X9749814Y8694438D01*
X9733262Y8677886D01*
X9721558Y8657614D01*
X9715767Y8636000D01*
X9791700D01*
Y8711933D01*
D02*
G37*
G36*
X3451453Y8801100D02*
X3352800D01*
Y8589120D01*
X3368920Y8591242D01*
X3395776Y8602366D01*
X3418838Y8620062D01*
X3436534Y8643124D01*
X3447658Y8669980D01*
X3451453Y8698800D01*
Y8801100D01*
D02*
G37*
G36*
X9610953Y8787999D02*
X9512300D01*
Y8576020D01*
X9528420Y8578142D01*
X9555276Y8589266D01*
X9578338Y8606962D01*
X9596034Y8630024D01*
X9607158Y8656880D01*
X9610953Y8685700D01*
Y8787999D01*
D02*
G37*
G36*
X9486900D02*
X9388247D01*
Y8685700D01*
X9392042Y8656880D01*
X9403166Y8630024D01*
X9420862Y8606962D01*
X9443924Y8589266D01*
X9470780Y8578142D01*
X9486900Y8576020D01*
Y8787999D01*
D02*
G37*
G36*
X8673833Y8648700D02*
X8597900D01*
Y8572767D01*
X8619514Y8578558D01*
X8639786Y8590262D01*
X8656338Y8606814D01*
X8668042Y8627086D01*
X8673833Y8648700D01*
D02*
G37*
G36*
X8572500D02*
X8496567D01*
X8502358Y8627086D01*
X8514062Y8606814D01*
X8530614Y8590262D01*
X8550886Y8578558D01*
X8572500Y8572767D01*
Y8648700D01*
D02*
G37*
G36*
X3927399Y8801103D02*
X3823704D01*
Y8678803D01*
X3827670Y8648678D01*
X3839298Y8620605D01*
X3857795Y8596499D01*
X3881901Y8578002D01*
X3909974Y8566374D01*
X3927399Y8564079D01*
Y8801103D01*
D02*
G37*
G36*
X3024500Y10438882D02*
X2991764Y10434572D01*
X2961259Y10421937D01*
X2953261Y10415800D01*
X2882600D01*
Y10302684D01*
X2880902Y10289784D01*
X2880902Y10289782D01*
Y10045409D01*
X2880902Y10045407D01*
X2881518Y10040727D01*
Y9960602D01*
X2881517Y9960600D01*
X2882600Y9952378D01*
Y9840700D01*
X2898018D01*
Y9679200D01*
X2882600D01*
Y9472400D01*
X2898018D01*
Y8684902D01*
X2898018Y8684900D01*
X2902328Y8652164D01*
X2914963Y8621659D01*
X2935063Y8595464D01*
X3276160Y8254368D01*
X3276160Y8254367D01*
X3302356Y8234266D01*
X3332861Y8221631D01*
X3365597Y8217321D01*
X3365599Y8217321D01*
X3665101D01*
X3697837Y8221631D01*
X3723958Y8232451D01*
X3780100D01*
X3808920Y8236245D01*
X3835777Y8247369D01*
X3858839Y8265065D01*
X3876535Y8288127D01*
X3878311Y8292416D01*
X4072810D01*
X4092476Y8296328D01*
X4109147Y8307467D01*
X4138436Y8336757D01*
X4140019Y8339125D01*
X4163193Y8341407D01*
X4209500Y8295100D01*
X4254500D01*
Y8445500D01*
Y8595900D01*
X4209500D01*
X4170117Y8556517D01*
X4153487Y8563405D01*
Y8762327D01*
X4170708Y8764208D01*
Y8764208D01*
X4342708D01*
X4351508Y8764208D01*
X4362329D01*
X4375058Y8751480D01*
Y8572240D01*
X4375216Y8571041D01*
X4358167Y8562633D01*
X4324900Y8595900D01*
X4279900D01*
Y8458200D01*
X4382600D01*
Y8497666D01*
X4400600Y8505576D01*
X4407296Y8499429D01*
X4404804Y8480500D01*
Y8410500D01*
X4408770Y8380374D01*
X4420399Y8352302D01*
X4438896Y8328196D01*
X4463002Y8309698D01*
X4491075Y8298070D01*
X4521200Y8294104D01*
X4551325Y8298070D01*
X4579398Y8309698D01*
X4603504Y8328196D01*
X4622001Y8352302D01*
X4633630Y8380374D01*
X4637595Y8410500D01*
Y8480500D01*
X4633630Y8510626D01*
X4622001Y8538698D01*
X4603504Y8562804D01*
X4579398Y8581302D01*
X4551325Y8592930D01*
X4535945Y8594955D01*
X4527159Y8603741D01*
Y8764208D01*
X4541508D01*
Y8965008D01*
X4369508D01*
X4356108Y8965008D01*
X4342708Y8965008D01*
X4170708D01*
Y8915995D01*
X4131390D01*
X4111724Y8912084D01*
X4095053Y8900944D01*
X4074495Y8880386D01*
X4056495Y8887842D01*
Y8948803D01*
X4052529Y8978928D01*
X4040900Y9007000D01*
X4022403Y9031107D01*
X3998297Y9049604D01*
X3970224Y9061232D01*
X3952799Y9063526D01*
Y8813803D01*
Y8564079D01*
X3970224Y8566374D01*
X3998297Y8578002D01*
X4022403Y8596499D01*
X4032713Y8609935D01*
X4050713Y8603825D01*
Y8395190D01*
X3878311D01*
X3876535Y8399480D01*
X3858839Y8422541D01*
X3835777Y8440237D01*
X3808920Y8451362D01*
X3780100Y8455156D01*
X3723958D01*
X3697837Y8465975D01*
X3665101Y8470285D01*
X3417987D01*
X3315778Y8572494D01*
X3324186Y8589543D01*
X3327400Y8589120D01*
Y8801100D01*
X3228747D01*
Y8698800D01*
X3230843Y8682886D01*
X3213794Y8674479D01*
X3150982Y8737291D01*
Y9472400D01*
X3166400D01*
Y9679200D01*
X3150982D01*
Y9840700D01*
X3166400D01*
Y10047500D01*
X3134125D01*
X3133866Y10049470D01*
Y10209000D01*
X3166400D01*
Y10415800D01*
X3095739D01*
X3087741Y10421937D01*
X3057236Y10434572D01*
X3024500Y10438882D01*
D02*
G37*
G36*
X3733533Y8623300D02*
X3657600D01*
Y8547367D01*
X3679214Y8553158D01*
X3699486Y8564862D01*
X3716038Y8581414D01*
X3727742Y8601686D01*
X3733533Y8623300D01*
D02*
G37*
G36*
X3632200D02*
X3556267D01*
X3562058Y8601686D01*
X3573762Y8581414D01*
X3590314Y8564862D01*
X3610586Y8553158D01*
X3632200Y8547367D01*
Y8623300D01*
D02*
G37*
G36*
X9893033Y8610600D02*
X9817100D01*
Y8534667D01*
X9838714Y8540458D01*
X9858986Y8552162D01*
X9875538Y8568714D01*
X9887242Y8588986D01*
X9893033Y8610600D01*
D02*
G37*
G36*
X9791700D02*
X9715767D01*
X9721558Y8588986D01*
X9733262Y8568714D01*
X9749814Y8552162D01*
X9770086Y8540458D01*
X9791700Y8534667D01*
Y8610600D01*
D02*
G37*
G36*
X8293100Y8721500D02*
X8200400D01*
Y8533801D01*
X8293100D01*
Y8721500D01*
D02*
G37*
G36*
X9015996Y8787997D02*
X8899601D01*
X8783205D01*
Y8665697D01*
X8787171Y8635572D01*
X8798335Y8608622D01*
Y8397514D01*
X8769787Y8368966D01*
X8440614D01*
X8412066Y8397514D01*
Y8516098D01*
X8412066Y8516100D01*
X8411200Y8522682D01*
Y8721500D01*
X8318500D01*
Y8521101D01*
X8305800D01*
Y8508401D01*
X8200400D01*
Y8320700D01*
X8216571D01*
X8223101Y8304935D01*
X8239194Y8283962D01*
X8327061Y8196095D01*
X8327062Y8196094D01*
X8348035Y8180001D01*
X8372458Y8169884D01*
X8398668Y8166434D01*
X8398670Y8166434D01*
X8811731D01*
X8811733Y8166434D01*
X8837943Y8169884D01*
X8862366Y8180001D01*
X8883339Y8196094D01*
X8971206Y8283961D01*
X8971207Y8283962D01*
X8987300Y8304935D01*
X8997417Y8329358D01*
X9000867Y8355568D01*
X9000867Y8355570D01*
Y8608622D01*
X9012030Y8635572D01*
X9015996Y8665697D01*
Y8787997D01*
D02*
G37*
G36*
X4382600Y8432800D02*
X4279900D01*
Y8295100D01*
X4324900D01*
X4382600Y8352800D01*
Y8432800D01*
D02*
G37*
G36*
X17170399Y7911833D02*
Y7835900D01*
X17246333D01*
X17240543Y7857514D01*
X17228838Y7877786D01*
X17212286Y7894338D01*
X17192014Y7906042D01*
X17170399Y7911833D01*
D02*
G37*
G36*
X17145000D02*
X17123386Y7906042D01*
X17103114Y7894338D01*
X17086562Y7877786D01*
X17074858Y7857514D01*
X17069067Y7835900D01*
X17145000D01*
Y7911833D01*
D02*
G37*
G36*
X17246333Y7810500D02*
X17170399D01*
Y7734567D01*
X17192014Y7740358D01*
X17212286Y7752062D01*
X17228838Y7768614D01*
X17240543Y7788886D01*
X17246333Y7810500D01*
D02*
G37*
G36*
X17145000D02*
X17069067D01*
X17074858Y7788886D01*
X17086562Y7768614D01*
X17103114Y7752062D01*
X17123386Y7740358D01*
X17145000Y7734567D01*
Y7810500D01*
D02*
G37*
G36*
X15227299Y8065087D02*
X10375900D01*
X10356235Y8061176D01*
X10339564Y8050036D01*
X10291797Y8002269D01*
X10280657Y7985598D01*
X10276746Y7965933D01*
Y7962900D01*
X10261600D01*
X10210800Y7912100D01*
Y7759700D01*
X10261600Y7708900D01*
X10363200D01*
X10414000Y7759700D01*
Y7912100D01*
X10380486Y7945614D01*
X10397185Y7962313D01*
X10491495D01*
X10498383Y7945683D01*
X10464800Y7912100D01*
Y7759700D01*
X10490349Y7734151D01*
Y7626101D01*
X10461824Y7597576D01*
X10449738Y7581825D01*
X10442141Y7563483D01*
X10439549Y7543800D01*
Y7439800D01*
X10240200D01*
Y7089000D01*
X10588327D01*
X10972264Y6705064D01*
X10998459Y6684963D01*
X11028964Y6672328D01*
X11061700Y6668018D01*
X11061702Y6668018D01*
X11540309D01*
X11845618Y6362709D01*
Y6328602D01*
X11845618Y6328600D01*
X11846700Y6320380D01*
Y6108700D01*
X12105500D01*
Y6540500D01*
X12025573D01*
X11682136Y6883936D01*
X11655941Y6904037D01*
X11625436Y6916672D01*
X11592700Y6920982D01*
X11592698Y6920982D01*
X11114091D01*
X10791000Y7244073D01*
Y7439800D01*
X10591651D01*
Y7512299D01*
X10620176Y7540824D01*
X10632262Y7556575D01*
X10639859Y7574917D01*
X10642451Y7594600D01*
Y7734151D01*
X10668000Y7759700D01*
Y7912100D01*
X10634417Y7945683D01*
X10641305Y7962313D01*
X10745495D01*
X10752383Y7945683D01*
X10718800Y7912100D01*
Y7759700D01*
X10769600Y7708900D01*
X10871200D01*
X10922000Y7759700D01*
Y7912100D01*
X10888417Y7945683D01*
X10895305Y7962313D01*
X12481883D01*
X12498800Y7959700D01*
X12498800Y7944313D01*
Y7522000D01*
X13074199D01*
X13649599D01*
Y7944313D01*
X13649599Y7959700D01*
X13666516Y7962313D01*
X13885683D01*
X13902602Y7959700D01*
X13902602Y7944313D01*
Y7522001D01*
X14478000D01*
Y7509301D01*
D01*
Y7522001D01*
X15053400D01*
Y7944313D01*
X15053400Y7959700D01*
X15070317Y7962313D01*
X15206015D01*
X15356064Y7812264D01*
X15372736Y7801124D01*
X15392400Y7797213D01*
X15532619D01*
Y7773600D01*
X15533701Y7765381D01*
Y7716116D01*
X15532619Y7707897D01*
Y7660288D01*
X15277563Y7405234D01*
X15257463Y7379038D01*
X15244827Y7348533D01*
X15240518Y7315797D01*
X15240518Y7315795D01*
Y6978074D01*
X15100291D01*
X15074081Y6974624D01*
X15056178Y6967208D01*
X14999892D01*
Y6883389D01*
X14999026Y6876808D01*
X14999892Y6870227D01*
Y6786409D01*
X14985432Y6777859D01*
X14981593D01*
X14860376Y6899076D01*
X14844624Y6911162D01*
X14826283Y6918759D01*
X14806599Y6921351D01*
X14706599D01*
X14686917Y6918759D01*
X14676172Y6914309D01*
X14668575Y6911162D01*
X14652824Y6899076D01*
X14594225Y6840476D01*
X14582138Y6824725D01*
X14574541Y6806383D01*
X14571948Y6786700D01*
Y6657948D01*
X14554399Y6656860D01*
X14553600Y6656860D01*
X14490700D01*
Y6477319D01*
Y6297778D01*
X14553600D01*
X14554399Y6297778D01*
X14571600D01*
X14572400Y6297778D01*
X14724399D01*
Y6297777D01*
X14741600D01*
Y6297778D01*
X14805299D01*
Y6477319D01*
X14817999D01*
Y6490019D01*
X14894398D01*
Y6626815D01*
X14912067Y6635946D01*
X14919664Y6632799D01*
X14930409Y6628349D01*
X14950092Y6625757D01*
X14999892D01*
Y6596408D01*
X15024242D01*
Y6560792D01*
X14999892D01*
Y6388792D01*
X14999892Y6375392D01*
X14999892Y6361992D01*
Y6293092D01*
X15100291D01*
X15200693D01*
Y6361992D01*
X15200693Y6375392D01*
X15200693Y6388792D01*
Y6560792D01*
X15176343D01*
Y6596408D01*
X15200693D01*
Y6775542D01*
X15240518D01*
Y5528948D01*
X15197452Y5485882D01*
X15057201D01*
Y5654800D01*
X14716400D01*
Y5064000D01*
X15057201D01*
Y5232918D01*
X15249840D01*
X15249841Y5232918D01*
X15282579Y5237228D01*
X15313083Y5249863D01*
X15339279Y5269964D01*
X15456436Y5387121D01*
X15476537Y5413317D01*
X15489172Y5443821D01*
X15493481Y5476557D01*
X15493481Y5476560D01*
Y6883400D01*
Y7263406D01*
X15712573Y7482497D01*
X15784500D01*
Y7599677D01*
X15785582Y7607897D01*
X15785582Y7607899D01*
Y7707897D01*
X15784500Y7716116D01*
Y7754424D01*
X15790292Y7760218D01*
X16025809D01*
X16052567Y7733460D01*
X16078761Y7713360D01*
X16109268Y7700724D01*
X16142004Y7696414D01*
X16142006Y7696415D01*
X16527899D01*
X16560635Y7700725D01*
X16586757Y7711544D01*
X16642899D01*
X16671719Y7715338D01*
X16698575Y7726463D01*
X16721637Y7744159D01*
X16739333Y7767220D01*
X16750456Y7794077D01*
X16754253Y7822897D01*
X16750456Y7851717D01*
X16739333Y7878573D01*
X16721637Y7901635D01*
X16698575Y7919331D01*
X16671719Y7930455D01*
X16642899Y7934249D01*
X16586757D01*
X16560635Y7945069D01*
X16527899Y7949379D01*
X16194394D01*
X16167638Y7976136D01*
X16141441Y7996237D01*
X16110936Y8008872D01*
X16078200Y8013182D01*
X16078198Y8013182D01*
X15737904D01*
X15737903Y8013182D01*
X15705167Y8008872D01*
X15674661Y7996237D01*
X15648466Y7976136D01*
X15648466Y7976135D01*
X15605627Y7933297D01*
X15533701D01*
Y7899987D01*
X15413686D01*
X15263635Y8050036D01*
X15246965Y8061176D01*
X15227299Y8065087D01*
D02*
G37*
G36*
X10922000Y7607033D02*
Y7531100D01*
X10997933D01*
X10992142Y7552714D01*
X10980438Y7572986D01*
X10963886Y7589538D01*
X10943614Y7601242D01*
X10922000Y7607033D01*
D02*
G37*
G36*
X10896600D02*
X10874986Y7601242D01*
X10854714Y7589538D01*
X10838162Y7572986D01*
X10826458Y7552714D01*
X10820667Y7531100D01*
X10896600D01*
Y7607033D01*
D02*
G37*
G36*
X12319000Y7937500D02*
X11734800D01*
Y7480300D01*
X12319000D01*
Y7937500D01*
D02*
G37*
G36*
X11709400D02*
X11125200D01*
Y7480300D01*
X11709400D01*
Y7937500D01*
D02*
G37*
G36*
X10997933Y7505700D02*
X10922000D01*
Y7429767D01*
X10943614Y7435558D01*
X10963886Y7447262D01*
X10980438Y7463814D01*
X10992142Y7484086D01*
X10997933Y7505700D01*
D02*
G37*
G36*
X10896600D02*
X10820667D01*
X10826458Y7484086D01*
X10838162Y7463814D01*
X10854714Y7447262D01*
X10874986Y7435558D01*
X10896600Y7429767D01*
Y7505700D01*
D02*
G37*
G36*
X16548100Y7454633D02*
Y7378700D01*
X16624033D01*
X16618242Y7400314D01*
X16606538Y7420586D01*
X16589986Y7437138D01*
X16569714Y7448842D01*
X16548100Y7454633D01*
D02*
G37*
G36*
X16522701D02*
X16501086Y7448842D01*
X16480814Y7437138D01*
X16464262Y7420586D01*
X16452557Y7400314D01*
X16446767Y7378700D01*
X16522701D01*
Y7454633D01*
D02*
G37*
G36*
X15976601Y7441933D02*
Y7366000D01*
X16052533D01*
X16046742Y7387614D01*
X16035039Y7407886D01*
X16018486Y7424438D01*
X15998215Y7436142D01*
X15976601Y7441933D01*
D02*
G37*
G36*
X15951199D02*
X15929585Y7436142D01*
X15909314Y7424438D01*
X15892763Y7407886D01*
X15881058Y7387614D01*
X15875267Y7366000D01*
X15951199D01*
Y7441933D01*
D02*
G37*
G36*
X16865601Y7577580D02*
Y7365599D01*
X16964253D01*
Y7467900D01*
X16960458Y7496720D01*
X16949335Y7523576D01*
X16931638Y7546638D01*
X16908575Y7564334D01*
X16881720Y7575458D01*
X16865601Y7577580D01*
D02*
G37*
G36*
X16840199D02*
X16824080Y7575458D01*
X16797224Y7564334D01*
X16774162Y7546638D01*
X16756467Y7523576D01*
X16745341Y7496720D01*
X16741547Y7467900D01*
Y7365599D01*
X16840199D01*
Y7577580D01*
D02*
G37*
G36*
X16265601Y7602620D02*
Y7365598D01*
X16369296D01*
Y7487897D01*
X16365331Y7518022D01*
X16353702Y7546095D01*
X16335205Y7570201D01*
X16311099Y7588698D01*
X16283026Y7600326D01*
X16265601Y7602620D01*
D02*
G37*
G36*
X16240201Y7602621D02*
X16222775Y7600326D01*
X16194704Y7588698D01*
X16170596Y7570201D01*
X16152100Y7546095D01*
X16140471Y7518022D01*
X16136505Y7487897D01*
Y7365598D01*
X16240201D01*
Y7602621D01*
D02*
G37*
G36*
X17170399Y7365733D02*
Y7289800D01*
X17246333D01*
X17240543Y7311414D01*
X17228838Y7331686D01*
X17212286Y7348238D01*
X17192014Y7359942D01*
X17170399Y7365733D01*
D02*
G37*
G36*
X17145000D02*
X17123386Y7359942D01*
X17103114Y7348238D01*
X17086562Y7331686D01*
X17074858Y7311414D01*
X17069067Y7289800D01*
X17145000D01*
Y7365733D01*
D02*
G37*
G36*
X16624033Y7353300D02*
X16548100D01*
Y7277367D01*
X16569714Y7283158D01*
X16589986Y7294862D01*
X16606538Y7311414D01*
X16618242Y7331686D01*
X16624033Y7353300D01*
D02*
G37*
G36*
X16522701D02*
X16446767D01*
X16452557Y7331686D01*
X16464262Y7311414D01*
X16480814Y7294862D01*
X16501086Y7283158D01*
X16522701Y7277367D01*
Y7353300D01*
D02*
G37*
G36*
X16052533Y7340600D02*
X15976601D01*
Y7264667D01*
X15998215Y7270458D01*
X16018486Y7282162D01*
X16035039Y7298714D01*
X16046742Y7318986D01*
X16052533Y7340600D01*
D02*
G37*
G36*
X15951199D02*
X15875267D01*
X15881058Y7318986D01*
X15892763Y7298714D01*
X15909314Y7282162D01*
X15929585Y7270458D01*
X15951199Y7264667D01*
Y7340600D01*
D02*
G37*
G36*
X17246333Y7264400D02*
X17170399D01*
Y7188467D01*
X17192014Y7194258D01*
X17212286Y7205962D01*
X17228838Y7222514D01*
X17240543Y7242786D01*
X17246333Y7264400D01*
D02*
G37*
G36*
X17145000D02*
X17069067D01*
X17074858Y7242786D01*
X17086562Y7222514D01*
X17103114Y7205962D01*
X17123386Y7194258D01*
X17145000Y7188467D01*
Y7264400D01*
D02*
G37*
G36*
X16964253Y7340199D02*
X16865601D01*
Y7128220D01*
X16881720Y7130342D01*
X16908575Y7141466D01*
X16931638Y7159162D01*
X16949335Y7182224D01*
X16960458Y7209080D01*
X16964253Y7237900D01*
Y7340199D01*
D02*
G37*
G36*
X16840199D02*
X16741547D01*
Y7237900D01*
X16745341Y7209080D01*
X16756467Y7182224D01*
X16774162Y7159162D01*
X16797224Y7141466D01*
X16824080Y7130342D01*
X16840199Y7128220D01*
Y7340199D01*
D02*
G37*
G36*
X16369296Y7340198D02*
X16265601D01*
Y7103174D01*
X16283026Y7105468D01*
X16311099Y7117096D01*
X16335205Y7135593D01*
X16353702Y7159700D01*
X16365331Y7187772D01*
X16369296Y7217897D01*
Y7340198D01*
D02*
G37*
G36*
X16240201D02*
X16136505D01*
Y7217897D01*
X16140471Y7187772D01*
X16152100Y7159700D01*
X16170596Y7135593D01*
X16194704Y7117096D01*
X16222775Y7105468D01*
X16240201Y7103174D01*
Y7340198D01*
D02*
G37*
G36*
X15053400Y7496601D02*
X14490700D01*
Y7058902D01*
X15053400D01*
Y7496601D01*
D02*
G37*
G36*
X14465300D02*
X13902602D01*
Y7058902D01*
X14465300D01*
Y7496601D01*
D02*
G37*
G36*
X13061499Y7496600D02*
X12498800D01*
Y7058902D01*
X13061499D01*
Y7496600D01*
D02*
G37*
G36*
X13779492Y7132308D02*
Y7054608D01*
X13867192D01*
Y7132308D01*
X13779492D01*
D02*
G37*
G36*
X13649599Y7496600D02*
X13086899D01*
Y7058902D01*
X13648392D01*
X13649599Y7058901D01*
X13666393Y7055990D01*
Y7054608D01*
X13754092D01*
Y7132308D01*
X13667598D01*
X13666393Y7132308D01*
X13649599Y7135220D01*
Y7496600D01*
D02*
G37*
G36*
X15784500Y7223297D02*
X15671800D01*
Y7010597D01*
X15784500D01*
Y7223297D01*
D02*
G37*
G36*
X15646400D02*
X15533701D01*
Y7010597D01*
X15646400D01*
Y7223297D01*
D02*
G37*
G36*
X12319000Y7454900D02*
X11734800D01*
Y6997700D01*
X12319000D01*
Y7454900D01*
D02*
G37*
G36*
X11709400D02*
X11125200D01*
Y6997700D01*
X11709400D01*
Y7454900D01*
D02*
G37*
G36*
X15784500Y6985197D02*
X15671800D01*
Y6772497D01*
X15784500D01*
Y6985197D01*
D02*
G37*
G36*
X15646400D02*
X15533701D01*
Y6772497D01*
X15646400D01*
Y6985197D01*
D02*
G37*
G36*
X17170399Y6819633D02*
Y6743700D01*
X17246333D01*
X17240543Y6765314D01*
X17228838Y6785586D01*
X17212286Y6802138D01*
X17192014Y6813842D01*
X17170399Y6819633D01*
D02*
G37*
G36*
X17145000D02*
X17123386Y6813842D01*
X17103114Y6802138D01*
X17086562Y6785586D01*
X17074858Y6765314D01*
X17069067Y6743700D01*
X17145000D01*
Y6819633D01*
D02*
G37*
G36*
X12369800Y6806933D02*
Y6731000D01*
X12445733D01*
X12439942Y6752614D01*
X12428238Y6772886D01*
X12411686Y6789438D01*
X12391414Y6801142D01*
X12369800Y6806933D01*
D02*
G37*
G36*
X12344400D02*
X12322786Y6801142D01*
X12302514Y6789438D01*
X12285962Y6772886D01*
X12274258Y6752614D01*
X12268467Y6731000D01*
X12344400D01*
Y6806933D01*
D02*
G37*
G36*
X17246333Y6718300D02*
X17170399D01*
Y6642367D01*
X17192014Y6648158D01*
X17212286Y6659862D01*
X17228838Y6676414D01*
X17240543Y6696686D01*
X17246333Y6718300D01*
D02*
G37*
G36*
X17145000D02*
X17069067D01*
X17074858Y6696686D01*
X17086562Y6676414D01*
X17103114Y6659862D01*
X17123386Y6648158D01*
X17145000Y6642367D01*
Y6718300D01*
D02*
G37*
G36*
X12445733Y6705600D02*
X12369800D01*
Y6629667D01*
X12391414Y6635458D01*
X12411686Y6647162D01*
X12428238Y6663714D01*
X12439942Y6683986D01*
X12445733Y6705600D01*
D02*
G37*
G36*
X12344400D02*
X12268467D01*
X12274258Y6683986D01*
X12285962Y6663714D01*
X12302514Y6647162D01*
X12322786Y6635458D01*
X12344400Y6629667D01*
Y6705600D01*
D02*
G37*
G36*
X16205200Y6832266D02*
X16178992Y6828816D01*
X16154567Y6818699D01*
X16133594Y6802606D01*
X16130070Y6799083D01*
X16113979Y6778110D01*
X16103860Y6753687D01*
X16100410Y6727477D01*
X16100410Y6727475D01*
Y6606824D01*
X15784500D01*
Y6625197D01*
X15533701D01*
Y6174397D01*
X15784500D01*
Y6404292D01*
X16389519D01*
X16389520Y6404292D01*
X16397990Y6405407D01*
X16412900Y6403444D01*
X16642899D01*
X16671719Y6407238D01*
X16698575Y6418363D01*
X16721637Y6436059D01*
X16739333Y6459120D01*
X16750456Y6485977D01*
X16754253Y6514797D01*
X16750456Y6543617D01*
X16739333Y6570473D01*
X16721637Y6593535D01*
X16698575Y6611231D01*
X16671719Y6622355D01*
X16642899Y6626149D01*
X16412900D01*
X16384079Y6622355D01*
X16357224Y6611231D01*
X16351482Y6606824D01*
X16302943D01*
Y6704615D01*
X16303017Y6704791D01*
X16306467Y6731000D01*
X16303017Y6757210D01*
X16292899Y6781633D01*
X16276807Y6802606D01*
X16255833Y6818699D01*
X16231410Y6828816D01*
X16205200Y6832266D01*
D02*
G37*
G36*
X13490598Y6656860D02*
X13426898D01*
Y6490019D01*
X13490598D01*
Y6656860D01*
D02*
G37*
G36*
X13867192Y7029208D02*
X13766792D01*
X13666393D01*
Y6960308D01*
X13666393Y6951508D01*
Y6940687D01*
X13653664Y6927959D01*
X13392409D01*
X13372725Y6925367D01*
X13354382Y6917770D01*
X13338632Y6905684D01*
X13191422Y6758474D01*
X13179337Y6742723D01*
X13171739Y6724382D01*
X13169147Y6704698D01*
Y6658208D01*
X13167799Y6656860D01*
X13150600D01*
X13149799Y6656860D01*
X13086899D01*
Y6477319D01*
Y6297778D01*
X13149799D01*
X13150600Y6297778D01*
X13167799D01*
X13168599Y6297778D01*
X13319798D01*
X13320598Y6297778D01*
Y6297777D01*
X13337801D01*
Y6297778D01*
X13401498D01*
Y6477319D01*
X13414198D01*
D01*
X13401498D01*
Y6656860D01*
X13337799D01*
Y6656860D01*
X13329501Y6658615D01*
X13325839Y6677788D01*
X13423909Y6775857D01*
X13666393D01*
Y6761508D01*
X13690741D01*
Y6725892D01*
X13666393D01*
Y6545093D01*
X13666393Y6545092D01*
Y6535891D01*
X13666393D01*
X13666393Y6527092D01*
Y6488304D01*
X13507228Y6329140D01*
X13490598Y6336028D01*
Y6464619D01*
X13426898D01*
Y6297778D01*
X13452347D01*
X13459236Y6281148D01*
X13301494Y6123406D01*
X13301143Y6122949D01*
X13285544Y6128943D01*
X13284093Y6130298D01*
Y6146800D01*
X13220700D01*
Y6093407D01*
X13248000D01*
X13261812Y6096154D01*
X13263893Y6097544D01*
X13278433Y6085611D01*
X13275284Y6078010D01*
X13271834Y6051800D01*
X13271834Y6051798D01*
Y5667500D01*
X13202699D01*
Y5076700D01*
X13543500D01*
Y5667500D01*
X13474367D01*
Y6009854D01*
X13766792Y6302280D01*
X13817596Y6251475D01*
X13818800Y6248567D01*
X13834467Y6228151D01*
X13834085Y6225531D01*
X13828058Y6210151D01*
X13762180D01*
X13742496Y6207559D01*
X13724153Y6199962D01*
X13708403Y6187876D01*
X13586024Y6065497D01*
X13573938Y6049747D01*
X13566341Y6031405D01*
X13563750Y6011721D01*
Y4533382D01*
X12396791D01*
X12216882Y4713291D01*
Y5071432D01*
X12232700Y5076700D01*
Y5076700D01*
X12573500D01*
Y5559948D01*
X12956976Y5943424D01*
X12969061Y5959175D01*
X12972209Y5966772D01*
X12976659Y5977517D01*
X12979251Y5997200D01*
Y6129285D01*
X12979292Y6129500D01*
Y6189500D01*
X12979251Y6189715D01*
Y6296429D01*
X12980598Y6297778D01*
X12997800D01*
X12998599Y6297778D01*
X13061499D01*
Y6477319D01*
Y6656860D01*
X12998599D01*
X12997800Y6656860D01*
X12980598D01*
X12979800Y6656860D01*
X12827800D01*
Y6656861D01*
X12810599D01*
Y6656860D01*
X12809801Y6656860D01*
X12657800D01*
Y6552711D01*
X12655462Y6550917D01*
X12053280Y5948735D01*
X12027159Y5937915D01*
X12000964Y5917815D01*
X11980863Y5891620D01*
X11968228Y5861115D01*
X11963918Y5828378D01*
Y5663682D01*
X11544300D01*
X11511564Y5659372D01*
X11481059Y5646737D01*
X11470716Y5638800D01*
X11468100D01*
X11459475Y5630175D01*
X11454864Y5626636D01*
X11451325Y5622025D01*
X11417300Y5588000D01*
Y5486400D01*
X11451325Y5452375D01*
X11454864Y5447764D01*
X11459475Y5444225D01*
X11468100Y5435600D01*
X11474597Y5427682D01*
X11466353Y5409682D01*
X11068591D01*
X10947700Y5530573D01*
Y5602500D01*
X10932282D01*
Y5764000D01*
X10947700D01*
Y5970800D01*
X10932282D01*
Y6121970D01*
X10950282Y6124340D01*
X10953458Y6112486D01*
X10965162Y6092214D01*
X10981714Y6075662D01*
X10984913Y6073815D01*
Y5994400D01*
X10988824Y5974735D01*
X10999964Y5958064D01*
X11038056Y5919972D01*
X11054727Y5908832D01*
X11074392Y5904921D01*
X11104908D01*
Y5855908D01*
X11276908D01*
X11290308Y5855908D01*
X11303708Y5855908D01*
X11632508D01*
X11645908Y5855908D01*
X11659308Y5855908D01*
X11728208D01*
Y5956308D01*
Y6056708D01*
X11659308D01*
X11645908Y6056708D01*
X11632508Y6056708D01*
X11519487D01*
Y6108700D01*
X11597500D01*
Y6540500D01*
X11338700D01*
Y6108700D01*
X11416713D01*
Y6056708D01*
X11303708D01*
X11290308Y6056708D01*
X11276908Y6056708D01*
X11104908D01*
Y6056708D01*
X11094109Y6057888D01*
X11091629Y6071564D01*
X11091503Y6076279D01*
X11107438Y6092214D01*
X11119142Y6112486D01*
X11125200Y6135096D01*
Y6158504D01*
X11119142Y6181114D01*
X11107438Y6201386D01*
X11090886Y6217938D01*
X11070614Y6229642D01*
X11048004Y6235700D01*
X11024596D01*
X11001986Y6229642D01*
X10981714Y6217938D01*
X10965700Y6201924D01*
X10963211Y6202029D01*
X10947700Y6207140D01*
Y6339100D01*
X10932282D01*
Y6466200D01*
X10927972Y6498936D01*
X10915337Y6529441D01*
X10895237Y6555636D01*
X10895236Y6555637D01*
X10772681Y6678192D01*
X10778433Y6688953D01*
X10788462Y6722016D01*
X10791849Y6756400D01*
X10788462Y6790784D01*
X10778433Y6823847D01*
X10762145Y6854319D01*
X10740227Y6881027D01*
X10713519Y6902945D01*
X10683047Y6919233D01*
X10649985Y6929262D01*
X10615600Y6932649D01*
X10415600D01*
X10381215Y6929262D01*
X10348153Y6919233D01*
X10317681Y6902945D01*
X10290973Y6881027D01*
X10269055Y6854319D01*
X10252767Y6823847D01*
X10242738Y6790784D01*
X10239351Y6756400D01*
X10242738Y6722016D01*
X10252767Y6688953D01*
X10269055Y6658481D01*
X10290973Y6631773D01*
X10317681Y6609855D01*
X10348153Y6593567D01*
X10381215Y6583538D01*
X10415600Y6580151D01*
X10522659D01*
X10525197Y6574025D01*
X10545297Y6547830D01*
X10679318Y6413809D01*
Y6339100D01*
X10663900D01*
Y6132300D01*
X10679318D01*
Y5970800D01*
X10663900D01*
Y5764000D01*
X10679318D01*
Y5602500D01*
X10663900D01*
Y5395700D01*
X10724827D01*
X10926763Y5193765D01*
X10926764Y5193764D01*
X10952959Y5173663D01*
X10983464Y5161028D01*
X11016200Y5156718D01*
X11016202Y5156718D01*
X11544300D01*
X11577036Y5161028D01*
X11607541Y5173663D01*
X11617884Y5181600D01*
X11620500D01*
X11629125Y5190225D01*
X11633736Y5193764D01*
X11637275Y5198375D01*
X11671300Y5232400D01*
Y5334000D01*
X11637275Y5368025D01*
X11633736Y5372636D01*
X11629125Y5376175D01*
X11620500Y5384800D01*
X11614003Y5392718D01*
X11622247Y5410718D01*
X11963918D01*
Y4660902D01*
X11963918Y4660900D01*
X11968228Y4628164D01*
X11980863Y4597659D01*
X12000964Y4571464D01*
X12254963Y4317465D01*
X12254964Y4317464D01*
X12281159Y4297363D01*
X12311664Y4284728D01*
X12344400Y4280418D01*
X12344402Y4280418D01*
X15074898D01*
X15074899Y4280418D01*
X15107635Y4284728D01*
X15138141Y4297363D01*
X15164336Y4317464D01*
X15650873Y4804000D01*
X15764500D01*
Y4880767D01*
X15768637Y4886159D01*
X15781271Y4916664D01*
X15785582Y4949400D01*
Y5004400D01*
X15781271Y5037136D01*
X15768637Y5067641D01*
X15765366Y5071903D01*
Y5153386D01*
X15793913Y5181934D01*
X15976338D01*
X16032054Y5126218D01*
X16032056Y5126217D01*
X16053027Y5110124D01*
X16077451Y5100008D01*
X16103661Y5096557D01*
X16359651D01*
X16384079Y5086438D01*
X16412900Y5082644D01*
X16642899D01*
X16671719Y5086438D01*
X16698575Y5097563D01*
X16721637Y5115259D01*
X16739333Y5138320D01*
X16750456Y5165177D01*
X16754253Y5193997D01*
X16750456Y5222817D01*
X16739333Y5249673D01*
X16721637Y5272735D01*
X16698575Y5290431D01*
X16671719Y5301555D01*
X16642899Y5305349D01*
X16412900D01*
X16384079Y5301555D01*
X16378127Y5299089D01*
X16145607D01*
X16089891Y5354806D01*
X16068918Y5370899D01*
X16044495Y5381016D01*
X16018285Y5384466D01*
X16018282Y5384466D01*
X15751970D01*
X15751968Y5384466D01*
X15725758Y5381016D01*
X15701335Y5370899D01*
X15680362Y5354806D01*
X15680360Y5354805D01*
X15592494Y5266938D01*
X15576401Y5245965D01*
X15566284Y5221542D01*
X15564079Y5204800D01*
X15553700D01*
Y5073033D01*
X15549564Y5067641D01*
X15538400Y5040694D01*
X15534158Y5038937D01*
X15507964Y5018836D01*
X15022508Y4533382D01*
X13715851D01*
Y5980220D01*
X13793680Y6058049D01*
X14078423D01*
X14098106Y6060641D01*
X14116447Y6068238D01*
X14132199Y6080324D01*
X14190778Y6138903D01*
X14202863Y6154653D01*
X14206010Y6162251D01*
X14210461Y6172995D01*
X14213052Y6192679D01*
Y6279927D01*
X14213950Y6280765D01*
X14231950Y6272950D01*
Y6182039D01*
X14230908Y6176800D01*
Y6116800D01*
X14230949Y6116585D01*
Y6083502D01*
X13922044Y5774597D01*
X13909959Y5758846D01*
X13902362Y5740505D01*
X13899771Y5720821D01*
Y5654800D01*
X13746400D01*
Y5064000D01*
X14087199D01*
Y5654800D01*
X14051872D01*
Y5689320D01*
X14360777Y5998225D01*
X14372862Y6013976D01*
X14376010Y6021573D01*
X14380460Y6032317D01*
X14383051Y6052001D01*
Y6116585D01*
X14383093Y6116800D01*
Y6140532D01*
X14384052Y6147799D01*
Y6296690D01*
X14401601Y6297778D01*
X14402400Y6297778D01*
X14465300D01*
Y6477319D01*
Y6656860D01*
X14402400D01*
X14401601Y6656860D01*
X14384399D01*
X14383600Y6656860D01*
X14232401D01*
X14231601Y6656860D01*
X14214400D01*
X14213602Y6656860D01*
X14061601D01*
Y6481261D01*
X14060951Y6476320D01*
Y6224180D01*
X14046922Y6210151D01*
X13984943D01*
X13978915Y6225531D01*
X13978532Y6228151D01*
X13994199Y6248567D01*
X14004317Y6272990D01*
X14007767Y6299200D01*
Y6305782D01*
X14007767Y6305784D01*
X14004317Y6331993D01*
X13994199Y6356417D01*
X13978107Y6377390D01*
X13978105Y6377391D01*
X13867192Y6488304D01*
Y6527092D01*
X13867192Y6535891D01*
X13867192D01*
Y6545093D01*
X13867192D01*
Y6725892D01*
X13842844D01*
Y6761508D01*
X13867192D01*
Y6933508D01*
X13867192Y6946908D01*
X13867192Y6960308D01*
Y7029208D01*
D02*
G37*
G36*
X14894398Y6464619D02*
X14830699D01*
Y6297778D01*
X14894398D01*
Y6464619D01*
D02*
G37*
G36*
X17170399Y6273533D02*
Y6197600D01*
X17246333D01*
X17240543Y6219214D01*
X17228838Y6239486D01*
X17212286Y6256038D01*
X17192014Y6267742D01*
X17170399Y6273533D01*
D02*
G37*
G36*
X17145000D02*
X17123386Y6267742D01*
X17103114Y6256038D01*
X17086562Y6239486D01*
X17074858Y6219214D01*
X17069067Y6197600D01*
X17145000D01*
Y6273533D01*
D02*
G37*
G36*
X15200693Y6267692D02*
X15112991D01*
Y6189992D01*
X15200693D01*
Y6267692D01*
D02*
G37*
G36*
X15087592D02*
X14999892D01*
Y6189992D01*
X15087592D01*
Y6267692D01*
D02*
G37*
G36*
X13248000Y6225593D02*
X13220700D01*
Y6172200D01*
X13284093D01*
Y6189500D01*
X13281346Y6203312D01*
X13273521Y6215022D01*
X13261812Y6222846D01*
X13248000Y6225593D01*
D02*
G37*
G36*
X13195300D02*
X13167999D01*
X13154189Y6222846D01*
X13142477Y6215022D01*
X13134654Y6203312D01*
X13131908Y6189500D01*
Y6172200D01*
X13195300D01*
Y6225593D01*
D02*
G37*
G36*
X14651801Y6212893D02*
X14624501D01*
Y6159500D01*
X14687894D01*
Y6176800D01*
X14685147Y6190612D01*
X14677322Y6202322D01*
X14665613Y6210146D01*
X14651801Y6212893D01*
D02*
G37*
G36*
X14599101D02*
X14571802D01*
X14557990Y6210146D01*
X14546278Y6202322D01*
X14538455Y6190612D01*
X14535709Y6176800D01*
Y6159500D01*
X14599101D01*
Y6212893D01*
D02*
G37*
G36*
X17246333Y6172200D02*
X17170399D01*
Y6096267D01*
X17192014Y6102058D01*
X17212286Y6113762D01*
X17228838Y6130314D01*
X17240543Y6150586D01*
X17246333Y6172200D01*
D02*
G37*
G36*
X17145000D02*
X17069067D01*
X17074858Y6150586D01*
X17086562Y6130314D01*
X17103114Y6113762D01*
X17123386Y6102058D01*
X17145000Y6096267D01*
Y6172200D01*
D02*
G37*
G36*
X16560800Y6171933D02*
Y6096000D01*
X16636732D01*
X16630942Y6117614D01*
X16619238Y6137886D01*
X16602686Y6154438D01*
X16582414Y6166142D01*
X16560800Y6171933D01*
D02*
G37*
G36*
X16535400D02*
X16513786Y6166142D01*
X16493513Y6154438D01*
X16476962Y6137886D01*
X16465257Y6117614D01*
X16459467Y6096000D01*
X16535400D01*
Y6171933D01*
D02*
G37*
G36*
X13195300Y6146800D02*
X13131908D01*
Y6129500D01*
X13134654Y6115688D01*
X13142477Y6103978D01*
X13154189Y6096154D01*
X13167999Y6093407D01*
X13195300D01*
Y6146800D01*
D02*
G37*
G36*
X14687894Y6134100D02*
X14624501D01*
Y6080707D01*
X14651801D01*
X14665613Y6083454D01*
X14677322Y6091278D01*
X14685147Y6102988D01*
X14687894Y6116800D01*
Y6134100D01*
D02*
G37*
G36*
X14599101D02*
X14535709D01*
Y6116800D01*
X14538455Y6102988D01*
X14546278Y6091278D01*
X14557990Y6083454D01*
X14571802Y6080707D01*
X14599101D01*
Y6134100D01*
D02*
G37*
G36*
X16865601Y6269480D02*
Y6057499D01*
X16964253D01*
Y6159800D01*
X16960458Y6188620D01*
X16949335Y6215476D01*
X16931638Y6238538D01*
X16908575Y6256234D01*
X16881720Y6267358D01*
X16865601Y6269480D01*
D02*
G37*
G36*
X16840199D02*
X16824080Y6267358D01*
X16797224Y6256234D01*
X16774162Y6238538D01*
X16756467Y6215476D01*
X16745341Y6188620D01*
X16741547Y6159800D01*
Y6057499D01*
X16840199D01*
Y6269480D01*
D02*
G37*
G36*
X16265601Y6294520D02*
Y6057498D01*
X16369296D01*
Y6179797D01*
X16365331Y6209922D01*
X16353702Y6237995D01*
X16335205Y6262101D01*
X16311099Y6280598D01*
X16283026Y6292226D01*
X16265601Y6294520D01*
D02*
G37*
G36*
X16240201Y6294521D02*
X16222775Y6292226D01*
X16194704Y6280598D01*
X16170596Y6262101D01*
X16152100Y6237995D01*
X16140471Y6209922D01*
X16136505Y6179797D01*
Y6057498D01*
X16240201D01*
Y6294521D01*
D02*
G37*
G36*
X16636732Y6070600D02*
X16560800D01*
Y5994667D01*
X16582414Y6000458D01*
X16602686Y6012162D01*
X16619238Y6028714D01*
X16630942Y6048986D01*
X16636732Y6070600D01*
D02*
G37*
G36*
X16535400D02*
X16459467D01*
X16465257Y6048986D01*
X16476962Y6028714D01*
X16493513Y6012162D01*
X16513786Y6000458D01*
X16535400Y5994667D01*
Y6070600D01*
D02*
G37*
G36*
X11753608Y6056708D02*
Y5969008D01*
X11831308D01*
Y6056708D01*
X11753608D01*
D02*
G37*
G36*
X11831308Y5943608D02*
X11753608D01*
Y5855908D01*
X11831308D01*
Y5943608D01*
D02*
G37*
G36*
X16964253Y6032099D02*
X16865601D01*
Y5820120D01*
X16881720Y5822242D01*
X16908575Y5833366D01*
X16931638Y5851062D01*
X16949335Y5874124D01*
X16960458Y5900980D01*
X16964253Y5929800D01*
Y6032099D01*
D02*
G37*
G36*
X16840199D02*
X16741547D01*
Y5929800D01*
X16745341Y5900980D01*
X16756467Y5874124D01*
X16774162Y5851062D01*
X16797224Y5833366D01*
X16824080Y5822242D01*
X16840199Y5820120D01*
Y6032099D01*
D02*
G37*
G36*
X16369296Y6032098D02*
X16265601D01*
Y5795074D01*
X16283026Y5797368D01*
X16311099Y5808996D01*
X16335205Y5827493D01*
X16353702Y5851600D01*
X16365331Y5879672D01*
X16369296Y5909797D01*
Y6032098D01*
D02*
G37*
G36*
X16240201D02*
X16136505D01*
Y5909797D01*
X16140471Y5879672D01*
X16152100Y5851600D01*
X16170596Y5827493D01*
X16194704Y5808996D01*
X16222775Y5797368D01*
X16240201Y5795074D01*
Y6032098D01*
D02*
G37*
G36*
X15784500Y5915197D02*
X15671800D01*
Y5702497D01*
X15784500D01*
Y5915197D01*
D02*
G37*
G36*
X15646400D02*
X15533701D01*
Y5702497D01*
X15646400D01*
Y5915197D01*
D02*
G37*
G36*
X15659100Y5689797D02*
D01*
D01*
D01*
D02*
G37*
G36*
X17170399Y5727433D02*
Y5651500D01*
X17246333D01*
X17240543Y5673114D01*
X17228838Y5693386D01*
X17212286Y5709938D01*
X17192014Y5721642D01*
X17170399Y5727433D01*
D02*
G37*
G36*
X17145000D02*
X17123386Y5721642D01*
X17103114Y5709938D01*
X17086562Y5693386D01*
X17074858Y5673114D01*
X17069067Y5651500D01*
X17145000D01*
Y5727433D01*
D02*
G37*
G36*
X17246333Y5626100D02*
X17170399D01*
Y5550167D01*
X17192014Y5555958D01*
X17212286Y5567662D01*
X17228838Y5584214D01*
X17240543Y5604486D01*
X17246333Y5626100D01*
D02*
G37*
G36*
X17145000D02*
X17069067D01*
X17074858Y5604486D01*
X17086562Y5584214D01*
X17103114Y5567662D01*
X17123386Y5555958D01*
X17145000Y5550167D01*
Y5626100D01*
D02*
G37*
G36*
X15784500Y5677097D02*
X15671800D01*
Y5464397D01*
X15784500D01*
Y5677097D01*
D02*
G37*
G36*
X15646400D02*
X15533701D01*
Y5464397D01*
X15646400D01*
Y5677097D01*
D02*
G37*
G36*
X17170399Y5181333D02*
Y5105400D01*
X17246333D01*
X17240543Y5127014D01*
X17228838Y5147286D01*
X17212286Y5163838D01*
X17192014Y5175542D01*
X17170399Y5181333D01*
D02*
G37*
G36*
X17145000D02*
X17123386Y5175542D01*
X17103114Y5163838D01*
X17086562Y5147286D01*
X17074858Y5127014D01*
X17069067Y5105400D01*
X17145000D01*
Y5181333D01*
D02*
G37*
G36*
X17246333Y5080000D02*
X17170399D01*
Y5004067D01*
X17192014Y5009858D01*
X17212286Y5021562D01*
X17228838Y5038114D01*
X17240543Y5058386D01*
X17246333Y5080000D01*
D02*
G37*
G36*
X17145000D02*
X17069067D01*
X17074858Y5058386D01*
X17086562Y5038114D01*
X17103114Y5021562D01*
X17123386Y5009858D01*
X17145000Y5004067D01*
Y5080000D01*
D02*
G37*
G36*
X11010900Y5041633D02*
Y4965700D01*
X11086833D01*
X11081042Y4987314D01*
X11069338Y5007586D01*
X11052786Y5024138D01*
X11032514Y5035842D01*
X11010900Y5041633D01*
D02*
G37*
G36*
X10985500D02*
X10963886Y5035842D01*
X10943614Y5024138D01*
X10927062Y5007586D01*
X10915358Y4987314D01*
X10909567Y4965700D01*
X10985500D01*
Y5041633D01*
D02*
G37*
G36*
X11086833Y4940300D02*
X11010900D01*
Y4864367D01*
X11032514Y4870158D01*
X11052786Y4881862D01*
X11069338Y4898414D01*
X11081042Y4918686D01*
X11086833Y4940300D01*
D02*
G37*
G36*
X10985500D02*
X10909567D01*
X10915358Y4918686D01*
X10927062Y4898414D01*
X10943614Y4881862D01*
X10963886Y4870158D01*
X10985500Y4864367D01*
Y4940300D01*
D02*
G37*
G36*
X15951199Y4940033D02*
Y4864100D01*
X16027133D01*
X16021342Y4885714D01*
X16009637Y4905986D01*
X15993086Y4922538D01*
X15972813Y4934242D01*
X15951199Y4940033D01*
D02*
G37*
G36*
X15925800D02*
X15904185Y4934242D01*
X15883914Y4922538D01*
X15867361Y4905986D01*
X15855658Y4885714D01*
X15849867Y4864100D01*
X15925800D01*
Y4940033D01*
D02*
G37*
G36*
X16027133Y4838700D02*
X15951199D01*
Y4762767D01*
X15972813Y4768558D01*
X15993086Y4780262D01*
X16009637Y4796814D01*
X16021342Y4817086D01*
X16027133Y4838700D01*
D02*
G37*
G36*
X15925800D02*
X15849867D01*
X15855658Y4817086D01*
X15867361Y4796814D01*
X15883914Y4780262D01*
X15904185Y4768558D01*
X15925800Y4762767D01*
Y4838700D01*
D02*
G37*
G36*
X11280699Y4986826D02*
X11263274Y4984532D01*
X11235201Y4972904D01*
X11211095Y4954407D01*
X11192598Y4930300D01*
X11180970Y4902228D01*
X11177004Y4872103D01*
Y4749803D01*
X11280699D01*
Y4986826D01*
D02*
G37*
G36*
X10706100Y4961780D02*
Y4749800D01*
X10804753D01*
Y4852100D01*
X10800958Y4880920D01*
X10789834Y4907776D01*
X10772138Y4930838D01*
X10749076Y4948534D01*
X10722220Y4959658D01*
X10706100Y4961780D01*
D02*
G37*
G36*
X10680700D02*
X10664580Y4959658D01*
X10637724Y4948534D01*
X10614662Y4930838D01*
X10596966Y4907776D01*
X10585842Y4880920D01*
X10582047Y4852100D01*
Y4749800D01*
X10680700D01*
Y4961780D01*
D02*
G37*
G36*
X16560800Y4813033D02*
Y4737100D01*
X16636732D01*
X16630942Y4758714D01*
X16619238Y4778986D01*
X16602686Y4795538D01*
X16582414Y4807242D01*
X16560800Y4813033D01*
D02*
G37*
G36*
X16535400D02*
X16513786Y4807242D01*
X16493513Y4795538D01*
X16476962Y4778986D01*
X16465257Y4758714D01*
X16459467Y4737100D01*
X16535400D01*
Y4813033D01*
D02*
G37*
G36*
X16865601Y4948680D02*
Y4736699D01*
X16964253D01*
Y4839000D01*
X16960458Y4867820D01*
X16949335Y4894676D01*
X16931638Y4917738D01*
X16908575Y4935434D01*
X16881720Y4946558D01*
X16865601Y4948680D01*
D02*
G37*
G36*
X16840199D02*
X16824080Y4946558D01*
X16797224Y4935434D01*
X16774162Y4917738D01*
X16756467Y4894676D01*
X16745341Y4867820D01*
X16741547Y4839000D01*
Y4736699D01*
X16840199D01*
Y4948680D01*
D02*
G37*
G36*
X16265601Y4973720D02*
Y4736697D01*
X16369296D01*
Y4858997D01*
X16365331Y4889122D01*
X16353702Y4917195D01*
X16335205Y4941301D01*
X16311099Y4959798D01*
X16283026Y4971426D01*
X16265601Y4973720D01*
D02*
G37*
G36*
X16240201Y4973721D02*
X16222775Y4971426D01*
X16194704Y4959798D01*
X16170596Y4941301D01*
X16152100Y4917195D01*
X16140471Y4889122D01*
X16136505Y4858997D01*
Y4736697D01*
X16240201D01*
Y4973721D01*
D02*
G37*
G36*
X16636732Y4711700D02*
X16560800D01*
Y4635767D01*
X16582414Y4641558D01*
X16602686Y4653262D01*
X16619238Y4669814D01*
X16630942Y4690086D01*
X16636732Y4711700D01*
D02*
G37*
G36*
X16535400D02*
X16459467D01*
X16465257Y4690086D01*
X16476962Y4669814D01*
X16493513Y4653262D01*
X16513786Y4641558D01*
X16535400Y4635767D01*
Y4711700D01*
D02*
G37*
G36*
X15951199Y4673333D02*
Y4597400D01*
X16027133D01*
X16021342Y4619014D01*
X16009637Y4639286D01*
X15993086Y4655838D01*
X15972813Y4667542D01*
X15951199Y4673333D01*
D02*
G37*
G36*
X15925800D02*
X15904185Y4667542D01*
X15883914Y4655838D01*
X15867361Y4639286D01*
X15855658Y4619014D01*
X15849867Y4597400D01*
X15925800D01*
Y4673333D01*
D02*
G37*
G36*
X11010900Y4647933D02*
Y4572000D01*
X11086833D01*
X11081042Y4593614D01*
X11069338Y4613886D01*
X11052786Y4630438D01*
X11032514Y4642142D01*
X11010900Y4647933D01*
D02*
G37*
G36*
X10985500D02*
X10963886Y4642142D01*
X10943614Y4630438D01*
X10927062Y4613886D01*
X10915358Y4593614D01*
X10909567Y4572000D01*
X10985500D01*
Y4647933D01*
D02*
G37*
G36*
X17170399Y4635233D02*
Y4559300D01*
X17246333D01*
X17240543Y4580914D01*
X17228838Y4601186D01*
X17212286Y4617738D01*
X17192014Y4629442D01*
X17170399Y4635233D01*
D02*
G37*
G36*
X17145000D02*
X17123386Y4629442D01*
X17103114Y4617738D01*
X17086562Y4601186D01*
X17074858Y4580914D01*
X17069067Y4559300D01*
X17145000D01*
Y4635233D01*
D02*
G37*
G36*
X10804753Y4724400D02*
X10706100D01*
Y4512420D01*
X10722220Y4514542D01*
X10749076Y4525666D01*
X10772138Y4543362D01*
X10789834Y4566424D01*
X10800958Y4593280D01*
X10804753Y4622100D01*
Y4724400D01*
D02*
G37*
G36*
X16964253Y4711299D02*
X16865601D01*
Y4499320D01*
X16881720Y4501442D01*
X16908575Y4512566D01*
X16931638Y4530262D01*
X16949335Y4553324D01*
X16960458Y4580180D01*
X16964253Y4609000D01*
Y4711299D01*
D02*
G37*
G36*
X16840199D02*
X16741547D01*
Y4609000D01*
X16745341Y4580180D01*
X16756467Y4553324D01*
X16774162Y4530262D01*
X16797224Y4512566D01*
X16824080Y4501442D01*
X16840199Y4499320D01*
Y4711299D01*
D02*
G37*
G36*
X16027133Y4572000D02*
X15951199D01*
Y4496067D01*
X15972813Y4501858D01*
X15993086Y4513562D01*
X16009637Y4530114D01*
X16021342Y4550386D01*
X16027133Y4572000D01*
D02*
G37*
G36*
X15925800D02*
X15849867D01*
X15855658Y4550386D01*
X15867361Y4530114D01*
X15883914Y4513562D01*
X15904185Y4501858D01*
X15925800Y4496067D01*
Y4572000D01*
D02*
G37*
G36*
X11280699Y4724403D02*
X11177004D01*
Y4602103D01*
X11180970Y4571978D01*
X11192598Y4543905D01*
X11211095Y4519799D01*
X11235201Y4501302D01*
X11263274Y4489674D01*
X11280699Y4487379D01*
Y4724403D01*
D02*
G37*
G36*
X10377800Y6362182D02*
X10345064Y6357872D01*
X10314559Y6345237D01*
X10306561Y6339100D01*
X10235900D01*
Y6225984D01*
X10234202Y6213084D01*
X10234202Y6213082D01*
Y5968709D01*
X10234202Y5968707D01*
X10234818Y5964027D01*
Y5883902D01*
X10234817Y5883900D01*
X10235900Y5875678D01*
Y5764000D01*
X10251318D01*
Y5602500D01*
X10235900D01*
Y5395700D01*
X10251318D01*
Y4608202D01*
X10251318Y4608200D01*
X10255628Y4575464D01*
X10268263Y4544959D01*
X10288363Y4518764D01*
X10629460Y4177668D01*
X10629460Y4177667D01*
X10655656Y4157566D01*
X10686161Y4144931D01*
X10718897Y4140621D01*
X10718899Y4140621D01*
X11018401D01*
X11051137Y4144931D01*
X11077258Y4155751D01*
X11133400D01*
X11162221Y4159545D01*
X11189077Y4170669D01*
X11212139Y4188365D01*
X11229835Y4211427D01*
X11231611Y4215716D01*
X11426110D01*
X11445776Y4219628D01*
X11462447Y4230767D01*
X11491736Y4260057D01*
X11493319Y4262425D01*
X11516493Y4264707D01*
X11562800Y4218400D01*
X11607800D01*
Y4368800D01*
Y4519200D01*
X11562800D01*
X11523417Y4479817D01*
X11506787Y4486705D01*
Y4685627D01*
X11524008Y4687508D01*
Y4687508D01*
X11696008D01*
X11704808Y4687508D01*
X11715629D01*
X11728358Y4674780D01*
Y4495540D01*
X11728516Y4494341D01*
X11711467Y4485933D01*
X11678200Y4519200D01*
X11633200D01*
Y4381500D01*
X11735900D01*
Y4420966D01*
X11753900Y4428876D01*
X11760596Y4422729D01*
X11758104Y4403800D01*
Y4333800D01*
X11762070Y4303674D01*
X11773699Y4275602D01*
X11792196Y4251496D01*
X11816302Y4232998D01*
X11844375Y4221370D01*
X11874500Y4217404D01*
X11904625Y4221370D01*
X11932698Y4232998D01*
X11956804Y4251496D01*
X11975301Y4275602D01*
X11986930Y4303674D01*
X11990896Y4333800D01*
Y4403800D01*
X11986930Y4433926D01*
X11975301Y4461998D01*
X11956804Y4486104D01*
X11932698Y4504602D01*
X11904625Y4516230D01*
X11889245Y4518255D01*
X11880459Y4527041D01*
Y4687508D01*
X11894808D01*
Y4888308D01*
X11722808D01*
X11709408Y4888308D01*
X11696008Y4888308D01*
X11524008D01*
Y4839295D01*
X11484690D01*
X11465024Y4835384D01*
X11448353Y4824244D01*
X11427795Y4803686D01*
X11409795Y4811142D01*
Y4872103D01*
X11405829Y4902228D01*
X11394200Y4930300D01*
X11375703Y4954407D01*
X11351597Y4972904D01*
X11323524Y4984532D01*
X11306099Y4986826D01*
Y4737103D01*
Y4487379D01*
X11323524Y4489674D01*
X11351597Y4501302D01*
X11375703Y4519799D01*
X11386013Y4533235D01*
X11404013Y4527125D01*
Y4318490D01*
X11231611D01*
X11229835Y4322780D01*
X11212139Y4345841D01*
X11189077Y4363537D01*
X11162221Y4374662D01*
X11133400Y4378456D01*
X11077258D01*
X11051137Y4389275D01*
X11018401Y4393585D01*
X10771287D01*
X10669078Y4495794D01*
X10677486Y4512843D01*
X10680700Y4512420D01*
Y4724400D01*
X10582047D01*
Y4622100D01*
X10584143Y4606186D01*
X10567094Y4597779D01*
X10504282Y4660591D01*
Y5395700D01*
X10519700D01*
Y5602500D01*
X10504282D01*
Y5764000D01*
X10519700D01*
Y5970800D01*
X10487425D01*
X10487166Y5972770D01*
Y6132300D01*
X10519700D01*
Y6339100D01*
X10449039D01*
X10441041Y6345237D01*
X10410536Y6357872D01*
X10377800Y6362182D01*
D02*
G37*
G36*
X11086833Y4546600D02*
X11010900D01*
Y4470667D01*
X11032514Y4476458D01*
X11052786Y4488162D01*
X11069338Y4504714D01*
X11081042Y4524986D01*
X11086833Y4546600D01*
D02*
G37*
G36*
X10985500D02*
X10909567D01*
X10915358Y4524986D01*
X10927062Y4504714D01*
X10943614Y4488162D01*
X10963886Y4476458D01*
X10985500Y4470667D01*
Y4546600D01*
D02*
G37*
G36*
X17246333Y4533900D02*
X17170399D01*
Y4457967D01*
X17192014Y4463758D01*
X17212286Y4475462D01*
X17228838Y4492014D01*
X17240543Y4512286D01*
X17246333Y4533900D01*
D02*
G37*
G36*
X17145000D02*
X17069067D01*
X17074858Y4512286D01*
X17086562Y4492014D01*
X17103114Y4475462D01*
X17123386Y4463758D01*
X17145000Y4457967D01*
Y4533900D01*
D02*
G37*
G36*
X15646400Y4644800D02*
X15553700D01*
Y4457101D01*
X15646400D01*
Y4644800D01*
D02*
G37*
G36*
X16369296Y4711297D02*
X16252901D01*
X16136505D01*
Y4588997D01*
X16140471Y4558872D01*
X16151636Y4531922D01*
Y4320814D01*
X16123087Y4292266D01*
X15793913D01*
X15765366Y4320814D01*
Y4439398D01*
X15765366Y4439400D01*
X15764500Y4445982D01*
Y4644800D01*
X15671800D01*
Y4444401D01*
X15659100D01*
Y4431701D01*
X15553700D01*
Y4244000D01*
X15569872D01*
X15576401Y4228235D01*
X15592494Y4207262D01*
X15680360Y4119395D01*
X15680362Y4119394D01*
X15701335Y4103301D01*
X15725758Y4093184D01*
X15751968Y4089734D01*
X15751970Y4089734D01*
X16165031D01*
X16165033Y4089734D01*
X16191243Y4093184D01*
X16215666Y4103301D01*
X16236639Y4119394D01*
X16324506Y4207261D01*
X16324507Y4207262D01*
X16340601Y4228235D01*
X16350717Y4252658D01*
X16354167Y4278868D01*
X16354167Y4278870D01*
Y4531922D01*
X16365331Y4558872D01*
X16369296Y4588997D01*
Y4711297D01*
D02*
G37*
G36*
X11735900Y4356100D02*
X11633200D01*
Y4218400D01*
X11678200D01*
X11735900Y4276100D01*
Y4356100D01*
D02*
G37*
G36*
X9817100Y7911833D02*
Y7835900D01*
X9893033D01*
X9887242Y7857514D01*
X9875538Y7877786D01*
X9858986Y7894338D01*
X9838714Y7906042D01*
X9817100Y7911833D01*
D02*
G37*
G36*
X9791700D02*
X9770086Y7906042D01*
X9749814Y7894338D01*
X9733262Y7877786D01*
X9721558Y7857514D01*
X9715767Y7835900D01*
X9791700D01*
Y7911833D01*
D02*
G37*
G36*
X9893033Y7810500D02*
X9817100D01*
Y7734567D01*
X9838714Y7740358D01*
X9858986Y7752062D01*
X9875538Y7768614D01*
X9887242Y7788886D01*
X9893033Y7810500D01*
D02*
G37*
G36*
X9791700D02*
X9715767D01*
X9721558Y7788886D01*
X9733262Y7768614D01*
X9749814Y7752062D01*
X9770086Y7740358D01*
X9791700Y7734567D01*
Y7810500D01*
D02*
G37*
G36*
X7874000Y8065087D02*
X3022600D01*
X3002935Y8061176D01*
X2986264Y8050036D01*
X2938497Y8002269D01*
X2927357Y7985598D01*
X2923446Y7965933D01*
Y7962900D01*
X2908300D01*
X2857500Y7912100D01*
Y7759700D01*
X2908300Y7708900D01*
X3009900D01*
X3060700Y7759700D01*
Y7912100D01*
X3027186Y7945614D01*
X3043885Y7962313D01*
X3138195D01*
X3145083Y7945683D01*
X3111500Y7912100D01*
Y7759700D01*
X3137049Y7734151D01*
Y7626101D01*
X3108524Y7597576D01*
X3096438Y7581825D01*
X3088841Y7563483D01*
X3086249Y7543800D01*
Y7439800D01*
X2886900D01*
Y7089000D01*
X3235027D01*
X3618964Y6705064D01*
X3645159Y6684963D01*
X3675664Y6672328D01*
X3708400Y6668018D01*
X3708402Y6668018D01*
X4187009D01*
X4492318Y6362709D01*
Y6328602D01*
X4492318Y6328600D01*
X4493400Y6320380D01*
Y6108700D01*
X4752200D01*
Y6540500D01*
X4672273D01*
X4328836Y6883936D01*
X4302641Y6904037D01*
X4272136Y6916672D01*
X4239400Y6920982D01*
X4239398Y6920982D01*
X3760791D01*
X3437700Y7244073D01*
Y7439800D01*
X3238351D01*
Y7512299D01*
X3266876Y7540824D01*
X3278962Y7556575D01*
X3286559Y7574917D01*
X3289151Y7594600D01*
Y7734151D01*
X3314700Y7759700D01*
Y7912100D01*
X3281117Y7945683D01*
X3288005Y7962313D01*
X3392195D01*
X3399083Y7945683D01*
X3365500Y7912100D01*
Y7759700D01*
X3416300Y7708900D01*
X3517900D01*
X3568700Y7759700D01*
Y7912100D01*
X3535117Y7945683D01*
X3542005Y7962313D01*
X5128583D01*
X5145500Y7959700D01*
X5145500Y7944313D01*
Y7522000D01*
X5720899D01*
X6296298D01*
Y7944313D01*
X6296298Y7959700D01*
X6313216Y7962313D01*
X6532383D01*
X6549301Y7959700D01*
X6549301Y7944313D01*
Y7522001D01*
X7124700D01*
Y7509301D01*
D01*
Y7522001D01*
X7700099D01*
Y7944313D01*
X7700099Y7959700D01*
X7717017Y7962313D01*
X7852715D01*
X8002764Y7812264D01*
X8019435Y7801124D01*
X8039100Y7797213D01*
X8179318D01*
Y7773600D01*
X8180400Y7765381D01*
Y7716116D01*
X8179318Y7707897D01*
Y7660288D01*
X7924264Y7405234D01*
X7904163Y7379038D01*
X7891528Y7348533D01*
X7887218Y7315797D01*
X7887218Y7315795D01*
Y6978074D01*
X7746992D01*
X7720782Y6974624D01*
X7702879Y6967208D01*
X7646592D01*
Y6883389D01*
X7645726Y6876808D01*
X7646592Y6870227D01*
Y6786409D01*
X7632133Y6777859D01*
X7628293D01*
X7507076Y6899076D01*
X7491325Y6911162D01*
X7472984Y6918759D01*
X7453300Y6921351D01*
X7353300D01*
X7333617Y6918759D01*
X7322872Y6914309D01*
X7315275Y6911162D01*
X7299524Y6899076D01*
X7240924Y6840476D01*
X7228838Y6824725D01*
X7221240Y6806383D01*
X7218649Y6786700D01*
Y6657948D01*
X7201099Y6656860D01*
X7200300Y6656860D01*
X7137400D01*
Y6477319D01*
Y6297778D01*
X7200300D01*
X7201099Y6297778D01*
X7218300D01*
X7219100Y6297778D01*
X7371099D01*
Y6297777D01*
X7388300D01*
Y6297778D01*
X7451999D01*
Y6477319D01*
X7464699D01*
Y6490019D01*
X7541099D01*
Y6626815D01*
X7558767Y6635946D01*
X7566364Y6632799D01*
X7577109Y6628349D01*
X7596792Y6625757D01*
X7646592D01*
Y6596408D01*
X7670941D01*
Y6560792D01*
X7646592D01*
Y6388792D01*
X7646592Y6375392D01*
X7646592Y6361992D01*
Y6293092D01*
X7746992D01*
X7847392D01*
Y6361992D01*
X7847392Y6375392D01*
X7847392Y6388792D01*
Y6560792D01*
X7823043D01*
Y6596408D01*
X7847392D01*
Y6775542D01*
X7887218D01*
Y5528948D01*
X7844152Y5485882D01*
X7703900D01*
Y5654800D01*
X7363100D01*
Y5064000D01*
X7703900D01*
Y5232918D01*
X7896540D01*
X7896542Y5232918D01*
X7929279Y5237228D01*
X7959783Y5249863D01*
X7985979Y5269964D01*
X8103136Y5387121D01*
X8123237Y5413317D01*
X8135872Y5443821D01*
X8140182Y5476557D01*
X8140182Y5476560D01*
Y6883400D01*
Y7263406D01*
X8359273Y7482497D01*
X8431200D01*
Y7599677D01*
X8432282Y7607897D01*
X8432282Y7607899D01*
Y7707897D01*
X8431200Y7716116D01*
Y7754424D01*
X8436993Y7760218D01*
X8672509D01*
X8699267Y7733460D01*
X8725462Y7713360D01*
X8755968Y7700724D01*
X8788704Y7696414D01*
X8788706Y7696415D01*
X9174599D01*
X9207335Y7700725D01*
X9233457Y7711544D01*
X9289599D01*
X9318419Y7715338D01*
X9345275Y7726463D01*
X9368337Y7744159D01*
X9386033Y7767220D01*
X9397157Y7794077D01*
X9400952Y7822897D01*
X9397157Y7851717D01*
X9386033Y7878573D01*
X9368337Y7901635D01*
X9345275Y7919331D01*
X9318419Y7930455D01*
X9289599Y7934249D01*
X9233457D01*
X9207335Y7945069D01*
X9174599Y7949379D01*
X8841094D01*
X8814337Y7976136D01*
X8788141Y7996237D01*
X8757636Y8008872D01*
X8724900Y8013182D01*
X8724898Y8013182D01*
X8384605D01*
X8384603Y8013182D01*
X8351867Y8008872D01*
X8321362Y7996237D01*
X8295166Y7976136D01*
X8295166Y7976135D01*
X8252327Y7933297D01*
X8180400D01*
Y7899987D01*
X8060385D01*
X7910336Y8050036D01*
X7893665Y8061176D01*
X7874000Y8065087D01*
D02*
G37*
G36*
X3568700Y7607033D02*
Y7531100D01*
X3644633D01*
X3638842Y7552714D01*
X3627138Y7572986D01*
X3610586Y7589538D01*
X3590314Y7601242D01*
X3568700Y7607033D01*
D02*
G37*
G36*
X3543300D02*
X3521686Y7601242D01*
X3501414Y7589538D01*
X3484862Y7572986D01*
X3473158Y7552714D01*
X3467367Y7531100D01*
X3543300D01*
Y7607033D01*
D02*
G37*
G36*
X4965700Y7937500D02*
X4381500D01*
Y7480300D01*
X4965700D01*
Y7937500D01*
D02*
G37*
G36*
X4356100D02*
X3771900D01*
Y7480300D01*
X4356100D01*
Y7937500D01*
D02*
G37*
G36*
X3644633Y7505700D02*
X3568700D01*
Y7429767D01*
X3590314Y7435558D01*
X3610586Y7447262D01*
X3627138Y7463814D01*
X3638842Y7484086D01*
X3644633Y7505700D01*
D02*
G37*
G36*
X3543300D02*
X3467367D01*
X3473158Y7484086D01*
X3484862Y7463814D01*
X3501414Y7447262D01*
X3521686Y7435558D01*
X3543300Y7429767D01*
Y7505700D01*
D02*
G37*
G36*
X9194800Y7454633D02*
Y7378700D01*
X9270733D01*
X9264942Y7400314D01*
X9253238Y7420586D01*
X9236686Y7437138D01*
X9216414Y7448842D01*
X9194800Y7454633D01*
D02*
G37*
G36*
X9169400D02*
X9147786Y7448842D01*
X9127514Y7437138D01*
X9110962Y7420586D01*
X9099258Y7400314D01*
X9093467Y7378700D01*
X9169400D01*
Y7454633D01*
D02*
G37*
G36*
X8623300Y7441933D02*
Y7366000D01*
X8699233D01*
X8693442Y7387614D01*
X8681738Y7407886D01*
X8665186Y7424438D01*
X8644914Y7436142D01*
X8623300Y7441933D01*
D02*
G37*
G36*
X8597900D02*
X8576286Y7436142D01*
X8556014Y7424438D01*
X8539462Y7407886D01*
X8527758Y7387614D01*
X8521967Y7366000D01*
X8597900D01*
Y7441933D01*
D02*
G37*
G36*
X9512300Y7577580D02*
Y7365599D01*
X9610953D01*
Y7467900D01*
X9607158Y7496720D01*
X9596034Y7523576D01*
X9578338Y7546638D01*
X9555276Y7564334D01*
X9528420Y7575458D01*
X9512300Y7577580D01*
D02*
G37*
G36*
X9486900D02*
X9470780Y7575458D01*
X9443924Y7564334D01*
X9420862Y7546638D01*
X9403166Y7523576D01*
X9392042Y7496720D01*
X9388247Y7467900D01*
Y7365599D01*
X9486900D01*
Y7577580D01*
D02*
G37*
G36*
X8912301Y7602620D02*
Y7365598D01*
X9015996D01*
Y7487897D01*
X9012030Y7518022D01*
X9000402Y7546095D01*
X8981905Y7570201D01*
X8957799Y7588698D01*
X8929726Y7600326D01*
X8912301Y7602620D01*
D02*
G37*
G36*
X8886901Y7602621D02*
X8869476Y7600326D01*
X8841403Y7588698D01*
X8817297Y7570201D01*
X8798800Y7546095D01*
X8787171Y7518022D01*
X8783205Y7487897D01*
Y7365598D01*
X8886901D01*
Y7602621D01*
D02*
G37*
G36*
X9817100Y7365733D02*
Y7289800D01*
X9893033D01*
X9887242Y7311414D01*
X9875538Y7331686D01*
X9858986Y7348238D01*
X9838714Y7359942D01*
X9817100Y7365733D01*
D02*
G37*
G36*
X9791700D02*
X9770086Y7359942D01*
X9749814Y7348238D01*
X9733262Y7331686D01*
X9721558Y7311414D01*
X9715767Y7289800D01*
X9791700D01*
Y7365733D01*
D02*
G37*
G36*
X9270733Y7353300D02*
X9194800D01*
Y7277367D01*
X9216414Y7283158D01*
X9236686Y7294862D01*
X9253238Y7311414D01*
X9264942Y7331686D01*
X9270733Y7353300D01*
D02*
G37*
G36*
X9169400D02*
X9093467D01*
X9099258Y7331686D01*
X9110962Y7311414D01*
X9127514Y7294862D01*
X9147786Y7283158D01*
X9169400Y7277367D01*
Y7353300D01*
D02*
G37*
G36*
X8699233Y7340600D02*
X8623300D01*
Y7264667D01*
X8644914Y7270458D01*
X8665186Y7282162D01*
X8681738Y7298714D01*
X8693442Y7318986D01*
X8699233Y7340600D01*
D02*
G37*
G36*
X8597900D02*
X8521967D01*
X8527758Y7318986D01*
X8539462Y7298714D01*
X8556014Y7282162D01*
X8576286Y7270458D01*
X8597900Y7264667D01*
Y7340600D01*
D02*
G37*
G36*
X9893033Y7264400D02*
X9817100D01*
Y7188467D01*
X9838714Y7194258D01*
X9858986Y7205962D01*
X9875538Y7222514D01*
X9887242Y7242786D01*
X9893033Y7264400D01*
D02*
G37*
G36*
X9791700D02*
X9715767D01*
X9721558Y7242786D01*
X9733262Y7222514D01*
X9749814Y7205962D01*
X9770086Y7194258D01*
X9791700Y7188467D01*
Y7264400D01*
D02*
G37*
G36*
X9610953Y7340199D02*
X9512300D01*
Y7128220D01*
X9528420Y7130342D01*
X9555276Y7141466D01*
X9578338Y7159162D01*
X9596034Y7182224D01*
X9607158Y7209080D01*
X9610953Y7237900D01*
Y7340199D01*
D02*
G37*
G36*
X9486900D02*
X9388247D01*
Y7237900D01*
X9392042Y7209080D01*
X9403166Y7182224D01*
X9420862Y7159162D01*
X9443924Y7141466D01*
X9470780Y7130342D01*
X9486900Y7128220D01*
Y7340199D01*
D02*
G37*
G36*
X9015996Y7340198D02*
X8912301D01*
Y7103174D01*
X8929726Y7105468D01*
X8957799Y7117096D01*
X8981905Y7135593D01*
X9000402Y7159700D01*
X9012030Y7187772D01*
X9015996Y7217897D01*
Y7340198D01*
D02*
G37*
G36*
X8886901D02*
X8783205D01*
Y7217897D01*
X8787171Y7187772D01*
X8798800Y7159700D01*
X8817297Y7135593D01*
X8841403Y7117096D01*
X8869476Y7105468D01*
X8886901Y7103174D01*
Y7340198D01*
D02*
G37*
G36*
X7700099Y7496601D02*
X7137400D01*
Y7058902D01*
X7700099D01*
Y7496601D01*
D02*
G37*
G36*
X7112000D02*
X6549301D01*
Y7058902D01*
X7112000D01*
Y7496601D01*
D02*
G37*
G36*
X5708199Y7496600D02*
X5145500D01*
Y7058902D01*
X5708199D01*
Y7496600D01*
D02*
G37*
G36*
X6426192Y7132308D02*
Y7054608D01*
X6513892D01*
Y7132308D01*
X6426192D01*
D02*
G37*
G36*
X6296298Y7496600D02*
X5733599D01*
Y7058902D01*
X6295092D01*
X6296298Y7058901D01*
X6313092Y7055990D01*
Y7054608D01*
X6400792D01*
Y7132308D01*
X6314298D01*
X6313092Y7132308D01*
X6296298Y7135220D01*
Y7496600D01*
D02*
G37*
G36*
X8431200Y7223297D02*
X8318500D01*
Y7010597D01*
X8431200D01*
Y7223297D01*
D02*
G37*
G36*
X8293100D02*
X8180400D01*
Y7010597D01*
X8293100D01*
Y7223297D01*
D02*
G37*
G36*
X4965700Y7454900D02*
X4381500D01*
Y6997700D01*
X4965700D01*
Y7454900D01*
D02*
G37*
G36*
X4356100D02*
X3771900D01*
Y6997700D01*
X4356100D01*
Y7454900D01*
D02*
G37*
G36*
X8431200Y6985197D02*
X8318500D01*
Y6772497D01*
X8431200D01*
Y6985197D01*
D02*
G37*
G36*
X8293100D02*
X8180400D01*
Y6772497D01*
X8293100D01*
Y6985197D01*
D02*
G37*
G36*
X9817100Y6819633D02*
Y6743700D01*
X9893033D01*
X9887242Y6765314D01*
X9875538Y6785586D01*
X9858986Y6802138D01*
X9838714Y6813842D01*
X9817100Y6819633D01*
D02*
G37*
G36*
X9791700D02*
X9770086Y6813842D01*
X9749814Y6802138D01*
X9733262Y6785586D01*
X9721558Y6765314D01*
X9715767Y6743700D01*
X9791700D01*
Y6819633D01*
D02*
G37*
G36*
X5016500Y6806933D02*
Y6731000D01*
X5092433D01*
X5086642Y6752614D01*
X5074938Y6772886D01*
X5058386Y6789438D01*
X5038114Y6801142D01*
X5016500Y6806933D01*
D02*
G37*
G36*
X4991100D02*
X4969486Y6801142D01*
X4949214Y6789438D01*
X4932662Y6772886D01*
X4920958Y6752614D01*
X4915167Y6731000D01*
X4991100D01*
Y6806933D01*
D02*
G37*
G36*
X9893033Y6718300D02*
X9817100D01*
Y6642367D01*
X9838714Y6648158D01*
X9858986Y6659862D01*
X9875538Y6676414D01*
X9887242Y6696686D01*
X9893033Y6718300D01*
D02*
G37*
G36*
X9791700D02*
X9715767D01*
X9721558Y6696686D01*
X9733262Y6676414D01*
X9749814Y6659862D01*
X9770086Y6648158D01*
X9791700Y6642367D01*
Y6718300D01*
D02*
G37*
G36*
X5092433Y6705600D02*
X5016500D01*
Y6629667D01*
X5038114Y6635458D01*
X5058386Y6647162D01*
X5074938Y6663714D01*
X5086642Y6683986D01*
X5092433Y6705600D01*
D02*
G37*
G36*
X4991100D02*
X4915167D01*
X4920958Y6683986D01*
X4932662Y6663714D01*
X4949214Y6647162D01*
X4969486Y6635458D01*
X4991100Y6629667D01*
Y6705600D01*
D02*
G37*
G36*
X8851900Y6832266D02*
X8825691Y6828816D01*
X8801267Y6818699D01*
X8780294Y6802606D01*
X8776771Y6799083D01*
X8760678Y6778110D01*
X8750561Y6753687D01*
X8747110Y6727477D01*
X8747111Y6727475D01*
Y6606824D01*
X8431200D01*
Y6625197D01*
X8180400D01*
Y6174397D01*
X8431200D01*
Y6404292D01*
X9036218D01*
X9036220Y6404292D01*
X9044690Y6405407D01*
X9059600Y6403444D01*
X9289599D01*
X9318419Y6407238D01*
X9345275Y6418363D01*
X9368337Y6436059D01*
X9386033Y6459120D01*
X9397157Y6485977D01*
X9400952Y6514797D01*
X9397157Y6543617D01*
X9386033Y6570473D01*
X9368337Y6593535D01*
X9345275Y6611231D01*
X9318419Y6622355D01*
X9289599Y6626149D01*
X9059600D01*
X9030779Y6622355D01*
X9003923Y6611231D01*
X8998181Y6606824D01*
X8949643D01*
Y6704615D01*
X8949716Y6704791D01*
X8953166Y6731000D01*
X8949716Y6757210D01*
X8939599Y6781633D01*
X8923506Y6802606D01*
X8902533Y6818699D01*
X8878110Y6828816D01*
X8851900Y6832266D01*
D02*
G37*
G36*
X6137298Y6656860D02*
X6073598D01*
Y6490019D01*
X6137298D01*
Y6656860D01*
D02*
G37*
G36*
X6513892Y7029208D02*
X6413492D01*
X6313092D01*
Y6960308D01*
X6313092Y6951508D01*
Y6940687D01*
X6300364Y6927959D01*
X6039108D01*
X6019425Y6925367D01*
X6001083Y6917770D01*
X5985332Y6905684D01*
X5838122Y6758474D01*
X5826036Y6742723D01*
X5818439Y6724382D01*
X5815847Y6704698D01*
Y6658208D01*
X5814499Y6656860D01*
X5797299D01*
X5796499Y6656860D01*
X5733599D01*
Y6477319D01*
Y6297778D01*
X5796499D01*
X5797299Y6297778D01*
X5814499D01*
X5815299Y6297778D01*
X5966499D01*
X5967298Y6297778D01*
Y6297777D01*
X5984500D01*
Y6297778D01*
X6048198D01*
Y6477319D01*
X6060898D01*
D01*
X6048198D01*
Y6656860D01*
X5984499D01*
Y6656860D01*
X5976201Y6658615D01*
X5972539Y6677788D01*
X6070609Y6775857D01*
X6313092D01*
Y6761508D01*
X6337441D01*
Y6725892D01*
X6313092D01*
Y6545093D01*
X6313092Y6545092D01*
Y6535891D01*
X6313092D01*
X6313092Y6527092D01*
Y6488304D01*
X6153928Y6329140D01*
X6137298Y6336028D01*
Y6464619D01*
X6073598D01*
Y6297778D01*
X6099047D01*
X6105936Y6281148D01*
X5948194Y6123406D01*
X5947843Y6122949D01*
X5932244Y6128943D01*
X5930793Y6130298D01*
Y6146800D01*
X5867400D01*
Y6093407D01*
X5894700D01*
X5908512Y6096154D01*
X5910593Y6097544D01*
X5925133Y6085611D01*
X5921984Y6078010D01*
X5918534Y6051800D01*
X5918534Y6051798D01*
Y5667500D01*
X5849400D01*
Y5076700D01*
X6190200D01*
Y5667500D01*
X6121066D01*
Y6009854D01*
X6413492Y6302280D01*
X6464296Y6251475D01*
X6465501Y6248567D01*
X6481167Y6228151D01*
X6480785Y6225531D01*
X6474758Y6210151D01*
X6408879D01*
X6389195Y6207559D01*
X6370853Y6199962D01*
X6355103Y6187876D01*
X6232724Y6065497D01*
X6220638Y6049747D01*
X6213041Y6031405D01*
X6210449Y6011721D01*
Y4533382D01*
X5043491D01*
X4863582Y4713291D01*
Y5071432D01*
X4879400Y5076700D01*
Y5076700D01*
X5220200D01*
Y5559948D01*
X5603676Y5943424D01*
X5615762Y5959175D01*
X5618909Y5966772D01*
X5623359Y5977517D01*
X5625951Y5997200D01*
Y6129285D01*
X5625993Y6129500D01*
Y6189500D01*
X5625951Y6189715D01*
Y6296429D01*
X5627299Y6297778D01*
X5644500D01*
X5645299Y6297778D01*
X5708199D01*
Y6477319D01*
Y6656860D01*
X5645299D01*
X5644500Y6656860D01*
X5627299D01*
X5626500Y6656860D01*
X5474500D01*
Y6656861D01*
X5457299D01*
Y6656860D01*
X5456500Y6656860D01*
X5304500D01*
Y6552711D01*
X5302162Y6550917D01*
X4699980Y5948735D01*
X4673859Y5937915D01*
X4647664Y5917815D01*
X4627563Y5891620D01*
X4614928Y5861115D01*
X4610618Y5828378D01*
Y5663682D01*
X4191000D01*
X4158264Y5659372D01*
X4127759Y5646737D01*
X4117416Y5638800D01*
X4114800D01*
X4106175Y5630175D01*
X4101564Y5626636D01*
X4098025Y5622025D01*
X4064000Y5588000D01*
Y5486400D01*
X4098025Y5452375D01*
X4101564Y5447764D01*
X4106175Y5444225D01*
X4114800Y5435600D01*
X4121297Y5427682D01*
X4113053Y5409682D01*
X3715291D01*
X3594400Y5530573D01*
Y5602500D01*
X3578982D01*
Y5764000D01*
X3594400D01*
Y5970800D01*
X3578982D01*
Y6121970D01*
X3596982Y6124340D01*
X3600158Y6112486D01*
X3611862Y6092214D01*
X3628414Y6075662D01*
X3631613Y6073815D01*
Y5994400D01*
X3635524Y5974735D01*
X3646664Y5958064D01*
X3684756Y5919972D01*
X3701427Y5908832D01*
X3721092Y5904921D01*
X3751608D01*
Y5855908D01*
X3923608D01*
X3937008Y5855908D01*
X3950408Y5855908D01*
X4279208D01*
X4292608Y5855908D01*
X4306008Y5855908D01*
X4374908D01*
Y5956308D01*
Y6056708D01*
X4306008D01*
X4292608Y6056708D01*
X4279208Y6056708D01*
X4166187D01*
Y6108700D01*
X4244200D01*
Y6540500D01*
X3985400D01*
Y6108700D01*
X4063413D01*
Y6056708D01*
X3950408D01*
X3937008Y6056708D01*
X3923608Y6056708D01*
X3751608D01*
Y6056708D01*
X3740809Y6057888D01*
X3738329Y6071564D01*
X3738203Y6076279D01*
X3754138Y6092214D01*
X3765842Y6112486D01*
X3771900Y6135096D01*
Y6158504D01*
X3765842Y6181114D01*
X3754138Y6201386D01*
X3737586Y6217938D01*
X3717314Y6229642D01*
X3694704Y6235700D01*
X3671296D01*
X3648686Y6229642D01*
X3628414Y6217938D01*
X3612400Y6201924D01*
X3609911Y6202029D01*
X3594400Y6207140D01*
Y6339100D01*
X3578982D01*
Y6466200D01*
X3574672Y6498936D01*
X3562037Y6529441D01*
X3541937Y6555636D01*
X3541936Y6555637D01*
X3419381Y6678192D01*
X3425133Y6688953D01*
X3435162Y6722016D01*
X3438549Y6756400D01*
X3435162Y6790784D01*
X3425133Y6823847D01*
X3408845Y6854319D01*
X3386927Y6881027D01*
X3360219Y6902945D01*
X3329747Y6919233D01*
X3296685Y6929262D01*
X3262300Y6932649D01*
X3062300D01*
X3027915Y6929262D01*
X2994853Y6919233D01*
X2964381Y6902945D01*
X2937673Y6881027D01*
X2915755Y6854319D01*
X2899467Y6823847D01*
X2889438Y6790784D01*
X2886051Y6756400D01*
X2889438Y6722016D01*
X2899467Y6688953D01*
X2915755Y6658481D01*
X2937673Y6631773D01*
X2964381Y6609855D01*
X2994853Y6593567D01*
X3027915Y6583538D01*
X3062300Y6580151D01*
X3169359D01*
X3171897Y6574025D01*
X3191997Y6547830D01*
X3326018Y6413809D01*
Y6339100D01*
X3310600D01*
Y6132300D01*
X3326018D01*
Y5970800D01*
X3310600D01*
Y5764000D01*
X3326018D01*
Y5602500D01*
X3310600D01*
Y5395700D01*
X3371527D01*
X3573463Y5193765D01*
X3573464Y5193764D01*
X3599659Y5173663D01*
X3630164Y5161028D01*
X3662900Y5156718D01*
X3662902Y5156718D01*
X4191000D01*
X4223736Y5161028D01*
X4254241Y5173663D01*
X4264584Y5181600D01*
X4267200D01*
X4275825Y5190225D01*
X4280436Y5193764D01*
X4283975Y5198375D01*
X4318000Y5232400D01*
Y5334000D01*
X4283975Y5368025D01*
X4280436Y5372636D01*
X4275825Y5376175D01*
X4267200Y5384800D01*
X4260703Y5392718D01*
X4268947Y5410718D01*
X4610618D01*
Y4660902D01*
X4610618Y4660900D01*
X4614928Y4628164D01*
X4627563Y4597659D01*
X4647664Y4571464D01*
X4901663Y4317465D01*
X4901664Y4317464D01*
X4927859Y4297363D01*
X4958364Y4284728D01*
X4991100Y4280418D01*
X4991102Y4280418D01*
X7721598D01*
X7721600Y4280418D01*
X7754336Y4284728D01*
X7784841Y4297363D01*
X7811036Y4317464D01*
X8297573Y4804000D01*
X8411200D01*
Y4880767D01*
X8415337Y4886159D01*
X8427972Y4916664D01*
X8432282Y4949400D01*
Y5004400D01*
X8427972Y5037136D01*
X8415337Y5067641D01*
X8412066Y5071903D01*
Y5153386D01*
X8440614Y5181934D01*
X8623038D01*
X8678754Y5126218D01*
X8678755Y5126217D01*
X8699728Y5110124D01*
X8724151Y5100008D01*
X8750361Y5096557D01*
X9006351D01*
X9030779Y5086438D01*
X9059600Y5082644D01*
X9289599D01*
X9318419Y5086438D01*
X9345275Y5097563D01*
X9368337Y5115259D01*
X9386033Y5138320D01*
X9397157Y5165177D01*
X9400952Y5193997D01*
X9397157Y5222817D01*
X9386033Y5249673D01*
X9368337Y5272735D01*
X9345275Y5290431D01*
X9318419Y5301555D01*
X9289599Y5305349D01*
X9059600D01*
X9030779Y5301555D01*
X9024827Y5299089D01*
X8792307D01*
X8736591Y5354806D01*
X8715618Y5370899D01*
X8691194Y5381016D01*
X8664984Y5384466D01*
X8664982Y5384466D01*
X8398670D01*
X8398668Y5384466D01*
X8372458Y5381016D01*
X8348035Y5370899D01*
X8327062Y5354806D01*
X8327061Y5354805D01*
X8239194Y5266938D01*
X8223101Y5245965D01*
X8212984Y5221542D01*
X8210780Y5204800D01*
X8200400D01*
Y5073033D01*
X8196263Y5067641D01*
X8185101Y5040694D01*
X8180859Y5038937D01*
X8154663Y5018836D01*
X7669209Y4533382D01*
X6362551D01*
Y5980220D01*
X6440380Y6058049D01*
X6725123D01*
X6744806Y6060641D01*
X6763148Y6068238D01*
X6778899Y6080324D01*
X6837477Y6138903D01*
X6849563Y6154653D01*
X6852710Y6162251D01*
X6857161Y6172995D01*
X6859752Y6192679D01*
Y6279927D01*
X6860650Y6280765D01*
X6878650Y6272950D01*
Y6182039D01*
X6877608Y6176800D01*
Y6116800D01*
X6877650Y6116585D01*
Y6083502D01*
X6568745Y5774597D01*
X6556659Y5758846D01*
X6549062Y5740505D01*
X6546471Y5720821D01*
Y5654800D01*
X6393100D01*
Y5064000D01*
X6733900D01*
Y5654800D01*
X6698572D01*
Y5689320D01*
X7007477Y5998225D01*
X7019563Y6013976D01*
X7022710Y6021573D01*
X7027160Y6032317D01*
X7029751Y6052001D01*
Y6116585D01*
X7029794Y6116800D01*
Y6140532D01*
X7030751Y6147799D01*
Y6296690D01*
X7048301Y6297778D01*
X7049100Y6297778D01*
X7112000D01*
Y6477319D01*
Y6656860D01*
X7049100D01*
X7048301Y6656860D01*
X7031100D01*
X7030300Y6656860D01*
X6879100D01*
X6878301Y6656860D01*
X6861100D01*
X6860301Y6656860D01*
X6708301D01*
Y6481261D01*
X6707651Y6476320D01*
Y6224180D01*
X6693622Y6210151D01*
X6631642D01*
X6625615Y6225531D01*
X6625233Y6228151D01*
X6640899Y6248567D01*
X6651016Y6272990D01*
X6654466Y6299200D01*
Y6305782D01*
X6654466Y6305784D01*
X6651016Y6331993D01*
X6640899Y6356417D01*
X6624806Y6377390D01*
X6624805Y6377391D01*
X6513892Y6488304D01*
Y6527092D01*
X6513892Y6535891D01*
X6513892D01*
Y6545093D01*
X6513892D01*
Y6725892D01*
X6489543D01*
Y6761508D01*
X6513892D01*
Y6933508D01*
X6513892Y6946908D01*
X6513892Y6960308D01*
Y7029208D01*
D02*
G37*
G36*
X7541099Y6464619D02*
X7477399D01*
Y6297778D01*
X7541099D01*
Y6464619D01*
D02*
G37*
G36*
X9817100Y6273533D02*
Y6197600D01*
X9893033D01*
X9887242Y6219214D01*
X9875538Y6239486D01*
X9858986Y6256038D01*
X9838714Y6267742D01*
X9817100Y6273533D01*
D02*
G37*
G36*
X9791700D02*
X9770086Y6267742D01*
X9749814Y6256038D01*
X9733262Y6239486D01*
X9721558Y6219214D01*
X9715767Y6197600D01*
X9791700D01*
Y6273533D01*
D02*
G37*
G36*
X7847392Y6267692D02*
X7759692D01*
Y6189992D01*
X7847392D01*
Y6267692D01*
D02*
G37*
G36*
X7734292D02*
X7646592D01*
Y6189992D01*
X7734292D01*
Y6267692D01*
D02*
G37*
G36*
X5894700Y6225593D02*
X5867400D01*
Y6172200D01*
X5930793D01*
Y6189500D01*
X5928046Y6203312D01*
X5920222Y6215022D01*
X5908512Y6222846D01*
X5894700Y6225593D01*
D02*
G37*
G36*
X5842000D02*
X5814700D01*
X5800888Y6222846D01*
X5789178Y6215022D01*
X5781354Y6203312D01*
X5778607Y6189500D01*
Y6172200D01*
X5842000D01*
Y6225593D01*
D02*
G37*
G36*
X7298501Y6212893D02*
X7271201D01*
Y6159500D01*
X7334594D01*
Y6176800D01*
X7331847Y6190612D01*
X7324023Y6202322D01*
X7312313Y6210146D01*
X7298501Y6212893D01*
D02*
G37*
G36*
X7245801D02*
X7218501D01*
X7204689Y6210146D01*
X7192979Y6202322D01*
X7185155Y6190612D01*
X7182408Y6176800D01*
Y6159500D01*
X7245801D01*
Y6212893D01*
D02*
G37*
G36*
X9893033Y6172200D02*
X9817100D01*
Y6096267D01*
X9838714Y6102058D01*
X9858986Y6113762D01*
X9875538Y6130314D01*
X9887242Y6150586D01*
X9893033Y6172200D01*
D02*
G37*
G36*
X9791700D02*
X9715767D01*
X9721558Y6150586D01*
X9733262Y6130314D01*
X9749814Y6113762D01*
X9770086Y6102058D01*
X9791700Y6096267D01*
Y6172200D01*
D02*
G37*
G36*
X9207500Y6171933D02*
Y6096000D01*
X9283433D01*
X9277642Y6117614D01*
X9265938Y6137886D01*
X9249386Y6154438D01*
X9229114Y6166142D01*
X9207500Y6171933D01*
D02*
G37*
G36*
X9182100D02*
X9160486Y6166142D01*
X9140214Y6154438D01*
X9123662Y6137886D01*
X9111958Y6117614D01*
X9106167Y6096000D01*
X9182100D01*
Y6171933D01*
D02*
G37*
G36*
X5842000Y6146800D02*
X5778607D01*
Y6129500D01*
X5781354Y6115688D01*
X5789178Y6103978D01*
X5800888Y6096154D01*
X5814700Y6093407D01*
X5842000D01*
Y6146800D01*
D02*
G37*
G36*
X7334594Y6134100D02*
X7271201D01*
Y6080707D01*
X7298501D01*
X7312313Y6083454D01*
X7324023Y6091278D01*
X7331847Y6102988D01*
X7334594Y6116800D01*
Y6134100D01*
D02*
G37*
G36*
X7245801D02*
X7182408D01*
Y6116800D01*
X7185155Y6102988D01*
X7192979Y6091278D01*
X7204689Y6083454D01*
X7218501Y6080707D01*
X7245801D01*
Y6134100D01*
D02*
G37*
G36*
X9512300Y6269480D02*
Y6057499D01*
X9610953D01*
Y6159800D01*
X9607158Y6188620D01*
X9596034Y6215476D01*
X9578338Y6238538D01*
X9555276Y6256234D01*
X9528420Y6267358D01*
X9512300Y6269480D01*
D02*
G37*
G36*
X9486900D02*
X9470780Y6267358D01*
X9443924Y6256234D01*
X9420862Y6238538D01*
X9403166Y6215476D01*
X9392042Y6188620D01*
X9388247Y6159800D01*
Y6057499D01*
X9486900D01*
Y6269480D01*
D02*
G37*
G36*
X8912301Y6294520D02*
Y6057498D01*
X9015996D01*
Y6179797D01*
X9012030Y6209922D01*
X9000402Y6237995D01*
X8981905Y6262101D01*
X8957799Y6280598D01*
X8929726Y6292226D01*
X8912301Y6294520D01*
D02*
G37*
G36*
X8886901Y6294521D02*
X8869476Y6292226D01*
X8841403Y6280598D01*
X8817297Y6262101D01*
X8798800Y6237995D01*
X8787171Y6209922D01*
X8783205Y6179797D01*
Y6057498D01*
X8886901D01*
Y6294521D01*
D02*
G37*
G36*
X9283433Y6070600D02*
X9207500D01*
Y5994667D01*
X9229114Y6000458D01*
X9249386Y6012162D01*
X9265938Y6028714D01*
X9277642Y6048986D01*
X9283433Y6070600D01*
D02*
G37*
G36*
X9182100D02*
X9106167D01*
X9111958Y6048986D01*
X9123662Y6028714D01*
X9140214Y6012162D01*
X9160486Y6000458D01*
X9182100Y5994667D01*
Y6070600D01*
D02*
G37*
G36*
X4400308Y6056708D02*
Y5969008D01*
X4478008D01*
Y6056708D01*
X4400308D01*
D02*
G37*
G36*
X4478008Y5943608D02*
X4400308D01*
Y5855908D01*
X4478008D01*
Y5943608D01*
D02*
G37*
G36*
X9610953Y6032099D02*
X9512300D01*
Y5820120D01*
X9528420Y5822242D01*
X9555276Y5833366D01*
X9578338Y5851062D01*
X9596034Y5874124D01*
X9607158Y5900980D01*
X9610953Y5929800D01*
Y6032099D01*
D02*
G37*
G36*
X9486900D02*
X9388247D01*
Y5929800D01*
X9392042Y5900980D01*
X9403166Y5874124D01*
X9420862Y5851062D01*
X9443924Y5833366D01*
X9470780Y5822242D01*
X9486900Y5820120D01*
Y6032099D01*
D02*
G37*
G36*
X9015996Y6032098D02*
X8912301D01*
Y5795074D01*
X8929726Y5797368D01*
X8957799Y5808996D01*
X8981905Y5827493D01*
X9000402Y5851600D01*
X9012030Y5879672D01*
X9015996Y5909797D01*
Y6032098D01*
D02*
G37*
G36*
X8886901D02*
X8783205D01*
Y5909797D01*
X8787171Y5879672D01*
X8798800Y5851600D01*
X8817297Y5827493D01*
X8841403Y5808996D01*
X8869476Y5797368D01*
X8886901Y5795074D01*
Y6032098D01*
D02*
G37*
G36*
X8431200Y5915197D02*
X8318500D01*
Y5702497D01*
X8431200D01*
Y5915197D01*
D02*
G37*
G36*
X8293100D02*
X8180400D01*
Y5702497D01*
X8293100D01*
Y5915197D01*
D02*
G37*
G36*
X8305800Y5689797D02*
D01*
D01*
D01*
D02*
G37*
G36*
X9817100Y5727433D02*
Y5651500D01*
X9893033D01*
X9887242Y5673114D01*
X9875538Y5693386D01*
X9858986Y5709938D01*
X9838714Y5721642D01*
X9817100Y5727433D01*
D02*
G37*
G36*
X9791700D02*
X9770086Y5721642D01*
X9749814Y5709938D01*
X9733262Y5693386D01*
X9721558Y5673114D01*
X9715767Y5651500D01*
X9791700D01*
Y5727433D01*
D02*
G37*
G36*
X9893033Y5626100D02*
X9817100D01*
Y5550167D01*
X9838714Y5555958D01*
X9858986Y5567662D01*
X9875538Y5584214D01*
X9887242Y5604486D01*
X9893033Y5626100D01*
D02*
G37*
G36*
X9791700D02*
X9715767D01*
X9721558Y5604486D01*
X9733262Y5584214D01*
X9749814Y5567662D01*
X9770086Y5555958D01*
X9791700Y5550167D01*
Y5626100D01*
D02*
G37*
G36*
X8431200Y5677097D02*
X8318500D01*
Y5464397D01*
X8431200D01*
Y5677097D01*
D02*
G37*
G36*
X8293100D02*
X8180400D01*
Y5464397D01*
X8293100D01*
Y5677097D01*
D02*
G37*
G36*
X9817100Y5181333D02*
Y5105400D01*
X9893033D01*
X9887242Y5127014D01*
X9875538Y5147286D01*
X9858986Y5163838D01*
X9838714Y5175542D01*
X9817100Y5181333D01*
D02*
G37*
G36*
X9791700D02*
X9770086Y5175542D01*
X9749814Y5163838D01*
X9733262Y5147286D01*
X9721558Y5127014D01*
X9715767Y5105400D01*
X9791700D01*
Y5181333D01*
D02*
G37*
G36*
X9893033Y5080000D02*
X9817100D01*
Y5004067D01*
X9838714Y5009858D01*
X9858986Y5021562D01*
X9875538Y5038114D01*
X9887242Y5058386D01*
X9893033Y5080000D01*
D02*
G37*
G36*
X9791700D02*
X9715767D01*
X9721558Y5058386D01*
X9733262Y5038114D01*
X9749814Y5021562D01*
X9770086Y5009858D01*
X9791700Y5004067D01*
Y5080000D01*
D02*
G37*
G36*
X3657600Y5041633D02*
Y4965700D01*
X3733533D01*
X3727742Y4987314D01*
X3716038Y5007586D01*
X3699486Y5024138D01*
X3679214Y5035842D01*
X3657600Y5041633D01*
D02*
G37*
G36*
X3632200D02*
X3610586Y5035842D01*
X3590314Y5024138D01*
X3573762Y5007586D01*
X3562058Y4987314D01*
X3556267Y4965700D01*
X3632200D01*
Y5041633D01*
D02*
G37*
G36*
X3733533Y4940300D02*
X3657600D01*
Y4864367D01*
X3679214Y4870158D01*
X3699486Y4881862D01*
X3716038Y4898414D01*
X3727742Y4918686D01*
X3733533Y4940300D01*
D02*
G37*
G36*
X3632200D02*
X3556267D01*
X3562058Y4918686D01*
X3573762Y4898414D01*
X3590314Y4881862D01*
X3610586Y4870158D01*
X3632200Y4864367D01*
Y4940300D01*
D02*
G37*
G36*
X8597900Y4940033D02*
Y4864100D01*
X8673833D01*
X8668042Y4885714D01*
X8656338Y4905986D01*
X8639786Y4922538D01*
X8619514Y4934242D01*
X8597900Y4940033D01*
D02*
G37*
G36*
X8572500D02*
X8550886Y4934242D01*
X8530614Y4922538D01*
X8514062Y4905986D01*
X8502358Y4885714D01*
X8496567Y4864100D01*
X8572500D01*
Y4940033D01*
D02*
G37*
G36*
X8673833Y4838700D02*
X8597900D01*
Y4762767D01*
X8619514Y4768558D01*
X8639786Y4780262D01*
X8656338Y4796814D01*
X8668042Y4817086D01*
X8673833Y4838700D01*
D02*
G37*
G36*
X8572500D02*
X8496567D01*
X8502358Y4817086D01*
X8514062Y4796814D01*
X8530614Y4780262D01*
X8550886Y4768558D01*
X8572500Y4762767D01*
Y4838700D01*
D02*
G37*
G36*
X3927399Y4986826D02*
X3909974Y4984532D01*
X3881901Y4972904D01*
X3857795Y4954407D01*
X3839298Y4930300D01*
X3827670Y4902228D01*
X3823704Y4872103D01*
Y4749803D01*
X3927399D01*
Y4986826D01*
D02*
G37*
G36*
X3352800Y4961780D02*
Y4749800D01*
X3451453D01*
Y4852100D01*
X3447658Y4880920D01*
X3436534Y4907776D01*
X3418838Y4930838D01*
X3395776Y4948534D01*
X3368920Y4959658D01*
X3352800Y4961780D01*
D02*
G37*
G36*
X3327400D02*
X3311280Y4959658D01*
X3284424Y4948534D01*
X3261362Y4930838D01*
X3243666Y4907776D01*
X3232542Y4880920D01*
X3228747Y4852100D01*
Y4749800D01*
X3327400D01*
Y4961780D01*
D02*
G37*
G36*
X9207500Y4813033D02*
Y4737100D01*
X9283433D01*
X9277642Y4758714D01*
X9265938Y4778986D01*
X9249386Y4795538D01*
X9229114Y4807242D01*
X9207500Y4813033D01*
D02*
G37*
G36*
X9182100D02*
X9160486Y4807242D01*
X9140214Y4795538D01*
X9123662Y4778986D01*
X9111958Y4758714D01*
X9106167Y4737100D01*
X9182100D01*
Y4813033D01*
D02*
G37*
G36*
X9512300Y4948680D02*
Y4736699D01*
X9610953D01*
Y4839000D01*
X9607158Y4867820D01*
X9596034Y4894676D01*
X9578338Y4917738D01*
X9555276Y4935434D01*
X9528420Y4946558D01*
X9512300Y4948680D01*
D02*
G37*
G36*
X9486900D02*
X9470780Y4946558D01*
X9443924Y4935434D01*
X9420862Y4917738D01*
X9403166Y4894676D01*
X9392042Y4867820D01*
X9388247Y4839000D01*
Y4736699D01*
X9486900D01*
Y4948680D01*
D02*
G37*
G36*
X8912301Y4973720D02*
Y4736697D01*
X9015996D01*
Y4858997D01*
X9012030Y4889122D01*
X9000402Y4917195D01*
X8981905Y4941301D01*
X8957799Y4959798D01*
X8929726Y4971426D01*
X8912301Y4973720D01*
D02*
G37*
G36*
X8886901Y4973721D02*
X8869476Y4971426D01*
X8841403Y4959798D01*
X8817297Y4941301D01*
X8798800Y4917195D01*
X8787171Y4889122D01*
X8783205Y4858997D01*
Y4736697D01*
X8886901D01*
Y4973721D01*
D02*
G37*
G36*
X9283433Y4711700D02*
X9207500D01*
Y4635767D01*
X9229114Y4641558D01*
X9249386Y4653262D01*
X9265938Y4669814D01*
X9277642Y4690086D01*
X9283433Y4711700D01*
D02*
G37*
G36*
X9182100D02*
X9106167D01*
X9111958Y4690086D01*
X9123662Y4669814D01*
X9140214Y4653262D01*
X9160486Y4641558D01*
X9182100Y4635767D01*
Y4711700D01*
D02*
G37*
G36*
X8597900Y4673333D02*
Y4597400D01*
X8673833D01*
X8668042Y4619014D01*
X8656338Y4639286D01*
X8639786Y4655838D01*
X8619514Y4667542D01*
X8597900Y4673333D01*
D02*
G37*
G36*
X8572500D02*
X8550886Y4667542D01*
X8530614Y4655838D01*
X8514062Y4639286D01*
X8502358Y4619014D01*
X8496567Y4597400D01*
X8572500D01*
Y4673333D01*
D02*
G37*
G36*
X3657600Y4647933D02*
Y4572000D01*
X3733533D01*
X3727742Y4593614D01*
X3716038Y4613886D01*
X3699486Y4630438D01*
X3679214Y4642142D01*
X3657600Y4647933D01*
D02*
G37*
G36*
X3632200D02*
X3610586Y4642142D01*
X3590314Y4630438D01*
X3573762Y4613886D01*
X3562058Y4593614D01*
X3556267Y4572000D01*
X3632200D01*
Y4647933D01*
D02*
G37*
G36*
X9817100Y4635233D02*
Y4559300D01*
X9893033D01*
X9887242Y4580914D01*
X9875538Y4601186D01*
X9858986Y4617738D01*
X9838714Y4629442D01*
X9817100Y4635233D01*
D02*
G37*
G36*
X9791700D02*
X9770086Y4629442D01*
X9749814Y4617738D01*
X9733262Y4601186D01*
X9721558Y4580914D01*
X9715767Y4559300D01*
X9791700D01*
Y4635233D01*
D02*
G37*
G36*
X3451453Y4724400D02*
X3352800D01*
Y4512420D01*
X3368920Y4514542D01*
X3395776Y4525666D01*
X3418838Y4543362D01*
X3436534Y4566424D01*
X3447658Y4593280D01*
X3451453Y4622100D01*
Y4724400D01*
D02*
G37*
G36*
X9610953Y4711299D02*
X9512300D01*
Y4499320D01*
X9528420Y4501442D01*
X9555276Y4512566D01*
X9578338Y4530262D01*
X9596034Y4553324D01*
X9607158Y4580180D01*
X9610953Y4609000D01*
Y4711299D01*
D02*
G37*
G36*
X9486900D02*
X9388247D01*
Y4609000D01*
X9392042Y4580180D01*
X9403166Y4553324D01*
X9420862Y4530262D01*
X9443924Y4512566D01*
X9470780Y4501442D01*
X9486900Y4499320D01*
Y4711299D01*
D02*
G37*
G36*
X8673833Y4572000D02*
X8597900D01*
Y4496067D01*
X8619514Y4501858D01*
X8639786Y4513562D01*
X8656338Y4530114D01*
X8668042Y4550386D01*
X8673833Y4572000D01*
D02*
G37*
G36*
X8572500D02*
X8496567D01*
X8502358Y4550386D01*
X8514062Y4530114D01*
X8530614Y4513562D01*
X8550886Y4501858D01*
X8572500Y4496067D01*
Y4572000D01*
D02*
G37*
G36*
X3927399Y4724403D02*
X3823704D01*
Y4602103D01*
X3827670Y4571978D01*
X3839298Y4543905D01*
X3857795Y4519799D01*
X3881901Y4501302D01*
X3909974Y4489674D01*
X3927399Y4487379D01*
Y4724403D01*
D02*
G37*
G36*
X3024500Y6362182D02*
X2991764Y6357872D01*
X2961259Y6345237D01*
X2953261Y6339100D01*
X2882600D01*
Y6225984D01*
X2880902Y6213084D01*
X2880902Y6213082D01*
Y5968709D01*
X2880902Y5968707D01*
X2881518Y5964027D01*
Y5883902D01*
X2881517Y5883900D01*
X2882600Y5875678D01*
Y5764000D01*
X2898018D01*
Y5602500D01*
X2882600D01*
Y5395700D01*
X2898018D01*
Y4608202D01*
X2898018Y4608200D01*
X2902328Y4575464D01*
X2914963Y4544959D01*
X2935063Y4518764D01*
X3276160Y4177668D01*
X3276160Y4177667D01*
X3302356Y4157566D01*
X3332861Y4144931D01*
X3365597Y4140621D01*
X3365599Y4140621D01*
X3665101D01*
X3697837Y4144931D01*
X3723958Y4155751D01*
X3780100D01*
X3808920Y4159545D01*
X3835777Y4170669D01*
X3858839Y4188365D01*
X3876535Y4211427D01*
X3878311Y4215716D01*
X4072810D01*
X4092476Y4219628D01*
X4109147Y4230767D01*
X4138436Y4260057D01*
X4140019Y4262425D01*
X4163193Y4264707D01*
X4209500Y4218400D01*
X4254500D01*
Y4368800D01*
Y4519200D01*
X4209500D01*
X4170117Y4479817D01*
X4153487Y4486705D01*
Y4685627D01*
X4170708Y4687508D01*
Y4687508D01*
X4342708D01*
X4351508Y4687508D01*
X4362329D01*
X4375058Y4674780D01*
Y4495540D01*
X4375216Y4494341D01*
X4358167Y4485933D01*
X4324900Y4519200D01*
X4279900D01*
Y4381500D01*
X4382600D01*
Y4420966D01*
X4400600Y4428876D01*
X4407296Y4422729D01*
X4404804Y4403800D01*
Y4333800D01*
X4408770Y4303674D01*
X4420399Y4275602D01*
X4438896Y4251496D01*
X4463002Y4232998D01*
X4491075Y4221370D01*
X4521200Y4217404D01*
X4551325Y4221370D01*
X4579398Y4232998D01*
X4603504Y4251496D01*
X4622001Y4275602D01*
X4633630Y4303674D01*
X4637595Y4333800D01*
Y4403800D01*
X4633630Y4433926D01*
X4622001Y4461998D01*
X4603504Y4486104D01*
X4579398Y4504602D01*
X4551325Y4516230D01*
X4535945Y4518255D01*
X4527159Y4527041D01*
Y4687508D01*
X4541508D01*
Y4888308D01*
X4369508D01*
X4356108Y4888308D01*
X4342708Y4888308D01*
X4170708D01*
Y4839295D01*
X4131390D01*
X4111724Y4835384D01*
X4095053Y4824244D01*
X4074495Y4803686D01*
X4056495Y4811142D01*
Y4872103D01*
X4052529Y4902228D01*
X4040900Y4930300D01*
X4022403Y4954407D01*
X3998297Y4972904D01*
X3970224Y4984532D01*
X3952799Y4986826D01*
Y4737103D01*
Y4487379D01*
X3970224Y4489674D01*
X3998297Y4501302D01*
X4022403Y4519799D01*
X4032713Y4533235D01*
X4050713Y4527125D01*
Y4318490D01*
X3878311D01*
X3876535Y4322780D01*
X3858839Y4345841D01*
X3835777Y4363537D01*
X3808920Y4374662D01*
X3780100Y4378456D01*
X3723958D01*
X3697837Y4389275D01*
X3665101Y4393585D01*
X3417987D01*
X3315778Y4495794D01*
X3324186Y4512843D01*
X3327400Y4512420D01*
Y4724400D01*
X3228747D01*
Y4622100D01*
X3230843Y4606186D01*
X3213794Y4597779D01*
X3150982Y4660591D01*
Y5395700D01*
X3166400D01*
Y5602500D01*
X3150982D01*
Y5764000D01*
X3166400D01*
Y5970800D01*
X3134125D01*
X3133866Y5972770D01*
Y6132300D01*
X3166400D01*
Y6339100D01*
X3095739D01*
X3087741Y6345237D01*
X3057236Y6357872D01*
X3024500Y6362182D01*
D02*
G37*
G36*
X3733533Y4546600D02*
X3657600D01*
Y4470667D01*
X3679214Y4476458D01*
X3699486Y4488162D01*
X3716038Y4504714D01*
X3727742Y4524986D01*
X3733533Y4546600D01*
D02*
G37*
G36*
X3632200D02*
X3556267D01*
X3562058Y4524986D01*
X3573762Y4504714D01*
X3590314Y4488162D01*
X3610586Y4476458D01*
X3632200Y4470667D01*
Y4546600D01*
D02*
G37*
G36*
X9893033Y4533900D02*
X9817100D01*
Y4457967D01*
X9838714Y4463758D01*
X9858986Y4475462D01*
X9875538Y4492014D01*
X9887242Y4512286D01*
X9893033Y4533900D01*
D02*
G37*
G36*
X9791700D02*
X9715767D01*
X9721558Y4512286D01*
X9733262Y4492014D01*
X9749814Y4475462D01*
X9770086Y4463758D01*
X9791700Y4457967D01*
Y4533900D01*
D02*
G37*
G36*
X8293100Y4644800D02*
X8200400D01*
Y4457101D01*
X8293100D01*
Y4644800D01*
D02*
G37*
G36*
X9015996Y4711297D02*
X8899601D01*
X8783205D01*
Y4588997D01*
X8787171Y4558872D01*
X8798335Y4531922D01*
Y4320814D01*
X8769787Y4292266D01*
X8440614D01*
X8412066Y4320814D01*
Y4439398D01*
X8412066Y4439400D01*
X8411200Y4445982D01*
Y4644800D01*
X8318500D01*
Y4444401D01*
X8305800D01*
Y4431701D01*
X8200400D01*
Y4244000D01*
X8216571D01*
X8223101Y4228235D01*
X8239194Y4207262D01*
X8327061Y4119395D01*
X8327062Y4119394D01*
X8348035Y4103301D01*
X8372458Y4093184D01*
X8398668Y4089734D01*
X8398670Y4089734D01*
X8811731D01*
X8811733Y4089734D01*
X8837943Y4093184D01*
X8862366Y4103301D01*
X8883339Y4119394D01*
X8971206Y4207261D01*
X8971207Y4207262D01*
X8987300Y4228235D01*
X8997417Y4252658D01*
X9000867Y4278868D01*
X9000867Y4278870D01*
Y4531922D01*
X9012030Y4558872D01*
X9015996Y4588997D01*
Y4711297D01*
D02*
G37*
G36*
X4382600Y4356100D02*
X4279900D01*
Y4218400D01*
X4324900D01*
X4382600Y4276100D01*
Y4356100D01*
D02*
G37*
%LPD*%
D10*
X3024500Y6235700D02*
D03*
X3452500D02*
D03*
X3024500Y5499100D02*
D03*
X3452500D02*
D03*
X3024500Y5867400D02*
D03*
X3452500D02*
D03*
X10377800Y6235700D02*
D03*
X10805800D02*
D03*
X10377800Y5499100D02*
D03*
X10805800D02*
D03*
X10377800Y5867400D02*
D03*
X10805800D02*
D03*
X3024500Y10312400D02*
D03*
X3452500D02*
D03*
X3024500Y9575800D02*
D03*
X3452500D02*
D03*
X3024500Y9944100D02*
D03*
X3452500D02*
D03*
X10377800Y10312400D02*
D03*
X10805800D02*
D03*
X10377800Y9575800D02*
D03*
X10805800D02*
D03*
X10377800Y9944100D02*
D03*
X10805800D02*
D03*
D11*
X7746992Y6876808D02*
D03*
Y6686808D02*
D03*
X6413492Y7041908D02*
D03*
Y6851908D02*
D03*
Y6445492D02*
D03*
Y6635492D02*
D03*
X7746992Y6280392D02*
D03*
Y6470392D02*
D03*
X15100291Y6876808D02*
D03*
Y6686808D02*
D03*
X13766792Y7041908D02*
D03*
Y6851908D02*
D03*
Y6445492D02*
D03*
Y6635492D02*
D03*
X15100291Y6280392D02*
D03*
Y6470392D02*
D03*
X7746992Y10953508D02*
D03*
Y10763508D02*
D03*
X6413492Y11118608D02*
D03*
Y10928608D02*
D03*
Y10522192D02*
D03*
Y10712192D02*
D03*
X7746992Y10357092D02*
D03*
Y10547092D02*
D03*
X15100291Y10953508D02*
D03*
Y10763508D02*
D03*
X13766792Y11118608D02*
D03*
Y10928608D02*
D03*
Y10522192D02*
D03*
Y10712192D02*
D03*
X15100291Y10357092D02*
D03*
Y10547092D02*
D03*
D12*
X5549900Y6159500D02*
D03*
X5854700D02*
D03*
X6953701Y6146800D02*
D03*
X7258501D02*
D03*
X12903200Y6159500D02*
D03*
X13208000D02*
D03*
X14307001Y6146800D02*
D03*
X14611801D02*
D03*
X5549900Y10236200D02*
D03*
X5854700D02*
D03*
X6953701Y10223500D02*
D03*
X7258501D02*
D03*
X12903200Y10236200D02*
D03*
X13208000D02*
D03*
X14307001Y10223500D02*
D03*
X14611801D02*
D03*
D13*
X4451108Y4787908D02*
D03*
X4261108D02*
D03*
X4032008Y5956308D02*
D03*
X3842008D02*
D03*
X4197608D02*
D03*
X4387608D02*
D03*
X11804408Y4787908D02*
D03*
X11614408D02*
D03*
X11385308Y5956308D02*
D03*
X11195308D02*
D03*
X11550908D02*
D03*
X11740908D02*
D03*
X4451108Y8864608D02*
D03*
X4261108D02*
D03*
X4032008Y10033008D02*
D03*
X3842008D02*
D03*
X4197608D02*
D03*
X4387608D02*
D03*
X11804408Y8864608D02*
D03*
X11614408D02*
D03*
X11385308Y10033008D02*
D03*
X11195308D02*
D03*
X11550908D02*
D03*
X11740908D02*
D03*
D14*
X6784701Y6477319D02*
D03*
X6954700D02*
D03*
X7124700D02*
D03*
X7294700D02*
D03*
X7464699D02*
D03*
X5380900D02*
D03*
X5550899D02*
D03*
X5720899D02*
D03*
X5890899D02*
D03*
X6060898D02*
D03*
X14138000D02*
D03*
X14308000D02*
D03*
X14478000D02*
D03*
X14648000D02*
D03*
X14817999D02*
D03*
X12734200D02*
D03*
X12904199D02*
D03*
X13074199D02*
D03*
X13244199D02*
D03*
X13414198D02*
D03*
X6784701Y10554019D02*
D03*
X6954700D02*
D03*
X7124700D02*
D03*
X7294700D02*
D03*
X7464699D02*
D03*
X5380900D02*
D03*
X5550899D02*
D03*
X5720899D02*
D03*
X5890899D02*
D03*
X6060898D02*
D03*
X14138000D02*
D03*
X14308000D02*
D03*
X14478000D02*
D03*
X14648000D02*
D03*
X14817999D02*
D03*
X12734200D02*
D03*
X12904199D02*
D03*
X13074199D02*
D03*
X13244199D02*
D03*
X13414198D02*
D03*
D15*
X7124700Y7509301D02*
D03*
X5720899D02*
D03*
X14478000D02*
D03*
X13074199D02*
D03*
X7124700Y11586001D02*
D03*
X5720899D02*
D03*
X14478000D02*
D03*
X13074199D02*
D03*
D16*
X7533500Y5359400D02*
D03*
X6563500D02*
D03*
X5049800Y5372100D02*
D03*
X6019800D02*
D03*
X14886800Y5359400D02*
D03*
X13916800D02*
D03*
X12403100Y5372100D02*
D03*
X13373100D02*
D03*
X7533500Y9436100D02*
D03*
X6563500D02*
D03*
X5049800Y9448800D02*
D03*
X6019800D02*
D03*
X14886800Y9436100D02*
D03*
X13916800D02*
D03*
X12403100Y9448800D02*
D03*
X13373100D02*
D03*
D17*
X8305800Y6399797D02*
D03*
Y5689797D02*
D03*
Y7707897D02*
D03*
Y6997897D02*
D03*
X15659100Y6399797D02*
D03*
Y5689797D02*
D03*
Y7707897D02*
D03*
Y6997897D02*
D03*
X8305800Y10476497D02*
D03*
Y9766497D02*
D03*
Y11784597D02*
D03*
Y11074597D02*
D03*
X15659100Y10476497D02*
D03*
Y9766497D02*
D03*
Y11784597D02*
D03*
Y11074597D02*
D03*
D18*
X4368800Y7467600D02*
D03*
X11722100D02*
D03*
X4368800Y11544300D02*
D03*
X11722100D02*
D03*
D19*
X4622800Y6324600D02*
D03*
X4114800D02*
D03*
X11976100D02*
D03*
X11468100D02*
D03*
X4622800Y10401300D02*
D03*
X4114800D02*
D03*
X11976100D02*
D03*
X11468100D02*
D03*
D20*
X8305800Y5004400D02*
D03*
Y4444400D02*
D03*
X15659100Y5004400D02*
D03*
Y4444400D02*
D03*
X8305800Y9081100D02*
D03*
Y8521100D02*
D03*
X15659100Y9081100D02*
D03*
Y8521100D02*
D03*
D21*
X4737100Y5499100D02*
Y5702300D01*
Y4660900D02*
Y5499100D01*
X3008000Y5883900D02*
Y5968091D01*
X3007384Y5968707D02*
Y6213084D01*
X3024500Y6230200D02*
Y6235700D01*
X3008000Y5883900D02*
X3024500Y5867400D01*
X3007384Y5968707D02*
X3008000Y5968091D01*
X3007384Y6213084D02*
X3024500Y6230200D01*
X6286500Y4406900D02*
X7721600D01*
X4991100D02*
X6286500D01*
X4699000Y5537200D02*
X4737100Y5499100D01*
X4191000Y5537200D02*
X4699000D01*
X8305800Y7773600D02*
Y7807897D01*
X3312300Y7190600D02*
X3708400Y6794500D01*
X4239400D01*
X4618800Y6415100D01*
X3312300Y7190600D02*
Y7214400D01*
X3262300Y7264400D02*
X3312300Y7214400D01*
X3162300Y7264400D02*
X3262300D01*
X4618800Y6328600D02*
X4622800Y6324600D01*
X4618800Y6328600D02*
Y6415100D01*
X3365597Y4267103D02*
X3665101D01*
X3024500Y4608200D02*
Y5499100D01*
Y4608200D02*
X3365597Y4267103D01*
X3024500Y5499100D02*
Y5867400D01*
X4737100Y4660900D02*
X4991100Y4406900D01*
X3452500Y5493600D02*
Y5499100D01*
Y5493600D02*
X3662900Y5283200D01*
X4191000D01*
X3452500Y6235700D02*
Y6466200D01*
Y5867400D02*
Y6235700D01*
Y5499100D02*
Y5867400D01*
X3281434Y6637266D02*
X3452500Y6466200D01*
X3162300Y6756400D02*
X3235240D01*
X3281434Y6710206D01*
Y6637266D02*
Y6710206D01*
X8013700Y6883400D02*
Y7315797D01*
Y5476557D02*
Y6883400D01*
X8244100Y4929400D02*
X8285800D01*
X7721600Y4406900D02*
X8244100Y4929400D01*
X8285800D02*
X8305800Y4949400D01*
Y5004400D01*
X7533500Y5359400D02*
X7896542D01*
X8013700Y5476557D01*
Y7315797D02*
X8305800Y7607897D01*
Y7707897D01*
X8788704Y7822897D02*
X9174599D01*
X8724900Y7886700D02*
X8788704Y7822897D01*
X8384603Y7886700D02*
X8724900D01*
X8305800Y7807897D02*
X8384603Y7886700D01*
X12090400Y5499100D02*
Y5702300D01*
Y4660900D02*
Y5499100D01*
X10361300Y5883900D02*
Y5968091D01*
X10360684Y5968707D02*
Y6213084D01*
X10377800Y6230200D02*
Y6235700D01*
X10361300Y5883900D02*
X10377800Y5867400D01*
X10360684Y5968707D02*
X10361300Y5968091D01*
X10360684Y6213084D02*
X10377800Y6230200D01*
X13639799Y4406900D02*
X15074899D01*
X12344400D02*
X13639799D01*
X12052300Y5537200D02*
X12090400Y5499100D01*
X11544300Y5537200D02*
X12052300D01*
X15659100Y7773600D02*
Y7807897D01*
X10665600Y7190600D02*
X11061700Y6794500D01*
X11592700D01*
X11972100Y6415100D01*
X10665600Y7190600D02*
Y7214400D01*
X10615600Y7264400D02*
X10665600Y7214400D01*
X10515600Y7264400D02*
X10615600D01*
X11972100Y6328600D02*
X11976100Y6324600D01*
X11972100Y6328600D02*
Y6415100D01*
X10718897Y4267103D02*
X11018401D01*
X10377800Y4608200D02*
Y5499100D01*
Y4608200D02*
X10718897Y4267103D01*
X10377800Y5499100D02*
Y5867400D01*
X12090400Y4660900D02*
X12344400Y4406900D01*
X10805800Y5493600D02*
Y5499100D01*
Y5493600D02*
X11016200Y5283200D01*
X11544300D01*
X10805800Y6235700D02*
Y6466200D01*
Y5867400D02*
Y6235700D01*
Y5499100D02*
Y5867400D01*
X10634734Y6637266D02*
X10805800Y6466200D01*
X10515600Y6756400D02*
X10588540D01*
X10634734Y6710206D01*
Y6637266D02*
Y6710206D01*
X15367000Y6883400D02*
Y7315797D01*
Y5476557D02*
Y6883400D01*
X15597400Y4929400D02*
X15639101D01*
X15074899Y4406900D02*
X15597400Y4929400D01*
X15639101D02*
X15659100Y4949400D01*
Y5004400D01*
X14886800Y5359400D02*
X15249841D01*
X15367000Y5476557D01*
Y7315797D02*
X15659100Y7607897D01*
Y7707897D01*
X16142004Y7822897D02*
X16527899D01*
X16078200Y7886700D02*
X16142004Y7822897D01*
X15737903Y7886700D02*
X16078200D01*
X15659100Y7807897D02*
X15737903Y7886700D01*
X4737100Y9575800D02*
Y9779000D01*
Y8737600D02*
Y9575800D01*
X3008000Y9960600D02*
Y10044791D01*
X3007384Y10045407D02*
Y10289784D01*
X3024500Y10306900D02*
Y10312400D01*
X3008000Y9960600D02*
X3024500Y9944100D01*
X3007384Y10045407D02*
X3008000Y10044791D01*
X3007384Y10289784D02*
X3024500Y10306900D01*
X6286500Y8483600D02*
X7721600D01*
X4991100D02*
X6286500D01*
X4699000Y9613900D02*
X4737100Y9575800D01*
X4191000Y9613900D02*
X4699000D01*
X8305800Y11850300D02*
Y11884597D01*
X3312300Y11267300D02*
X3708400Y10871200D01*
X4239400D01*
X4618800Y10491800D01*
X3312300Y11267300D02*
Y11291100D01*
X3262300Y11341100D02*
X3312300Y11291100D01*
X3162300Y11341100D02*
X3262300D01*
X4618800Y10405300D02*
X4622800Y10401300D01*
X4618800Y10405300D02*
Y10491800D01*
X3365597Y8343803D02*
X3665101D01*
X3024500Y8684900D02*
Y9575800D01*
Y8684900D02*
X3365597Y8343803D01*
X3024500Y9575800D02*
Y9944100D01*
X4737100Y8737600D02*
X4991100Y8483600D01*
X3452500Y9570300D02*
Y9575800D01*
Y9570300D02*
X3662900Y9359900D01*
X4191000D01*
X3452500Y10312400D02*
Y10542900D01*
Y9944100D02*
Y10312400D01*
Y9575800D02*
Y9944100D01*
X3281434Y10713966D02*
X3452500Y10542900D01*
X3162300Y10833100D02*
X3235240D01*
X3281434Y10786906D01*
Y10713966D02*
Y10786906D01*
X8013700Y10960100D02*
Y11392497D01*
Y9553257D02*
Y10960100D01*
X8244100Y9006100D02*
X8285800D01*
X7721600Y8483600D02*
X8244100Y9006100D01*
X8285800D02*
X8305800Y9026100D01*
Y9081100D01*
X7533500Y9436100D02*
X7896542D01*
X8013700Y9553257D01*
Y11392497D02*
X8305800Y11684597D01*
Y11784597D01*
X8788704Y11899597D02*
X9174599D01*
X8724900Y11963400D02*
X8788704Y11899597D01*
X8384603Y11963400D02*
X8724900D01*
X8305800Y11884597D02*
X8384603Y11963400D01*
X12090400Y9575800D02*
Y9779000D01*
Y8737600D02*
Y9575800D01*
X10361300Y9960600D02*
Y10044791D01*
X10360684Y10045407D02*
Y10289784D01*
X10377800Y10306900D02*
Y10312400D01*
X10361300Y9960600D02*
X10377800Y9944100D01*
X10360684Y10045407D02*
X10361300Y10044791D01*
X10360684Y10289784D02*
X10377800Y10306900D01*
X13639799Y8483600D02*
X15074899D01*
X12344400D02*
X13639799D01*
X12052300Y9613900D02*
X12090400Y9575800D01*
X11544300Y9613900D02*
X12052300D01*
X15659100Y11850300D02*
Y11884597D01*
X10665600Y11267300D02*
X11061700Y10871200D01*
X11592700D01*
X11972100Y10491800D01*
X10665600Y11267300D02*
Y11291100D01*
X10615600Y11341100D02*
X10665600Y11291100D01*
X10515600Y11341100D02*
X10615600D01*
X11972100Y10405300D02*
X11976100Y10401300D01*
X11972100Y10405300D02*
Y10491800D01*
X10718897Y8343803D02*
X11018401D01*
X10377800Y8684900D02*
Y9575800D01*
Y8684900D02*
X10718897Y8343803D01*
X10377800Y9575800D02*
Y9944100D01*
X12090400Y8737600D02*
X12344400Y8483600D01*
X10805800Y9570300D02*
Y9575800D01*
Y9570300D02*
X11016200Y9359900D01*
X11544300D01*
X10805800Y10312400D02*
Y10542900D01*
Y9944100D02*
Y10312400D01*
Y9575800D02*
Y9944100D01*
X10634734Y10713966D02*
X10805800Y10542900D01*
X10515600Y10833100D02*
X10588540D01*
X10634734Y10786906D01*
Y10713966D02*
Y10786906D01*
X15367000Y10960100D02*
Y11392497D01*
Y9553257D02*
Y10960100D01*
X15597400Y9006100D02*
X15639101D01*
X15074899Y8483600D02*
X15597400Y9006100D01*
X15639101D02*
X15659100Y9026100D01*
Y9081100D01*
X14886800Y9436100D02*
X15249841D01*
X15367000Y9553257D01*
Y11392497D02*
X15659100Y11684597D01*
Y11784597D01*
X16142004Y11899597D02*
X16527899D01*
X16078200Y11963400D02*
X16142004Y11899597D01*
X15737903Y11963400D02*
X16078200D01*
X15659100Y11884597D02*
X15737903Y11963400D01*
D22*
X5380900Y6346100D02*
Y6477319D01*
X4737100Y5702300D02*
X5380900Y6346100D01*
X12734200D02*
Y6477319D01*
X12090400Y5702300D02*
X12734200Y6346100D01*
X5380900Y10422800D02*
Y10554019D01*
X4737100Y9779000D02*
X5380900Y10422800D01*
X12734200D02*
Y10554019D01*
X12090400Y9779000D02*
X12734200Y10422800D01*
D23*
X8305800Y6480558D02*
X8330800Y6505558D01*
X8848377D01*
X8305800Y6399797D02*
Y6480558D01*
X8848377Y6518623D02*
Y6727477D01*
Y6505558D02*
X9036220D01*
X8848377Y6727477D02*
X8851900Y6731000D01*
X9036220Y6505558D02*
X9041632Y6510970D01*
X9170773D02*
X9174599Y6514797D01*
X9041632Y6510970D02*
X9170773D01*
X6553200Y6299200D02*
Y6305784D01*
X6413492Y6445492D02*
X6553200Y6305784D01*
X6019800Y5372100D02*
Y6051800D01*
X6413492Y6445492D01*
X8310800Y5009400D02*
Y5195332D01*
X8664984Y5283200D02*
X8750361Y5197823D01*
X8305800Y5004400D02*
X8310800Y5009400D01*
X8398668Y5283200D02*
X8664984D01*
X8310800Y5195332D02*
X8398668Y5283200D01*
X8750361Y5197823D02*
X9170773D01*
X9174599Y5193997D01*
X8007108Y6876808D02*
X8013700Y6883400D01*
X7746992Y6876808D02*
X8007108D01*
X9499599Y6044799D02*
X9499600Y6044800D01*
X8899601Y6044797D02*
X8899602Y6044799D01*
X8398668Y4191000D02*
X8811733D01*
X8899601Y4278868D01*
X8310800D02*
Y4439400D01*
Y4278868D02*
X8398668Y4191000D01*
X8899601Y4278868D02*
Y4723997D01*
X8305800Y4444400D02*
X8310800Y4439400D01*
X15659100Y6480558D02*
X15684100Y6505558D01*
X16201677D01*
X15659100Y6399797D02*
Y6480558D01*
X16201677Y6518623D02*
Y6727477D01*
Y6505558D02*
X16389520D01*
X16201677Y6727477D02*
X16205200Y6731000D01*
X16389520Y6505558D02*
X16394933Y6510970D01*
X16524072D02*
X16527899Y6514797D01*
X16394933Y6510970D02*
X16524072D01*
X13906500Y6299200D02*
Y6305784D01*
X13766792Y6445492D02*
X13906500Y6305784D01*
X13373100Y5372100D02*
Y6051800D01*
X13766792Y6445492D01*
X15664101Y5009400D02*
Y5195332D01*
X16018285Y5283200D02*
X16103661Y5197823D01*
X15659100Y5004400D02*
X15664101Y5009400D01*
X15751968Y5283200D02*
X16018285D01*
X15664101Y5195332D02*
X15751968Y5283200D01*
X16103661Y5197823D02*
X16524072D01*
X16527899Y5193997D01*
X15360408Y6876808D02*
X15367000Y6883400D01*
X15100291Y6876808D02*
X15360408D01*
X16852899Y6044799D02*
X16852901Y6044800D01*
X16252901Y6044797D02*
X16252902Y6044799D01*
X15751968Y4191000D02*
X16165033D01*
X16252901Y4278868D01*
X15664101D02*
Y4439400D01*
Y4278868D02*
X15751968Y4191000D01*
X16252901Y4278868D02*
Y4723997D01*
X15659100Y4444400D02*
X15664101Y4439400D01*
X8305800Y10557258D02*
X8330800Y10582258D01*
X8848377D01*
X8305800Y10476497D02*
Y10557258D01*
X8848377Y10595323D02*
Y10804177D01*
Y10582258D02*
X9036220D01*
X8848377Y10804177D02*
X8851900Y10807700D01*
X9036220Y10582258D02*
X9041632Y10587670D01*
X9170773D02*
X9174599Y10591497D01*
X9041632Y10587670D02*
X9170773D01*
X6553200Y10375900D02*
Y10382484D01*
X6413492Y10522192D02*
X6553200Y10382484D01*
X6019800Y9448800D02*
Y10128500D01*
X6413492Y10522192D01*
X8310800Y9086100D02*
Y9272032D01*
X8664984Y9359900D02*
X8750361Y9274523D01*
X8305800Y9081100D02*
X8310800Y9086100D01*
X8398668Y9359900D02*
X8664984D01*
X8310800Y9272032D02*
X8398668Y9359900D01*
X8750361Y9274523D02*
X9170773D01*
X9174599Y9270697D01*
X8007108Y10953508D02*
X8013700Y10960100D01*
X7746992Y10953508D02*
X8007108D01*
X9499599Y10121499D02*
X9499600Y10121500D01*
X8899601Y10121497D02*
X8899602Y10121499D01*
X8398668Y8267700D02*
X8811733D01*
X8899601Y8355568D01*
X8310800D02*
Y8516100D01*
Y8355568D02*
X8398668Y8267700D01*
X8899601Y8355568D02*
Y8800697D01*
X8305800Y8521100D02*
X8310800Y8516100D01*
X15659100Y10557258D02*
X15684100Y10582258D01*
X16201677D01*
X15659100Y10476497D02*
Y10557258D01*
X16201677Y10595323D02*
Y10804177D01*
Y10582258D02*
X16389520D01*
X16201677Y10804177D02*
X16205200Y10807700D01*
X16389520Y10582258D02*
X16394933Y10587670D01*
X16524072D02*
X16527899Y10591497D01*
X16394933Y10587670D02*
X16524072D01*
X13906500Y10375900D02*
Y10382484D01*
X13766792Y10522192D02*
X13906500Y10382484D01*
X13373100Y9448800D02*
Y10128500D01*
X13766792Y10522192D01*
X15664101Y9086100D02*
Y9272032D01*
X16018285Y9359900D02*
X16103661Y9274523D01*
X15659100Y9081100D02*
X15664101Y9086100D01*
X15751968Y9359900D02*
X16018285D01*
X15664101Y9272032D02*
X15751968Y9359900D01*
X16103661Y9274523D02*
X16524072D01*
X16527899Y9270697D01*
X15360408Y10953508D02*
X15367000Y10960100D01*
X15100291Y10953508D02*
X15360408D01*
X16852899Y10121499D02*
X16852901Y10121500D01*
X16252901Y10121497D02*
X16252902Y10121499D01*
X15751968Y8267700D02*
X16165033D01*
X16252901Y8355568D01*
X15664101D02*
Y8516100D01*
Y8355568D02*
X15751968Y8267700D01*
X16252901Y8355568D02*
Y8800697D01*
X15659100Y8521100D02*
X15664101Y8516100D01*
D24*
X3022600Y8013700D02*
X7874000D01*
X2959100Y7835900D02*
X2974833Y7851633D01*
X7874000Y8013700D02*
X8039100Y7848600D01*
X2974833Y7851633D02*
Y7965933D01*
X3022600Y8013700D01*
X3721092Y5956308D02*
X3842008D01*
X3683000Y5994400D02*
X3721092Y5956308D01*
X3683000Y5994400D02*
Y6146800D01*
X8230800Y7848600D02*
X8305800Y7773600D01*
Y7707897D02*
Y7773600D01*
X8039100Y7848600D02*
X8230800D01*
X4114800Y5956308D02*
Y6324600D01*
X4197608Y5956308D02*
X4210308D01*
X4114800D02*
X4197608D01*
X4032008D02*
X4114800D01*
X3665101Y4267103D02*
X4072810D01*
X4102100Y4296393D02*
Y4758619D01*
X4072810Y4267103D02*
X4102100Y4296393D01*
X4131390Y4787908D02*
X4261108D01*
X4102100Y4758619D02*
X4131390Y4787908D01*
X10375900Y8013700D02*
X15227299D01*
X10312400Y7835900D02*
X10328133Y7851633D01*
X15227299Y8013700D02*
X15392400Y7848600D01*
X10328133Y7851633D02*
Y7965933D01*
X10375900Y8013700D01*
X11074392Y5956308D02*
X11195308D01*
X11036300Y5994400D02*
X11074392Y5956308D01*
X11036300Y5994400D02*
Y6146800D01*
X15584100Y7848600D02*
X15659100Y7773600D01*
Y7707897D02*
Y7773600D01*
X15392400Y7848600D02*
X15584100D01*
X11468100Y5956308D02*
Y6324600D01*
X11550908Y5956308D02*
X11563608D01*
X11468100D02*
X11550908D01*
X11385308D02*
X11468100D01*
X11018401Y4267103D02*
X11426110D01*
X11455400Y4296393D02*
Y4758619D01*
X11426110Y4267103D02*
X11455400Y4296393D01*
X11484690Y4787908D02*
X11614408D01*
X11455400Y4758619D02*
X11484690Y4787908D01*
X3022600Y12090400D02*
X7874000D01*
X2959100Y11912600D02*
X2974833Y11928333D01*
X7874000Y12090400D02*
X8039100Y11925300D01*
X2974833Y11928333D02*
Y12042633D01*
X3022600Y12090400D01*
X3721092Y10033008D02*
X3842008D01*
X3683000Y10071100D02*
X3721092Y10033008D01*
X3683000Y10071100D02*
Y10223500D01*
X8230800Y11925300D02*
X8305800Y11850300D01*
Y11784597D02*
Y11850300D01*
X8039100Y11925300D02*
X8230800D01*
X4114800Y10033008D02*
Y10401300D01*
X4197608Y10033008D02*
X4210308D01*
X4114800D02*
X4197608D01*
X4032008D02*
X4114800D01*
X3665101Y8343803D02*
X4072810D01*
X4102100Y8373093D02*
Y8835319D01*
X4072810Y8343803D02*
X4102100Y8373093D01*
X4131390Y8864608D02*
X4261108D01*
X4102100Y8835319D02*
X4131390Y8864608D01*
X10375900Y12090400D02*
X15227299D01*
X10312400Y11912600D02*
X10328133Y11928333D01*
X15227299Y12090400D02*
X15392400Y11925300D01*
X10328133Y11928333D02*
Y12042633D01*
X10375900Y12090400D01*
X11074392Y10033008D02*
X11195308D01*
X11036300Y10071100D02*
X11074392Y10033008D01*
X11036300Y10071100D02*
Y10223500D01*
X15584100Y11925300D02*
X15659100Y11850300D01*
Y11784597D02*
Y11850300D01*
X15392400Y11925300D02*
X15584100D01*
X11468100Y10033008D02*
Y10401300D01*
X11550908Y10033008D02*
X11563608D01*
X11468100D02*
X11550908D01*
X11385308D02*
X11468100D01*
X11018401Y8343803D02*
X11426110D01*
X11455400Y8373093D02*
Y8835319D01*
X11426110Y8343803D02*
X11455400Y8373093D01*
X11484690Y8864608D02*
X11614408D01*
X11455400Y8835319D02*
X11484690Y8864608D01*
D25*
X4451108Y4495540D02*
X4521200Y4425448D01*
X4451108Y4495540D02*
Y4787908D01*
X4521200Y4368800D02*
Y4425448D01*
X5549900Y6159500D02*
Y6311900D01*
Y5997200D02*
Y6159500D01*
X5049800Y5372100D02*
Y5497100D01*
X5549900Y5997200D01*
X6286500Y6011721D02*
X6408879Y6134100D01*
X6725123D01*
X6286500Y4406900D02*
Y6011721D01*
X6783701Y6476320D02*
X6784701Y6477319D01*
X6783701Y6192679D02*
Y6476320D01*
X6725123Y6134100D02*
X6783701Y6192679D01*
X6413492Y6635492D02*
Y6851908D01*
X6039108D02*
X6413492D01*
X5891898Y6704698D02*
X6039108Y6851908D01*
X5890899Y6477319D02*
X5891898Y6478318D01*
Y6704698D01*
X3213100Y7594600D02*
Y7835900D01*
X3162300Y7264400D02*
Y7543800D01*
X3213100Y7594600D01*
X7746992Y6470392D02*
Y6686808D01*
X7453300Y6845300D02*
X7596792Y6701808D01*
X7731992D02*
X7746992Y6686808D01*
X7596792Y6701808D02*
X7731992D01*
X7353300Y6845300D02*
X7453300D01*
X7294700Y6477319D02*
Y6786700D01*
X7353300Y6845300D01*
X6622521Y5418421D02*
Y5720821D01*
X6953701Y6052001D02*
Y6146800D01*
X6563500Y5359400D02*
X6622521Y5418421D01*
Y5720821D02*
X6953701Y6052001D01*
X6954700Y6147799D02*
Y6477319D01*
X6953701Y6146800D02*
X6954700Y6147799D01*
X11804408Y4495540D02*
X11874500Y4425448D01*
X11804408Y4495540D02*
Y4787908D01*
X11874500Y4368800D02*
Y4425448D01*
X12903200Y6159500D02*
Y6311900D01*
Y5997200D02*
Y6159500D01*
X12403100Y5372100D02*
Y5497100D01*
X12903200Y5997200D01*
X13639799Y6011721D02*
X13762180Y6134100D01*
X14078423D01*
X13639799Y4406900D02*
Y6011721D01*
X14137001Y6476320D02*
X14138000Y6477319D01*
X14137001Y6192679D02*
Y6476320D01*
X14078423Y6134100D02*
X14137001Y6192679D01*
X13766792Y6635492D02*
Y6851908D01*
X13392409D02*
X13766792D01*
X13245198Y6704698D02*
X13392409Y6851908D01*
X13244199Y6477319D02*
X13245198Y6478318D01*
Y6704698D01*
X10566400Y7594600D02*
Y7835900D01*
X10515600Y7264400D02*
Y7543800D01*
X10566400Y7594600D01*
X15100291Y6470392D02*
Y6686808D01*
X14806599Y6845300D02*
X14950092Y6701808D01*
X15085292D02*
X15100291Y6686808D01*
X14950092Y6701808D02*
X15085292D01*
X14706599Y6845300D02*
X14806599D01*
X14648000Y6477319D02*
Y6786700D01*
X14706599Y6845300D01*
X13975821Y5418421D02*
Y5720821D01*
X14307001Y6052001D02*
Y6146800D01*
X13916800Y5359400D02*
X13975821Y5418421D01*
Y5720821D02*
X14307001Y6052001D01*
X14308000Y6147799D02*
Y6477319D01*
X14307001Y6146800D02*
X14308000Y6147799D01*
X4451108Y8572240D02*
X4521200Y8502148D01*
X4451108Y8572240D02*
Y8864608D01*
X4521200Y8445500D02*
Y8502148D01*
X5549900Y10236200D02*
Y10388600D01*
Y10073900D02*
Y10236200D01*
X5049800Y9448800D02*
Y9573800D01*
X5549900Y10073900D01*
X6286500Y10088421D02*
X6408879Y10210800D01*
X6725123D01*
X6286500Y8483600D02*
Y10088421D01*
X6783701Y10553020D02*
X6784701Y10554019D01*
X6783701Y10269379D02*
Y10553020D01*
X6725123Y10210800D02*
X6783701Y10269379D01*
X6413492Y10712192D02*
Y10928608D01*
X6039108D02*
X6413492D01*
X5891898Y10781398D02*
X6039108Y10928608D01*
X5890899Y10554019D02*
X5891898Y10555018D01*
Y10781398D01*
X3213100Y11671300D02*
Y11912600D01*
X3162300Y11341100D02*
Y11620500D01*
X3213100Y11671300D01*
X7746992Y10547092D02*
Y10763508D01*
X7453300Y10922000D02*
X7596792Y10778508D01*
X7731992D02*
X7746992Y10763508D01*
X7596792Y10778508D02*
X7731992D01*
X7353300Y10922000D02*
X7453300D01*
X7294700Y10554019D02*
Y10863400D01*
X7353300Y10922000D01*
X6622521Y9495121D02*
Y9797521D01*
X6953701Y10128701D02*
Y10223500D01*
X6563500Y9436100D02*
X6622521Y9495121D01*
Y9797521D02*
X6953701Y10128701D01*
X6954700Y10224499D02*
Y10554019D01*
X6953701Y10223500D02*
X6954700Y10224499D01*
X11804408Y8572240D02*
X11874500Y8502148D01*
X11804408Y8572240D02*
Y8864608D01*
X11874500Y8445500D02*
Y8502148D01*
X12903200Y10236200D02*
Y10388600D01*
Y10073900D02*
Y10236200D01*
X12403100Y9448800D02*
Y9573800D01*
X12903200Y10073900D01*
X13639799Y10088421D02*
X13762180Y10210800D01*
X14078423D01*
X13639799Y8483600D02*
Y10088421D01*
X14137001Y10553020D02*
X14138000Y10554019D01*
X14137001Y10269379D02*
Y10553020D01*
X14078423Y10210800D02*
X14137001Y10269379D01*
X13766792Y10712192D02*
Y10928608D01*
X13392409D02*
X13766792D01*
X13245198Y10781398D02*
X13392409Y10928608D01*
X13244199Y10554019D02*
X13245198Y10555018D01*
Y10781398D01*
X10566400Y11671300D02*
Y11912600D01*
X10515600Y11341100D02*
Y11620500D01*
X10566400Y11671300D01*
X15100291Y10547092D02*
Y10763508D01*
X14806599Y10922000D02*
X14950092Y10778508D01*
X15085292D02*
X15100291Y10763508D01*
X14950092Y10778508D02*
X15085292D01*
X14706599Y10922000D02*
X14806599D01*
X14648000Y10554019D02*
Y10863400D01*
X14706599Y10922000D01*
X13975821Y9495121D02*
Y9797521D01*
X14307001Y10128701D02*
Y10223500D01*
X13916800Y9436100D02*
X13975821Y9495121D01*
Y9797521D02*
X14307001Y10128701D01*
X14308000Y10224499D02*
Y10554019D01*
X14307001Y10223500D02*
X14308000Y10224499D01*
D26*
X9174599Y7822897D02*
D03*
Y5193997D02*
D03*
Y6514797D02*
D03*
X3665101Y4267103D02*
D03*
X16527899Y7822897D02*
D03*
Y5193997D02*
D03*
Y6514797D02*
D03*
X11018401Y4267103D02*
D03*
X9174599Y11899597D02*
D03*
Y9270697D02*
D03*
Y10591497D02*
D03*
X3665101Y8343803D02*
D03*
X16527899Y11899597D02*
D03*
Y9270697D02*
D03*
Y10591497D02*
D03*
X11018401Y8343803D02*
D03*
D27*
X8899601Y7352897D02*
D03*
Y4723997D02*
D03*
Y6044797D02*
D03*
X3940099Y4737103D02*
D03*
X16252901Y7352897D02*
D03*
Y4723997D02*
D03*
Y6044797D02*
D03*
X11293399Y4737103D02*
D03*
X8899601Y11429597D02*
D03*
Y8800697D02*
D03*
Y10121497D02*
D03*
X3940099Y8813803D02*
D03*
X16252901Y11429597D02*
D03*
Y8800697D02*
D03*
Y10121497D02*
D03*
X11293399Y8813803D02*
D03*
D28*
X9499600Y7352900D02*
D03*
Y4724000D02*
D03*
Y6044800D02*
D03*
X3340100Y4737100D02*
D03*
X16852901Y7352900D02*
D03*
Y4724000D02*
D03*
Y6044800D02*
D03*
X10693400Y4737100D02*
D03*
X9499600Y11429600D02*
D03*
Y8800700D02*
D03*
Y10121500D02*
D03*
X3340100Y8813800D02*
D03*
X16852901Y11429600D02*
D03*
Y8800700D02*
D03*
Y10121500D02*
D03*
X10693400Y8813800D02*
D03*
D29*
X4521200Y4368800D02*
D03*
X11874500D02*
D03*
X4521200Y8445500D02*
D03*
X11874500D02*
D03*
D30*
X4267200Y4368800D02*
D03*
X11620500D02*
D03*
X4267200Y8445500D02*
D03*
X11620500D02*
D03*
D31*
X3467100Y7835900D02*
D03*
X2959100D02*
D03*
X3213100D02*
D03*
X10820400D02*
D03*
X10312400D02*
D03*
X10566400D02*
D03*
X3467100Y11912600D02*
D03*
X2959100D02*
D03*
X3213100D02*
D03*
X10820400D02*
D03*
X10312400D02*
D03*
X10566400D02*
D03*
D32*
X4191000Y5537200D02*
D03*
Y5283200D02*
D03*
X11544300Y5537200D02*
D03*
Y5283200D02*
D03*
X4191000Y9613900D02*
D03*
Y9359900D02*
D03*
X11544300Y9613900D02*
D03*
Y9359900D02*
D03*
D33*
X3162300Y7264400D02*
D03*
X10515600D02*
D03*
X3162300Y11341100D02*
D03*
X10515600D02*
D03*
D34*
X3162300Y6756400D02*
D03*
X10515600D02*
D03*
X3162300Y10833100D02*
D03*
X10515600D02*
D03*
D35*
X8610600Y7353300D02*
D03*
X9182100Y7366000D02*
D03*
X9194800Y6083300D02*
D03*
Y4724400D02*
D03*
X3556000Y7518400D02*
D03*
X3644900Y4559300D02*
D03*
Y4953000D02*
D03*
X4673600Y7442200D02*
D03*
X4051300Y7454900D02*
D03*
X6045200Y7493000D02*
D03*
X5435600Y7505700D02*
D03*
X7378700Y7556500D02*
D03*
X6870700Y7569200D02*
D03*
X9804400Y4546600D02*
D03*
Y5092700D02*
D03*
Y5638800D02*
D03*
Y6184900D02*
D03*
Y6731000D02*
D03*
Y7277100D02*
D03*
Y7823200D02*
D03*
X8585200Y4584700D02*
D03*
Y4851400D02*
D03*
X5003800Y6718300D02*
D03*
X3683000Y6146800D02*
D03*
X8851900Y6731000D02*
D03*
X6553200Y6299200D02*
D03*
X15963901Y7353300D02*
D03*
X16535400Y7366000D02*
D03*
X16548100Y6083300D02*
D03*
Y4724400D02*
D03*
X10909300Y7518400D02*
D03*
X10998200Y4559300D02*
D03*
Y4953000D02*
D03*
X12026900Y7442200D02*
D03*
X11404600Y7454900D02*
D03*
X13398500Y7493000D02*
D03*
X12788900Y7505700D02*
D03*
X14732001Y7556500D02*
D03*
X14224001Y7569200D02*
D03*
X17157700Y4546600D02*
D03*
Y5092700D02*
D03*
Y5638800D02*
D03*
Y6184900D02*
D03*
Y6731000D02*
D03*
Y7277100D02*
D03*
Y7823200D02*
D03*
X15938499Y4584700D02*
D03*
Y4851400D02*
D03*
X12357100Y6718300D02*
D03*
X11036300Y6146800D02*
D03*
X16205200Y6731000D02*
D03*
X13906500Y6299200D02*
D03*
X8610600Y11430000D02*
D03*
X9182100Y11442700D02*
D03*
X9194800Y10160000D02*
D03*
Y8801100D02*
D03*
X3556000Y11595100D02*
D03*
X3644900Y8636000D02*
D03*
Y9029700D02*
D03*
X4673600Y11518900D02*
D03*
X4051300Y11531600D02*
D03*
X6045200Y11569700D02*
D03*
X5435600Y11582400D02*
D03*
X7378700Y11633200D02*
D03*
X6870700Y11645900D02*
D03*
X9804400Y8623300D02*
D03*
Y9169400D02*
D03*
Y9715500D02*
D03*
Y10261600D02*
D03*
Y10807700D02*
D03*
Y11353800D02*
D03*
Y11899900D02*
D03*
X8585200Y8661400D02*
D03*
Y8928100D02*
D03*
X5003800Y10795000D02*
D03*
X3683000Y10223500D02*
D03*
X8851900Y10807700D02*
D03*
X6553200Y10375900D02*
D03*
X15963901Y11430000D02*
D03*
X16535400Y11442700D02*
D03*
X16548100Y10160000D02*
D03*
Y8801100D02*
D03*
X10909300Y11595100D02*
D03*
X10998200Y8636000D02*
D03*
Y9029700D02*
D03*
X12026900Y11518900D02*
D03*
X11404600Y11531600D02*
D03*
X13398500Y11569700D02*
D03*
X12788900Y11582400D02*
D03*
X14732001Y11633200D02*
D03*
X14224001Y11645900D02*
D03*
X17157700Y8623300D02*
D03*
Y9169400D02*
D03*
Y9715500D02*
D03*
Y10261600D02*
D03*
Y10807700D02*
D03*
Y11353800D02*
D03*
Y11899900D02*
D03*
X15938499Y8661400D02*
D03*
Y8928100D02*
D03*
X12357100Y10795000D02*
D03*
X11036300Y10223500D02*
D03*
X16205200Y10807700D02*
D03*
X13906500Y10375900D02*
D03*
%TF.MD5,00fd41fb8fbc276f244cd59127961ea6*%
M02*
