%TF.GenerationSoftware,Altium Limited,Altium Designer,23.1.1 (15)*%
G04 Layer_Color=0*
%FSLAX45Y45*%
%MOMM*%
%TF.SameCoordinates,4CCFFED5-D059-4900-A68D-9618ACEA1AB5*%
%TF.FilePolarity,Positive*%
%TF.FileFunction,Profile,NP*%
%TF.Part,CustomerPanel*%
G01*
G75*
%TA.AperFunction,Profile*%
%ADD67C,0.02540*%
G36*
X10071062Y4064000D02*
Y4058940D01*
X10074934Y4049590D01*
X10082090Y4042434D01*
X10091440Y4038562D01*
X10101560D01*
X10110909Y4042434D01*
X10118065Y4049590D01*
X10121938Y4058940D01*
Y4064000D01*
D01*
Y8115300D01*
Y8120360D01*
X10118065Y8129709D01*
X10110909Y8136865D01*
X10101560Y8140738D01*
X10091440D01*
X10082090Y8136865D01*
X10074934Y8129709D01*
X10071062Y8120360D01*
Y8115300D01*
D01*
Y4064000D01*
D02*
G37*
G36*
Y8115300D02*
Y8110240D01*
X10074934Y8100890D01*
X10082090Y8093734D01*
X10091440Y8089862D01*
X10101560D01*
X10110909Y8093734D01*
X10118065Y8100890D01*
X10121938Y8110240D01*
Y8115300D01*
D01*
Y12179300D01*
Y12184360D01*
X10118065Y12193709D01*
X10110909Y12200865D01*
X10101560Y12204738D01*
X10091440D01*
X10082090Y12200865D01*
X10074934Y12193709D01*
X10071062Y12184360D01*
Y12179300D01*
D01*
Y8115300D01*
D02*
G37*
G36*
X2768600Y8089862D02*
X2763540D01*
X2754190Y8093734D01*
X2747034Y8100890D01*
X2743162Y8110240D01*
Y8120360D01*
X2747034Y8129709D01*
X2754190Y8136865D01*
X2763540Y8140738D01*
X2768600D01*
D01*
X10096500D01*
X10101560D01*
X10110909Y8136865D01*
X10118065Y8129709D01*
X10121938Y8120360D01*
Y8115300D01*
Y8110240D01*
X10118065Y8100890D01*
X10110909Y8093734D01*
X10101560Y8089862D01*
X10096500D01*
D01*
X2768600D01*
D02*
G37*
G36*
X10096500D02*
X10091440D01*
X10082090Y8093734D01*
X10074934Y8100890D01*
X10071062Y8110240D01*
Y8120360D01*
X10074934Y8129709D01*
X10082090Y8136865D01*
X10091440Y8140738D01*
X10096500D01*
D01*
X17424400D01*
X17429460D01*
X17438809Y8136865D01*
X17445966Y8129709D01*
X17449838Y8120360D01*
Y8115300D01*
Y8110240D01*
X17445966Y8100890D01*
X17438809Y8093734D01*
X17429460Y8089862D01*
X17424400D01*
D01*
X10096500D01*
D02*
G37*
D67*
X2755900Y4051300D02*
Y12179300D01*
X17437100D01*
Y4051300D01*
X2755900D01*
%TF.MD5,b08e9eeb6bd6eb42a97611eab889335a*%
M02*
